<svg xmlns="http://www.w3.org/2000/svg" id="Layer_1" x="0" y="0" enable-background="new 0 0 300 300" version="1.1" viewBox="0 0 300 300"><g id="Website_Blog"><path fill="#bbcaea" d="M55.9477806 149.7299042c0-.215332.2235718-.4099121.6757202-.4992676h1.1489868c.4516602.0893555.675293.2839355.675293.5043945 0 .2207031-.2236328.4099121-.675293.5046387h-1.1489868C56.1713524 150.1449432 55.9477806 149.9557343 55.9477806 149.7299042zM46.9879417 149.7299042c0-.215332.4006958-.4099121 1.2108765-.4992676h2.05896c.8093872.0893555 1.210083.2839355 1.210083.5043945 0 .2207031-.4006958.4099121-1.210083.5046387h-2.05896C47.3886375 150.1449432 46.9879417 149.9557343 46.9879417 149.7299042zM38.0281639 149.7299042c0-.215332.4006348-.4099121 1.2108765-.4992676h2.05896c.8093872.0893555 1.210083.2839355 1.210083.5043945 0 .2207031-.4006958.4099121-1.210083.5046387h-2.05896C38.4287987 150.1449432 38.0281639 149.9557343 38.0281639 149.7299042zM31.0536156 147.2350311c.215271 0 .40979.4472656.4990845 1.3515625v.644043h.6450195c.9033203.0893555 1.3505249.2839355 1.3505249.5043945 0 .2207031-.4472046.4099121-1.3505249.5046387h-1.6539307v-1.6530762C30.6384544 147.6822968 30.8276024 147.2350311 31.0536156 147.2350311zM31.0536156 137.7726288c.215271 0 .40979.4233398.4990845 1.2788086v2.1745605c-.0892944.8547363-.2838135 1.277832-.5044556 1.277832s-.40979-.4230957-.5044556-1.277832v-2.1745605C30.6384544 138.1959686 30.8276024 137.7726288 31.0536156 137.7726288zM31.0536156 128.3102264c.215271 0 .40979.4233398.4990845 1.2788086v2.1745605c-.0892944.8547363-.2838135 1.277832-.5044556 1.277832s-.40979-.4230957-.5044556-1.277832v-2.1745605C30.6384544 128.7335663 30.8276024 128.3102264 31.0536156 128.3102264zM31.0536156 118.8478241c.215271 0 .40979.4233398.4990845 1.2788086v2.1745605c-.0892944.8547363-.2838135 1.277832-.5044556 1.277832s-.40979-.4230957-.5044556-1.277832v-2.1745605C30.6384544 119.2711639 30.8276024 118.8478241 31.0536156 118.8478241zM31.0536156 109.3854218c.215271 0 .40979.4233398.4990845 1.2788086v2.1745605c-.0892944.8547363-.2838135 1.277832-.5044556 1.277832s-.40979-.4230957-.5044556-1.277832v-2.1745605C30.6384544 109.8087616 30.8276024 109.3854218 31.0536156 109.3854218zM31.0536156 99.9232635c.215271 0 .40979.4230957.4990845 1.2785645v2.1745605c-.0892944.8547363-.2838135 1.277832-.5044556 1.277832s-.40979-.4230957-.5044556-1.277832v-2.1745605C30.6384544 100.3463593 30.8276024 99.9232635 31.0536156 99.9232635zM31.0536156 92.6920624c.215271 0 .40979.2233887.4990845.6755371v1.1491699c-.0892944.4516602-.2838135.675293-.5044556.675293s-.40979-.2236328-.5044556-.675293v-1.1491699C30.6384544 92.915451 30.8276024 92.6920624 31.0536156 92.6920624z"></path><g><path fill="#bbcaea" d="M203.4075012 171.1803436c0-.215332.2235718-.409668.6757202-.4990234h1.1489868c.4517212.0893555.675293.2836914.675293.5043945s-.2235718.4099121-.675293.5043945h-1.1489868C203.631073 171.5956268 203.4075012 171.4064178 203.4075012 171.1803436zM192.8610535 171.1803436c0-.215332.4716187-.409668 1.425293-.4990234h2.423584c.9526978.0893555 1.4243164.2836914 1.4243164.5043945s-.4716187.4099121-1.4243164.5043945h-2.423584C193.3326721 171.5956268 192.8610535 171.4064178 192.8610535 171.1803436zM182.3145447 171.1803436c0-.215332.4716187-.409668 1.425354-.4990234h2.4235229c.9527588.0893555 1.4243774.2836914 1.4243774.5043945s-.4716187.4099121-1.4243774.5043945h-2.4235229C182.7861633 171.5956268 182.3145447 171.4064178 182.3145447 171.1803436zM171.7680969 171.1803436c0-.215332.4716187-.409668 1.425293-.4990234h2.423584c.9527588.0893555 1.4243774.2836914 1.4243774.5043945s-.4716187.4099121-1.4243774.5043945h-2.423584C172.2397156 171.5956268 171.7680969 171.4064178 171.7680969 171.1803436zM163.9895325 173.6857147c-.215271 0-.40979-.4472656-.4990845-1.3513184v-1.6530762h1.6538696c.9033813.0893555 1.3505859.2836914 1.3505859.5043945s-.4472046.4099121-1.3505859.5043945h-.6450195v.6442871C164.4046936 173.2384491 164.2155457 173.6857147 163.9895325 173.6857147zM163.9895325 182.5243378c-.215271 0-.40979-.3952637-.4990845-1.1943359v-2.03125c.0892944-.7983398.2838135-1.1936035.5044556-1.1936035s.40979.3952637.5043945 1.1936035v2.03125C164.4046936 182.1290741 164.2155457 182.5243378 163.9895325 182.5243378zM163.9895325 191.363205c-.215271 0-.40979-.3952637-.4990845-1.1945801v-2.03125c.0892944-.7983398.2838135-1.1936035.5044556-1.1936035s.40979.3952637.5043945 1.1936035v2.03125C164.4046936 190.9679413 164.2155457 191.363205 163.9895325 191.363205zM161.4949036 198.2770233c0-.2150879.4471436-.409668 1.3514404-.4990234h.644104v-.6450195c.0892944-.9033203.2838135-1.3505859.5044556-1.3505859s.40979.4472656.5043945 1.3505859v1.6540527h-1.6529541C161.9420471 198.6923065 161.4949036 198.5030975 161.4949036 198.2770233zM151.9251404 198.2770233c0-.2150879.4279175-.409668 1.2932739-.4990234h2.1991577c.864502.0893555 1.2924194.2839355 1.2924194.5043945 0 .2207031-.4279175.4099121-1.2924194.5046387h-2.1991577C152.3530579 198.6923065 151.9251404 198.5030975 151.9251404 198.2770233zM142.3553772 198.2770233c0-.2150879.4279175-.409668 1.2932739-.4990234h2.1991577c.864502.0893555 1.2924194.2839355 1.2924194.5043945 0 .2207031-.4279175.4099121-1.2924194.5046387h-2.1991577C142.7832947 198.6923065 142.3553772 198.5030975 142.3553772 198.2770233zM132.785614 198.2770233c0-.2150879.4279175-.409668 1.2932739-.4990234h2.1991577c.864502.0893555 1.2924194.2839355 1.2924194.5043945 0 .2207031-.4279175.4099121-1.2924194.5046387h-2.1991577C133.2135315 198.6923065 132.785614 198.5030975 132.785614 198.2770233zM123.2157898 198.2770233c0-.2150879.4279785-.409668 1.293335-.4990234h2.1991577c.864502.0893555 1.2924194.2839355 1.2924194.5043945 0 .2207031-.4279175.4099121-1.2924194.5046387h-2.1991577C123.6437683 198.6923065 123.2157898 198.5030975 123.2157898 198.2770233zM113.6460266 198.2770233c0-.2150879.4279785-.409668 1.293335-.4990234h2.1991577c.8644409.0893555 1.2924194.2839355 1.2924194.5043945 0 .2207031-.4279785.4099121-1.2924194.5046387h-2.1991577C114.0740051 198.6923065 113.6460266 198.5030975 113.6460266 198.2770233zM104.0762634 198.2770233c0-.2150879.4279785-.409668 1.293335-.4990234h2.1990967c.864502.0893555 1.2924805.2839355 1.2924805.5043945 0 .2207031-.4279785.4099121-1.2924805.5046387h-2.1990967C104.5042419 198.6923065 104.0762634 198.5030975 104.0762634 198.2770233zM94.5065002 198.2770233c0-.2150879.4279785-.409668 1.293335-.4990234h2.1990967c.864502.0893555 1.2924805.2839355 1.2924805.5043945 0 .2207031-.4279785.4099121-1.2924805.5046387h-2.1990967C94.9344788 198.6923065 94.5065002 198.5030975 94.5065002 198.2770233zM84.9367371 198.2770233c0-.2150879.4279785-.409668 1.293335-.4990234h2.1990967c.864502.0893555 1.2924805.2839355 1.2924805.5043945 0 .2207031-.4279785.4099121-1.2924805.5046387H86.230072C85.3647156 198.6923065 84.9367371 198.5030975 84.9367371 198.2770233zM77.657196 195.7823944c.215332 0 .40979.4472656.4991455 1.3515625v.644043H78.8013c.9033813.0893555 1.3505859.2839355 1.3505859.5043945 0 .2207031-.4472046.4099121-1.3505859.5046387h-1.6538696v-1.6530762C77.2420959 196.22966 77.4312439 195.7823944 77.657196 195.7823944zM77.657196 186.3151093c.215332 0 .40979.4233398.4991455 1.279541v2.1755371c-.0893555.8552246-.2838135 1.2785645-.5044556 1.2785645s-.40979-.4233398-.5044556-1.2785645v-2.1755371C77.2420959 186.7384491 77.4312439 186.3151093 77.657196 186.3151093zM77.657196 176.8478241c.215332 0 .40979.4233398.4991455 1.2792969v2.1757813c-.0893555.8552246-.2838135 1.2785645-.5044556 1.2785645s-.40979-.4233398-.5044556-1.2785645v-2.1757813C77.2420959 177.2711639 77.4312439 176.8478241 77.657196 176.8478241zM77.657196 167.3802948c.215332 0 .40979.4233398.4991455 1.279541v2.1755371c-.0893555.8552246-.2838135 1.2788086-.5044556 1.2788086s-.40979-.423584-.5044556-1.2788086v-2.1755371C77.2420959 167.8036346 77.4312439 167.3802948 77.657196 167.3802948zM77.657196 157.9130096c.215332 0 .40979.4233398.4991455 1.279541v2.1755371c-.0893555.8552246-.2838135 1.2785645-.5044556 1.2785645s-.40979-.4233398-.5044556-1.2785645v-2.1755371C77.2420959 158.3363495 77.4312439 157.9130096 77.657196 157.9130096zM77.657196 150.6793671c.215332 0 .40979.2236328.4991455.6757813v1.1489258c-.0893555.4516602-.2838135.675293-.5044556.675293s-.40979-.2236328-.5044556-.675293v-1.1489258C77.2420959 150.9029999 77.4312439 150.6793671 77.657196 150.6793671z"></path></g><g><path fill="#bbcaea" d="M165.1666565 96.8317108c-.005127.215332-.236084.3974609-.706543.4604492l-1.1784668-.0673828c-.4523926-.1157227-.6453247-.3205566-.607605-.5378418.0376587-.2172852.289856-.3920898.7390137-.4624023l1.112915.060791C164.9569397 96.4042206 165.1721497 96.6058807 165.1666565 96.8317108zM174.1443787 96.9200897c-.0002441.215332-.4022827.407959-1.215332.4936523l-2.0653687-.0090332c-.8113403-.0927734-1.2115479-.2890625-1.2097168-.5097656.00177-.2207031.4047852-.407959 1.2160645-.4990234l2.0623169.0090332C173.7434998 96.5030975 174.1447449 96.6940155 174.1443787 96.9200897zM183.1231384 96.9029999c.0006714.215332-.4001465.4111328-1.211731.5031738l-2.0632324.0068359c-.8113403-.0864258-1.213501-.279541-1.2142334-.5002441-.0007935-.2207031.4000854-.4111328 1.2108765-.5085449l2.0632324-.0068359C182.7202454 96.4891815 183.122345 96.6769257 183.1231384 96.9029999zM192.1019592 96.8473358c.0015259.215332-.3985596.4125977-1.2095947.5075684l-2.0626831.0144043c-.8114624-.0837402-1.2142334-.2753906-1.2157593-.4960938-.0015259-.220459.3985596-.4125977 1.2087402-.5126953l2.0626831-.0146484C191.6976624 96.4349823 192.1003723 96.6212616 192.1019592 96.8473358zM201.0791931 96.767746c.0020142.215332-.397522.4135742-1.208374.510498l-2.0626221.0195313c-.8117065-.0817871-1.2149048-.2724609-1.21698-.4931641-.0020752-.220459.397522-.4135742 1.2074585-.515625l2.0626831-.0195313C200.6738586 96.356369 201.0770569 96.5419159 201.0791931 96.767746zM208.0629578 94.1869354c.215271 0 .40979.4467773.4990845 1.3500977v1.6486816l-1.6444702.0187988c-.9037476-.0791016-1.3526611-.2683105-1.3551025-.4890137-.0023804-.2207031.4421997-.4147949 1.3433228-.5197754l.6473389-.0075684v-.651123C207.6477966 94.6337128 207.8369446 94.1869354 208.0629578 94.1869354zM208.0629578 82.4464569c.215271 0 .40979.5251465.4990845 1.5866699v2.697998c-.0892944 1.0605469-.2838135 1.5856934-.5044556 1.5856934s-.40979-.5251465-.5044556-1.5856934v-2.697998C207.6477966 82.9716034 207.8369446 82.4464569 208.0629578 82.4464569zM208.0629578 70.7059784c.215271 0 .40979.5251465.4990845 1.5866699v2.697998c-.0892944 1.0605469-.2838135 1.5856934-.5044556 1.5856934s-.40979-.5251465-.5044556-1.5856934v-2.697998C207.6477966 71.2311249 207.8369446 70.7059784 208.0629578 70.7059784zM208.0629578 62.3358612c.215271 0 .40979.2236328.4990845.6757813v1.1489258c-.0892944.4516602-.2838135.675293-.5044556.675293s-.40979-.2236328-.5044556-.675293v-1.1489258C207.6477966 62.559494 207.8369446 62.3358612 208.0629578 62.3358612z"></path></g><g><path fill="#fec9ac" d="M204.8528748,237.3587646l-5.8874359,4.0392303l-3.4229279-1.5063019
 c0,0-0.0855408-2.8239441-0.154068-7.0169373c-0.0341644-3.1663818-0.085556-5.9901276-0.085556-6.161438
 c0-0.4278564,8.796936,0.0856628,9.2076721,0.2227173c0.1710968,0.0513916,0.2567596,1.9851379,0.2909088,4.312912
 C204.8870239,234.706131,204.8528748,237.050827,204.8528748,237.3587646z"></path><path fill="#ffab90" d="M204.8014679,231.2489471c-2.6356049,1.2493286-5.5622406,1.8480988-8.4717407,1.7114563
 c-0.3080597-0.0171356-0.6332397-0.034256-0.9412842-0.0856476c-0.0341644-3.1663818-0.085556-5.9901276-0.085556-6.161438
 c0-0.4278564,8.796936,0.0856628,9.2076721,0.2227173
 C204.6816559,226.9874268,204.7673187,228.9211731,204.8014679,231.2489471z" opacity=".5"></path><path fill="#3a4146" d="M207.7962799,243.9229126c-0.0791779,0.5315704-0.5429535,0.9049225-1.0858459,0.9049225h-26.5124207
 c-0.4637146,0-0.8709412-0.2827759-1.0405731-0.7127228c-0.3959045-1.0744629-0.9274902-3.0651703,0.3053436-3.9134827
 c1.7192688-1.1763611,5.3613586-0.0902863,7.8723145-1.8661652
 c2.4997101-1.7645416,5.4970093-7.7706146,9.0938263-3.6873169c0,0,2.8955536,4.4337311,4.863678,3.4948578
 c1.9680634-0.9386139,3.438446-5.7909698,5.8023529-3.9361267
 C208.2826385,235.1457672,208.1808167,241.6381226,207.7962799,243.9229126z"></path><path fill="#fec9ac" d="M204.8528748,237.3587646l-5.8874359,4.0392303l-3.4229279-1.5063019
 c0,0-0.0855408-2.8239441-0.154068-7.0169373c-0.0341644-3.1663818-0.085556-5.9901276-0.085556-6.161438
 c0-0.4278564,8.796936,0.0856628,9.2076721,0.2227173c0.1710968,0.0513916,0.2567596,1.9851379,0.2909088,4.312912
 C204.8870239,234.706131,204.8528748,237.050827,204.8528748,237.3587646z"></path><path fill="#ffab90" d="M204.8014679,231.2489471c-2.6356049,1.2493286-5.5622406,1.8480988-8.4717407,1.7114563
 c-0.3080597-0.0171356-0.6332397-0.034256-0.9412842-0.0856476c-0.0341644-3.1663818-0.085556-5.9901276-0.085556-6.161438
 c0-0.4278564,8.796936,0.0856628,9.2076721,0.2227173
 C204.6816559,226.9874268,204.7673187,228.9211731,204.8014679,231.2489471z" opacity=".5"></path><path fill="#2e363a" d="M207.7962799,243.9229126c-0.0791779,0.5315704-0.5429535,0.9049225-1.0858459,0.9049225h-26.5124207
 c-0.4637146,0-0.8709412-0.2827759-1.0405731-0.7127228c-0.3959045-1.0744629-0.9274902-3.0651703,0.3053436-3.9134827
 c1.7192688-1.1763611,5.3613586-0.0902863,7.8723145-1.8661652
 c2.4997101-1.7645416,5.4970093-7.7706146,9.0938263-3.6873169c0,0,2.8955536,4.4337311,4.863678,3.4948578
 c1.9680634-0.9386139,3.438446-5.7909698,5.8023529-3.9361267
 C208.2826385,235.1457672,208.1808167,241.6381226,207.7962799,243.9229126z"></path><path fill="#c16244" d="M276.4532471,158.838623c-0.5418396,0.9288635-1.2496033,1.802536-2.2006226,2.3111725
c-0.7077332,0.375946-1.5702515,0.5087738-2.3332825,0.2875366c-0.2654724-0.0662842-0.508728-0.1880493-0.7409668-0.3427429
c-0.8625183,1.5370026-2.5434265,1.9020081-4.2906799,1.6366272
c-1.7361755-0.2543335-3.2843323-1.2828217-4.5450134-2.5102844c-1.2716675-1.2165375-2.333313-2.6429901-3.5607605-3.9147339
c-4.0805664-4.235321-10.0189362-6.6239777-15.9020386-6.3917999
c-3.0632019,0.1106873-6.0600586,0.8957977-9.1231995,0.9954224
c-2.0126343,0.0662842-3.9257202-0.3650208-5.6066284-1.2718811c-0.8846588-0.4643707-1.714035-1.0726318-2.4550018-1.8134613
c-1.7914581-1.7473145-1.6808319-4.710907-0.7961731-7.0554199c0.8957214-2.3442383,2.3996582-4.434433,3.0742035-6.845108
c0.9510803-3.3839417,0.1769714-7.010994,0.6746216-10.4944305
c0.9620667-6.7236099,7.2321777-12.274826,14.0220642-12.4185867
c3.9146729-0.0885544,8.2495575,1.9573593,9.2780457,5.7392578c0.4533691,1.6809006,0.2100372,3.4614258,0.2100372,5.2084732
c0.0110779,1.7362518,0.3649597,3.6382675,1.6919708,4.7773132c2.4770813,2.134201,7.0552979,0.5307846,9.0679321,3.1185608
c2.1231995,2.7313995-0.9067993,7.3094635,1.2716675,9.9968567c1.1832581,1.4705811,3.3175354,1.5812836,5.1422119,2.045639
c3.4391479,0.8625946,6.4138794,3.41716,7.7850952,6.6904144
C278.4990234,151.8606873,278.2447205,155.7643433,276.4532471,158.838623z"></path><path fill="#ce704c" d="M276.4532471,158.838623c-0.5418396,0.9288635-1.2496033,1.802536-2.2006226,2.3111725
c-0.7077332,0.375946-1.5702515,0.5087738-2.3332825,0.2875366c0-0.0110779-0.0110779-0.0110779-0.0110779-0.0220032
c1.526062-2.421875,3.0299988-4.9542999,3.5054932-7.7741089c0.4754944-2.8310242-0.298584-6.0379944-2.5877075-7.7409058
c-1.6697693-1.2386627-3.8261719-1.5261993-5.8388062-2.0127106c-2.0126343-0.4754333-4.1579895-1.3712311-5.0647888-3.240036
c-0.6303406-1.3270874-0.5086365-2.8753052-0.4644165-4.3349457c0.0331421-1.4707336-0.088501-3.0742798-1.0616455-4.1690521
c-1.6255493-1.8357391-4.4012299-1.1942596-6.192688-2.5654907c-1.9352264-1.470871-3.3064575-3.6825485-3.7156067-6.0821381
c-0.387085-2.2338257,0-4.6555557-0.995285-6.6904068c-1.1169128-2.3002396-3.8151703-3.5054321-6.3696747-3.4612885
c-2.5544891,0.044136-4.9652252,1.1390457-7.143692,2.4770737c-2.8420258,1.7471848-5.5845642,4.191185-6.2038269,7.4755096
c-0.5749969,3.0189285,0.7188263,5.9715729,1.0837708,8.9351501c0.0994873,0.8183136-0.0774231,0.8736725-0.6635437,1.4155121
c-0.4976501,0.4423676-0.9399414,0.9400787-1.3270264,1.4819336
c-0.7961731,1.0726318-1.3712463,2.3001099-1.6808472,3.5939941
c-0.5529175,2.2779541-0.2764587,4.7550354,0.7741089,6.8672333c0.4312286,0.8625946,1.0062866,1.7471771,0.8735962,2.6981964
c-0.0663452,0.5086365-0.3317413,0.962204-0.6856232,1.3490906c-0.8846588-0.4643707-1.714035-1.0726318-2.4550018-1.8134613
c-1.7914581-1.7473145-1.6808319-4.710907-0.7961731-7.0554199c0.8957214-2.3442383,2.3996582-4.434433,3.0742035-6.845108
c0.9510803-3.3839417,0.1769714-7.010994,0.6746216-10.4944305
c0.9620667-6.7236099,7.2321777-12.274826,14.0220642-12.4185867
c3.9146729-0.0885544,8.2495575,1.9573593,9.2780457,5.7392578c0.4533691,1.6809006,0.2100372,3.4614258,0.2100372,5.2084732
c0.0110779,1.7362518,0.3649597,3.6382675,1.6919708,4.7773132c2.4770813,2.134201,7.0552979,0.5307846,9.0679321,3.1185608
c2.1231995,2.7313995-0.9067993,7.3094635,1.2716675,9.9968567c1.1832581,1.4705811,3.3175354,1.5812836,5.1422119,2.045639
c3.4391479,0.8625946,6.4138794,3.41716,7.7850952,6.6904144
C278.4990234,151.8606873,278.2447205,155.7643433,276.4532471,158.838623z"></path><path fill="#022e4f" d="M227.8056335,177.3699646c0,0-27.3431702,3.148056-31.3007355,9.6240692
s-4.2493744,35.5388031-2.7111816,38.8219299c1.9743958,4.2141266,11.5301208,2.7625885,12.1597443,2.4927521
c0.6296082-0.2698364,12.3610535-34.4788818,12.3610535-34.4788818l9.4911194-4.8667755
c0,0,12.2324677-12.0428162,11.9626465-12.2227173C239.4984436,176.5604553,227.8056335,177.3699646,227.8056335,177.3699646z
"></path><g><path fill="#a698bb" d="M262.89151,209.058136v33.8660126c0,0.9068756-0.7408752,1.6477051-1.6587524,1.6477051h-42.1325684
c-0.9178772,0-1.6587677-0.7408295-1.6587677-1.6477051V209.058136c0-0.906601,0.7408905-1.6476898,1.6587677-1.6476898
h42.1325684C262.1506348,207.4104462,262.89151,208.151535,262.89151,209.058136z"></path></g><g><path fill="#fec9ac" d="M214.9947205,237.3587646l-5.8874359,4.0392303l-3.4229126-1.5063019
 c0,0-0.085556-2.8239441-0.1540833-7.0169373c-0.0341644-3.1663818-0.085556-5.9901276-0.085556-6.161438
 c0-0.4278564,8.796936,0.0856628,9.2076721,0.2227173c0.1711121,0.0513916,0.2567596,1.9851379,0.2909241,4.312912
 C215.0288696,234.706131,214.9947205,237.050827,214.9947205,237.3587646z"></path><path fill="#ffab90" d="M214.9433289,231.2489471c-2.6356201,1.2493286-5.5622559,1.8480988-8.471756,1.7114563
 c-0.3080597-0.0171356-0.6332397-0.034256-0.9412842-0.0856476c-0.0341644-3.1663818-0.085556-5.9901276-0.085556-6.161438
 c0-0.4278564,8.796936,0.0856628,9.2076721,0.2227173
 C214.8235168,226.9874268,214.9091644,228.9211731,214.9433289,231.2489471z" opacity=".5"></path><path fill="#3a4146" d="M217.9381256,243.9229126c-0.0791779,0.5315704-0.5429535,0.9049225-1.0858459,0.9049225H190.339859
 c-0.4636993,0-0.8709412-0.2827759-1.0405579-0.7127228c-0.3959198-1.0744629-0.9274902-3.0651703,0.3053436-3.9134827
 c1.7192535-1.1763611,5.3613434-0.0902863,7.8722992-1.8661652
 c2.4997101-1.7645416,5.4970093-7.7706146,9.0938263-3.6873169c0,0,2.8955536,4.4337311,4.863678,3.4948578
 c1.9680634-0.9386139,3.438446-5.7909698,5.8023529-3.9361267
 C218.4244843,235.1457672,218.3226624,241.6381226,217.9381256,243.9229126z"></path><path fill="#fec9ac" d="M214.9947205,237.3587646l-5.8874359,4.0392303l-3.4229126-1.5063019
 c0,0-0.085556-2.8239441-0.1540833-7.0169373c-0.0341644-3.1663818-0.085556-5.9901276-0.085556-6.161438
 c0-0.4278564,8.796936,0.0856628,9.2076721,0.2227173c0.1711121,0.0513916,0.2567596,1.9851379,0.2909241,4.312912
 C215.0288696,234.706131,214.9947205,237.050827,214.9947205,237.3587646z"></path><path fill="#ffab90" d="M214.9433289,231.2489471c-2.6356201,1.2493286-5.5622559,1.8480988-8.471756,1.7114563
 c-0.3080597-0.0171356-0.6332397-0.034256-0.9412842-0.0856476c-0.0341644-3.1663818-0.085556-5.9901276-0.085556-6.161438
 c0-0.4278564,8.796936,0.0856628,9.2076721,0.2227173
 C214.8235168,226.9874268,214.9091644,228.9211731,214.9433289,231.2489471z" opacity=".5"></path><path fill="#3a4146" d="M217.9381256,243.9229126c-0.0791779,0.5315704-0.5429535,0.9049225-1.0858459,0.9049225H190.339859
 c-0.4636993,0-0.8709412-0.2827759-1.0405579-0.7127228c-0.3959198-1.0744629-0.9274902-3.0651703,0.3053436-3.9134827
 c1.7192535-1.1763611,5.3613434-0.0902863,7.8722992-1.8661652
 c2.4997101-1.7645416,5.4970093-7.7706146,9.0938263-3.6873169c0,0,2.8955536,4.4337311,4.863678,3.4948578
 c1.9680634-0.9386139,3.438446-5.7909698,5.8023529-3.9361267
 C218.4244843,235.1457672,218.3226624,241.6381226,217.9381256,243.9229126z"></path><path fill="#003567" d="M253.458725,207.4104462h-34.5686493c0,0-0.5861359,22.6971893-1.4486542,23.4933624
c-0.1659088,0.1439056-0.7519684,0.2653961-1.6034851,0.3539429c-3.5829163,0.3539581-11.8325348,0-12.4185944-1.8025208
c-0.7298889-2.2447662-2.7867432-34.8061218,4.2353973-40.4901733
c7.1769104-5.8056641,24.6270752-5.1089783,24.6270752-5.1089783l27.6681976,3.4280853l1.9130859,0.2321777
C261.8630981,187.5163422,267.2153931,203.7281647,253.458725,207.4104462z"></path><path fill="#022e4f" d="M253.458725,207.4104462h-34.5686493c0,0-0.5861359,22.6971893-1.4486542,23.4933624
c-0.1659088,0.1439056-0.7519684,0.2653961-1.6034851,0.3539429
c-1.3490906-5.3080902-2.6761169-9.0288544-2.5766296-14.5028534
c0.1106262-5.6287079,1.913147-11.4675903,6.0379181-15.2937622
c3.7488251-3.4723663,8.9352264-4.9209442,13.9889374-5.5845642
c5.0647125-0.6634674,10.2179718-0.6745453,15.183197-1.8135986c3.5607758-0.8182983,7.0994873-2.289032,9.8420258-4.7439728
c0.5860596-0.530777,1.0947876-1.3049469,1.6366272-2.0348358l1.9130859,0.2321777
C261.8630981,187.5163422,267.2153931,203.7281647,253.458725,207.4104462z"></path><path fill="#fe4c40" d="M259.0874329,172.8197937l2.7756653,14.6965485
c-3.9257202,3.3064575-25.898819,0.4645081-29.5812836-3.6602631l-8.1279297-9.9304504l-10.8151703-13.2038269
c0,0,8.1721954-14.3870239,22.8798981-18.5339355c2.8309479-0.807251,5.8941498-1.2273407,9.1895447-1.0947723
c1.3491669,0.0553436,2.6540527,0.1991119,3.9147186,0.431427
c10.4391479,1.8798828,17.8703918,9.2889709,22.3379822,15.3378906
c3.394928,4.5892792,5.0869141,8.3934479,5.0869141,8.3934479
C267.8788757,172.7424316,259.0874329,172.8197937,259.0874329,172.8197937z"></path><path fill="#ea241f" d="M274.3701782,167.0914612c-7.9952087,5.6620483-15.2827454,5.7283325-15.2827454,5.7283325
l0.9952698,5.2527466l1.7140503,9.1121368l0.0663452,0.331665
c-3.9257202,3.3064575-30.006012-0.5570374-33.6884766-4.6818085l-4.0207367-8.908905
c0.9399414-2.5765686,2.1674194-5.086853,3.4944458-7.4424286c3.3507233,2.0016327,7.2211761,3.1074829,11.1247711,3.1738892
c3.8925781,0.0664215,7.8072357-0.9068604,11.2243195-2.7867432
c2.6982727-1.4819183,4.9430847-3.7929688,6.1152802-6.6350555c1.4155273,1.5480804,2.9747314,3.0299988,4.8878784,3.903656
c1.9130859,0.8625946,4.2463989,1.0283661,6.0599976-0.0110626c1.4044495-0.807251,2.3443604-2.2116852,3.096344-3.6382751
c0.6081848-1.1611786,1.1169128-2.3774414,1.5039368-3.6271973c3.394928,4.5892792,5.0869141,8.3934479,5.0869141,8.3934479
C275.9515076,165.9302673,275.1553345,166.5385437,274.3701782,167.0914612z"></path><path fill="#4a5258" d="M237.9437103,183.34729h-30.5544281c-0.6524048,0-1.2164001-0.4311523-1.382309-1.061554
l-0.0994873-0.3870239l-5.6840515-20.7897644c-0.2432404-0.9179382,0.4423676-1.813736,1.382309-1.813736h28.6744995
c0.4754944,0,0.9067993,0.2323303,1.1611176,0.5971985c0.0995483,0.132843,0.1769714,0.2875366,0.2211761,0.4645081
l5.6177063,20.5797119L237.9437103,183.34729z"></path><path fill="#2e363a" d="M237.9437103,183.34729h-30.5544281c-0.6524048,0-1.2164001-0.4311523-1.382309-1.061554
l-0.0994873-0.3870239c4.9541626-1.1499786,9.7646179-2.908371,13.999939-5.6951141
c5.7282562-3.7597656,10.3175354-9.6207733,11.5339355-16.3111877
c0.0995483,0.132843,0.1769714,0.2875366,0.2211761,0.4645081l5.6177063,20.5797119L237.9437103,183.34729z"></path><ellipse cx="218.315" cy="171.312" fill="#2e363a" rx="1.62" ry="2.28" transform="rotate(-22.331 218.315 171.313)"></ellipse><path fill="#ea241f" d="M226.8152771,159.2952118c0,0,1.7509155-6.2589722,2.3959961-7.0422668l1.7506866,7.2154999
L226.8152771,159.2952118z"></path><path fill="#fec9ac" d="M249.322876,141.5245209c0,0,0.2985382,5.2747498-8.2496033,4.9430847
c-6.5797729-0.2543182-4.9210205-4.1137085-4.85466-4.2797394c0.0442657-0.0110626,0.0774078-0.0221405,0.1216888-0.0332031
c0.9952087-0.2764587,1.6918945-1.1721344,1.6918945-2.2006226v-1.9020081c0,0-4.8657227-0.7961884-5.6618958-4.7330475
c-0.7962494-3.9256592-0.6966858-12.7945404,2.4881439-13.5907135
c3.1958923-0.7963104,7.4975739,7.2763977,10.4170074,7.2210541c0,0,2.6540527-2.2336884,3.7709656,0.3650131
c1.1169128,2.6097641-1.4376526,4.6776962-1.4376526,4.6776962c-0.375946,2.5434875-0.4644318,5.053772-0.1990356,7.5087128
c0.1106262,1.0172882,0.8847198,1.8356018,1.9020844,2.0237732H249.322876z"></path><path fill="#ffab90" d="M243.8378754,135.1105804c-0.1659088,0.3980865-2.8530884,6.7786865-7.6192627,7.0772858
c0.0442657-0.0110626,0.0774078-0.0221405,0.1216888-0.0332031c0.9952087-0.2764587,1.6918945-1.1721344,1.6918945-2.2006226
v-1.9020081C238.032196,138.0520325,241.792099,137.5655212,243.8378754,135.1105804z" opacity=".5"></path><path fill="#4f2d2b" d="M237.0159607 134.4955292c.0123291-.083252.3596191-.043457 1.0164185-.1621094.5587769-.0810547 1.0986938-.3027344 1.5529175-.6381836.5499268-.3769531.769043-.6491699.8377686-.5976563.0513916.0305176-.0698242.3981934-.638855.8688965-.4993286.3681641-1.0886841.6103516-1.7026978.6994629C237.3451843 134.731369 237.0005188 134.5550995 237.0159607 134.4955292zM237.5019836 132.6075897c.0001221.0334473-.1040039.0803223-.3374634.0957031-.1160278.0041504-.2714844.0007324-.4522095-.0720215-.1713257-.0666504-.3967896-.2304688-.4661255-.5158691-.0830078-.486084.1640625-.8364258.2735596-1.1740723.1325684-.3449707.2472534-.6970215.3444214-1.0537109.2524414-.8347168.3553467-1.262207.434082-1.2504883.0667114.0087891.0905762.4606934-.1096191 1.3388672-.1000977.3674316-.2182617.7302246-.3548584 1.0856934-.1322021.3566895-.3215942.7023926-.2595215.9794922.062439.3222656.418396.4240723.6055908.4624023C237.3866272 132.5450897 237.5019836 132.5677948 237.5019836 132.6075897z"></path><g><ellipse cx="240.289" cy="128.515" fill="#4f2d2b" rx=".738" ry=".986"></ellipse></g><g><ellipse cx="234.667" cy="128.116" fill="#4f2d2b" rx=".738" ry=".986"></ellipse></g><g><path fill="#4f2d2b" d="M236.4245911,125.5209198c-0.0432739,0.0666504-0.2914429-0.0598145-0.7874756-0.2258301
 c-0.4121704-0.1589355-0.8589478-0.2172852-1.2818604-0.128418
 c-0.5020752,0.079834-0.7324219,0.2319336-0.7821655,0.1635742
 c-0.0437622-0.041748,0.1311646-0.3286133,0.7142944-0.4929199c0.4953003-0.1040039,1.012207-0.0334473,1.4694214,0.1435547
 C236.2862244,125.2277069,236.4630432,125.4669647,236.4245911,125.5209198z"></path></g><g><path fill="#4f2d2b" d="M241.7104797,126.5326385c-0.0690308,0.0424805-0.225647-0.1738281-0.6032104-0.482666
 c-0.3059082-0.2758789-0.6969604-0.4458008-1.0992432-0.4399414
 c-0.4729004-0.0192871-0.7056885,0.1108398-0.7487183,0.0368652c-0.0421143-0.0415039,0.15448-0.3225098,0.7462769-0.373291
 c0.4938354-0.0075684,0.9727783,0.2050781,1.3251953,0.5251465
 C241.7250061,126.2101288,241.7673035,126.50383,241.7104797,126.5326385z"></path></g><g><path fill="#fec9ac" d="M214.2378845,159.2952118l-6.2892609-9.024765c0,0,0.9238739-4.8137512,0-4.9572906
c-2.0411377-0.3171234-2.3925781,1.8519135-2.3925781,1.8519135s-4.9558716-8.0922699-8.5134583-3.8931427
c-3.5575867,4.1991119,6.5319519,8.456543,6.4736328,8.6315002c-0.0583191,0.1749725,1.701828,7.3917847,1.701828,7.3917847
H214.2378845z"></path></g></g><g><path fill="#2e363a" d="M256.1348267,182.1421051c0,0.6633453-0.5418396,1.2051849-1.2053223,1.2051849h-16.9857941
l-0.6634674-2.4106598h17.6492615C255.5929871,180.9366302,256.1348267,181.4784851,256.1348267,182.1421051z"></path></g><g><path fill="#fec9ac" d="M272.638092,186.1418152c-2.6319275,1.0063477-6.657196,1.2165375-10.8372498,1.039566
c-7.619278-0.3427429-13.1374207-0.65242-17.0189362-2.4881592c-2.0679169-0.9731445-7.8403931-6.0379791-5.5402832-7.2763824
c2.3112488-1.238678,7.4644318,1.6698303,7.4644318,1.6698303s-2.86409-3.4614258-0.342804-3.3839417
c2.4992218,0.0774841,3.903656,4.2574615,4.091629,4.2574615c0.1327057-0.0662842,6.8009491-1.3490906,9.6319122-1.8909454
c0.763031-0.1548309,1.2496033-0.2433929,1.2496033-0.2433929l-2.244873-5.0093536
c0,0,7.2875366-0.0662842,15.2827454-5.7283325c0,0.0996246,1.3159485,3.8815155,1.8356628,8.0948486
C276.7850037,179.6726532,276.4532471,184.6821594,272.638092,186.1418152z"></path></g><g opacity=".5"><path fill="#ffab90" d="M276.2099304,175.1830139c-8.1721191,0.6854706-17.1184082-2.3665161-17.1184082-2.3665161
s7.2875366-0.0662842,15.2827454-5.7283325C274.3742676,167.1877899,275.6902161,170.9696808,276.2099304,175.1830139z"></path></g></g><g><path fill="#e4ecf9" d="M167.0072174,55.7068253H61.0756073c-2.2229652,0-4.0250282,1.8020248-4.0250282,4.0250282v99.5116272
c0,2.2229309,1.802063,4.0249634,4.0250282,4.0249634h105.9316101c2.2229767,0,4.0250397-1.8020325,4.0250397-4.0249634
V59.7318535C171.0322571,57.5088501,169.2301941,55.7068253,167.0072174,55.7068253z"></path><path fill="#fff" d="M166.8119507,64.5868454H61.2707329c-1.5590744,0-2.8229713,1.2639008-2.8229713,2.8229752v91.6384735
c0,1.559082,1.2638969,2.8229675,2.8229713,2.8229675h105.5415039c1.5591125,0,2.8229828-1.2638855,2.8229828-2.8229675
V67.4101105C169.6352234,65.8508148,168.3712158,64.5868454,166.8119507,64.5868454z"></path><path fill="#bbcaea" d="M167.582962 61.0103111c0 .7373581-.5880737 1.3255577-1.3162079 1.3255577-.7374115 0-1.3255005-.5881996-1.3255005-1.3255577 0-.7281303.588089-1.3162155 1.3255005-1.3162155C166.9948883 59.6940956 167.582962 60.2821808 167.582962 61.0103111zM163.9948883 61.0103111c0 .7373581-.588089 1.3255577-1.3162231 1.3255577-.7374115 0-1.3255005-.5881996-1.3255005-1.3255577 0-.7281303.588089-1.3162155 1.3255005-1.3162155C163.4067993 59.6940956 163.9948883 60.2821808 163.9948883 61.0103111zM160.4067993 61.0103111c0 .7373581-.588089 1.3255577-1.3162231 1.3255577-.7374115 0-1.3255005-.5881996-1.3255005-1.3255577 0-.7281303.588089-1.3162155 1.3255005-1.3162155C159.8187103 59.6940956 160.4067993 60.2821808 160.4067993 61.0103111z"></path><g><path fill="#64d3ff" d="M85.7465515,72.5103683v18.8269501c0,0.7534103-0.6082153,1.3546295-1.3615875,1.3546295H64.113533
c-0.7533722,0-1.3615875-0.6012192-1.3615875-1.3546295V72.5103683c0-0.753418,0.6082153-1.3615494,1.3615875-1.3615494
h20.271431C85.1383362,71.148819,85.7465515,71.7569504,85.7465515,72.5103683z"></path><path fill="#fff" d="M69.2339325,87.4283295c-0.1345367-0.1398926-0.2018051-0.3122406-0.2018051-0.5170593
 c0-0.0860062,0.0267715-0.1937714,0.080658-0.3229523l4.1190796-9.7234116
 c0.0860062-0.1937714,0.2071533-0.3527374,0.3631134-0.4765625c0.1562881-0.123497,0.3473816-0.1857452,0.573616-0.1857452
 h0.1613083c0.2262344,0,0.4173279,0.0622482,0.5736237,0.1857452
 c0.1559525,0.1238251,0.2770996,0.2827911,0.3634491,0.4765625l4.1187439,9.7234116
 c0.0535431,0.1291809,0.0806503,0.2369461,0.0806503,0.3229523c0,0.2048187-0.0672684,0.3771667-0.2018051,0.5170593
 c-0.1348648,0.1398926-0.3095627,0.2098389-0.5250931,0.2098389c-0.1509323,0-0.288147-0.0401611-0.4116364-0.1211548
 c-0.1241608-0.0806503-0.2182007-0.1910934-0.2827911-0.330986l-1.0498505-2.5197067h-5.4918823l-1.0498505,2.5197067
 c-0.0645905,0.1398926-0.1589661,0.2503357-0.2824631,0.330986
 c-0.1241608,0.0809937-0.2613754,0.1211548-0.411972,0.1211548
 C69.5435028,87.6381683,69.3684692,87.568222,69.2339325,87.4283295z M72.0688934,83.3256531h4.3610458l-2.180687-5.2492523
 L72.0688934,83.3256531z"></path><path fill="#e4ecf9" d="M165.5396423 76.1203537c0 .326889-.2646484.5916367-.5915833.5916367H92.4810715c-.3269424 0-.5916367-.2647476-.5916367-.5916367 0-.3191986.2646942-.583847.5916367-.583847h72.4669876C165.2749939 75.5365067 165.5396423 75.8011551 165.5396423 76.1203537zM165.5396423 80.1153412c0 .3268967-.2646484.5916367-.5915833.5916367H92.4810715c-.3269424 0-.5916367-.26474-.5916367-.5916367 0-.3191986.2646942-.583847.5916367-.583847h72.4669876C165.2749939 79.5314941 165.5396423 79.7961426 165.5396423 80.1153412zM165.5396423 84.1103287c0 .3268967-.2646484.5916367-.5915833.5916367H92.4810715c-.3269424 0-.5916367-.26474-.5916367-.5916367 0-.319191.2646942-.583847.5916367-.583847h72.4669876C165.2749939 83.5264816 165.5396423 83.7911377 165.5396423 84.1103287zM160.7025909 88.1053162c0 .3268967-.2646484.5916367-.5915833.5916367H92.4810715c-.3269424 0-.5916367-.26474-.5916367-.5916367 0-.319191.2646942-.583847.5916367-.583847h67.6299362C160.4379425 87.5214691 160.7025909 87.7861252 160.7025909 88.1053162zM155.8655396 92.1003036c0 .3268967-.2646484.5916443-.5915833.5916443H92.4810715c-.3269424 0-.5916367-.2647476-.5916367-.5916443 0-.319191.2646942-.5838394.5916367-.5838394h62.7928848C155.6008911 91.5164642 155.8655396 91.7811127 155.8655396 92.1003036zM135.1624451 96.0952988c0 .326889-.2646484.5916367-.5915985.5916367H63.343586c-.3269424 0-.5916405-.2647476-.5916405-.5916367 0-.3191986.264698-.583847.5916405-.583847h71.2272644C134.8977966 95.5114517 135.1624451 95.7761002 135.1624451 96.0952988zM104.7852402 100.0902863c0 .326889-.2646484.5916367-.5915909.5916367H63.343586c-.3269424 0-.5916405-.2647476-.5916405-.5916367 0-.3191986.264698-.583847.5916405-.583847h40.8500633C104.5205917 99.5064392 104.7852402 99.7710876 104.7852402 100.0902863z"></path></g><g><path fill="#ffd964" d="M164.0271149,103.7443085v22.2207413c0,1.1053619-0.8994293,2.0047913-2.0047913,2.0047913
 h-30.9627686c-1.1095734,0-2.0047913-0.8994293-2.0047913-2.0047913v-22.2207413
 c0-1.1095734,0.8952179-2.0047379,2.0047913-2.0047379h30.9627686
 C163.1276855,101.7395706,164.0271149,102.6347351,164.0271149,103.7443085z"></path><path fill="#fff" d="M158.3405762 121.1653671h-5.5940704l-4.8627472-4.8627853 2.6898651-2.6898193c.332016-.3320465.865799-.3320465 1.1978149 0l6.8591309 6.8591156C158.8869781 120.7282486 158.7020416 121.1653671 158.3405762 121.1653671zM151.8470612 121.1668167h-16.5230103c-.363266 0-.5452881-.4391174-.2885437-.6961212l7.4549866-7.4628525c.3331299-.3302383.8672943-.3302383 1.2004395 0L151.8470612 121.1668167zM149.3636017 110.0787659c0 1.1054688-.8991089 2.0046005-2.0045776 2.0046005-1.108429 0-2.0045929-.8991318-2.0045929-2.0046005 0-1.1084213.8961639-2.0075455 2.0045929-2.0075455C148.4644928 108.0712204 149.3636017 108.9703445 149.3636017 110.0787659z"></path><path fill="#e4ecf9" d="M125.1148148 107.1611481c0 .3268967-.2646561.5916443-.5915909.5916443H63.0477638c-.3269386 0-.5916367-.2647476-.5916367-.5916443 0-.319191.264698-.5838394.5916367-.5838394h61.4754601C124.8501587 106.5773087 125.1148148 106.8419571 125.1148148 107.1611481zM125.1148148 111.4532547c0 .3268967-.2646561.5916443-.5915909.5916443H63.0477638c-.3269386 0-.5916367-.2647476-.5916367-.5916443 0-.319191.264698-.583847.5916367-.583847h61.4754601C124.8501587 110.8694077 125.1148148 111.1340637 125.1148148 111.4532547z"></path><g><path fill="#e4ecf9" d="M125.1148148,115.7453613c0,0.3268967-0.2646561,0.5916367-0.5915909,0.5916367H63.0477638
c-0.3269386,0-0.5916367-0.26474-0.5916367-0.5916367c0-0.319191,0.264698-0.583847,0.5916367-0.583847h61.4754601
C124.8501587,115.1615143,125.1148148,115.4261703,125.1148148,115.7453613z"></path></g><g><path fill="#e4ecf9" d="M125.1148148,120.037468c0,0.326889-0.2646561,0.5916367-0.5915909,0.5916367H63.0477638
c-0.3269386,0-0.5916367-0.2647476-0.5916367-0.5916367c0-0.3191986,0.264698-0.583847,0.5916367-0.583847h61.4754601
C124.8501587,119.4536209,125.1148148,119.7182693,125.1148148,120.037468z"></path></g><g><path fill="#e4ecf9" d="M125.1148148,124.3295746c0,0.326889-0.2646561,0.5916367-0.5915909,0.5916367H63.0477638
c-0.3269386,0-0.5916367-0.2647476-0.5916367-0.5916367c0-0.3191986,0.264698-0.583847,0.5916367-0.583847h61.4754601
C124.8501587,123.7457275,125.1148148,124.010376,125.1148148,124.3295746z"></path></g></g><g><path fill="#e4ecf9" d="M91.0327072 154.8950043H72.2301025c-1.1892395 0-2.1533051-.9640656-2.1533051-2.1533051v-16.768219c0-1.1892395.9640656-2.1533051 2.1533051-2.1533051h18.8026047c1.1892395 0 2.1533051.9640656 2.1533051 2.1533051v16.768219C93.1860123 153.9309387 92.2219467 154.8950043 91.0327072 154.8950043zM123.4427872 154.8950043h-18.802597c-1.1892395 0-2.1533127-.9640656-2.1533127-2.1533051v-16.768219c0-1.1892395.9640732-2.1533051 2.1533127-2.1533051h18.802597c1.1892395 0 2.1533127.9640656 2.1533127 2.1533051v16.768219C125.5960999 153.9309387 124.6320267 154.8950043 123.4427872 154.8950043zM155.8528748 154.8950043h-18.802597c-1.1892395 0-2.1533203-.9640656-2.1533203-2.1533051v-16.768219c0-1.1892395.9640808-2.1533051 2.1533203-2.1533051h18.802597c1.1892395 0 2.1533051.9640656 2.1533051 2.1533051v16.768219C158.0061798 153.9309387 157.0421143 154.8950043 155.8528748 154.8950043z"></path></g></g><g><path fill="#7cd194" d="M215.4063873,73.7065582H200.889328c-1.5259857,0-2.7630463-1.2370529-2.7630463-2.7630386v-13.008316
c0-1.5259819,1.2370605-2.7630348,2.7630463-2.7630348h14.5170593c1.5259857,0,2.7630463,1.2370529,2.7630463,2.7630348
v13.008316C218.1694336,72.4695053,216.932373,73.7065582,215.4063873,73.7065582z"></path><circle cx="208.225" cy="62.394" r="2.007" fill="#fff"></circle><path fill="#fff" d="M204.1493073,68.9243546h7.8648529c0.2281494,0,0.4202271-0.2160492,0.3481903-0.4441223
c-0.5283356-1.8612061-2.2333679-3.2419434-4.2746429-3.2419434s-3.7583313,1.3807373-4.2866516,3.2419434
C203.7410278,68.7083054,203.9211731,68.9243546,204.1493073,68.9243546z"></path></g><g><path fill="#f3f6fd" d="M90.1817551,203.5628662H72.6960297c-1.5259857,0-2.7630386-1.2370605-2.7630386-2.7630463v-15.7535095
c0-1.5259857,1.2370529-2.763031,2.7630386-2.763031h17.4857254c1.5259857,0,2.7630386,1.2370453,2.7630386,2.763031
v15.7535095C92.9447937,202.3258057,91.7077408,203.5628662,90.1817551,203.5628662z"></path></g><g><path fill="#bbcaea" d="M86.6736298 193.6821136l.9955902.9956055c.170929.1709137.1708984.4484711-.0000229.6193848l-4.5815735 4.5815735c-.1729813.1729889-.4505081.1729889-.6214371.0020599l-.9955902-.9955902c-.1709213-.170929-.1709747-.4485016.0020142-.6214905l4.5815659-4.5815582C86.2251053 193.5111694 86.5027008 193.5112 86.6736298 193.6821136zM82.2362976 189.313797l2.427536 4.4267273-3.2038651 3.2038574-4.4266968-2.4275513-1.9528885-6.4378815.0020142-.0020142 3.4251175 3.4251251c-.1146545.3720398-.0261459.7943878.2694931 1.0900421.4243927.4243927 1.1102219.4263763 1.5365753.0000153.4223785-.4223633.4243927-1.1122131 0-1.5365906-.295639-.2956543-.7180176-.3841248-1.090065-.2694702l-3.4251175-3.4251251L82.2362976 189.313797z"></path></g><g><circle cx="32.412" cy="96.099" r="10.412" fill="#f0a667"></circle></g><g><path fill="#fff" d="M36.1733704,96.3806229l-4.630537,3.1547623c-0.4197254,0.2843628-0.988409-0.0134735-0.988409-0.5212097
v-6.3095245c0-0.5077362,0.5686836-0.8123398,0.988409-0.5280609l4.6373119,3.1615372
C36.545742,95.5886078,36.545742,96.1302261,36.1733704,96.3806229z"></path></g><g><path fill="#7cd194" d="M55.7223282,221.3692627l-3.2197151,1.5854645l1.5502548,0.8647156
c-3.0373421,4.2185211-6.3468552,7.2693176-8.6840477,6.57164
c-2.0463295-0.6111298-5.1271057-2.4414063,0.5491524-11.0746613l1.2402725-0.4489136l0.4920425-2.1278839
c0,0,2.2242432-3.0061646,4.9755859-5.9703827l1.2272415,1.015213l0.1810608-2.4840698
c2.5944633-2.5822144,5.3944168-4.7098999,7.172226-4.1872864
C63.5156174,205.7992859,60.192646,214.3749542,55.7223282,221.3692627z"></path><path fill="#71c687" d="M49.5696564,216.218338l-2.3768005,2.6890564l1.7624664,0.2114563
c-1.2084999,5.0558014-3.1121025,9.1345825-5.5391846,9.3764038
c-2.1251411,0.2114563-5.6701202-0.3122711-3.6961937-10.4540863l0.977005-0.8861542l-0.3525925-2.1553802
c0,0,0.9165192-3.6255035,2.3365974-7.4123077l1.520771,0.4733124l-0.7755089-2.3668365
c1.41996-3.3738403,3.2025909-6.4051819,5.0457077-6.5965881
C50.868763,198.8553925,51.0500984,208.0505676,49.5696564,216.218338z"></path><path fill="#61ba76" d="M43.6418953,233.5799255c2.2820702-4.3032074,4.6745338-8.5357361,7.1841087-12.7029266
c2.5214157-4.1562195,5.1460838-8.2622375,8.1256943-12.1036682
c-2.8786163,3.9168854-5.3908157,8.0814209-7.7999382,12.2946167
c-2.3956528,4.2215118-4.6766396,8.5133362-6.8359108,12.8531189L43.6418953,233.5799255z"></path><path fill="#f3f6fd" d="M49.2575111,232.7553711l-2.2861938,8.4093475l-0.8460732,3.1322632
c-0.0603638,0.2215424-0.2517815,0.3726349-0.4834023,0.3726349h-8.520237
c-0.2215385,0-0.4129562-0.1510925-0.47332-0.3726349l-3.132267-11.5416107
c-0.0805244-0.3122711,0.1512184-0.6245422,0.4834023-0.6245422h14.7746887
C49.0962143,232.1308289,49.3380356,232.4431,49.2575111,232.7553711z"></path><path fill="#e4ecf9" d="M46.9713173,241.1647186l-0.8460732,3.1322632
c-0.0603638,0.2215424-0.2517815,0.3726349-0.4834023,0.3726349h-8.520237
c-0.2215385,0-0.4129562-0.1510925-0.47332-0.3726349l-3.132267-11.5416107
c-0.0805244-0.3122711,0.1512184-0.6245422,0.4834023-0.6245422h0.7050591
c2.3163147,4.0688324,6.4758682,6.9392395,10.917202,8.5706482
C46.0648804,240.8626556,46.5180359,241.0137482,46.9713173,241.1647186z"></path><g><path fill="#7cd194" d="M39.5386238,228.4968567c-3.3598442-0.3310242-5.7053986-8.0226593-6.6421776-15.4537659h1.1058617
l-1.4932556-4.2685089c-0.2888145-5.4447479,0.3098793-9.8399963,1.9722214-9.6709442
c4.2402611,0.4226837,8.1283798,15.8976135,8.1283798,15.8976135l-1.831337,3.6979218l2.4511833-0.6622314
C45.2158203,228.1869812,41.6658249,228.7011566,39.5386238,228.4968567z"></path><path fill="#61ba76" d="M39.1726151,232.1607056c-0.350132-4.83461-0.8310738-9.6710815-1.4447937-14.4860229
c-0.6294518-4.8123627-1.3725014-9.6188354-2.54879-14.3353119
c1.2983665,4.6850128,2.1678009,9.4800415,2.9226532,14.2823181
c0.7397308,4.8079376,1.3463173,9.6318665,1.8239365,14.4792633L39.1726151,232.1607056z"></path></g><g><path fill="#61ba76" d="M43.0290565,232.1009521c0.477623-4.8473969,1.0842056-9.6713257,1.8239365-14.4792633
c0.7548523-4.8022766,1.6242867-9.5973053,2.9225311-14.2823181
c-1.1761665,4.7164764-1.9193382,9.5229492-2.5486679,14.3353119
c-0.6137161,4.8149414-1.0946579,9.651413-1.4447937,14.4860229L43.0290565,232.1009521z"></path></g></g></g></svg>