<svg xmlns="http://www.w3.org/2000/svg" id="Layer_1" x="0" y="0" enable-background="new 0 0 750 700" version="1.1" viewBox="0 0 750 700"><g id="_x37_"><path fill="#98b1e6" d="M571.3590698,574.4868774c-20.3847656,0-41.0302734-5.6835938-62.4189453-11.5712891
 c-17.8310547-4.9091797-36.2695313-9.984375-55.0605469-11.7314453
 c-34.8017578-3.2324219-69.3710938,0.8544922-102.8017578,4.8085938
 c-42.4316406,5.0175781-86.3085938,10.2099609-129.7812347-0.0566406
 c-47.4150391-11.2041016-84.5302734-29.4365234-110.3164063-54.1885071
 c-14.921875-14.3183594-26.2207031-31.6005859-32.6738281-49.9765625
 c-6.8427734-19.4824219-7.8046875-39.3007813-2.7841797-57.3115234
 c2.796875-10.0341797,7.4189453-19.6552734,11.8886719-28.9599609c2.9960938-6.2382813,6.0947266-12.6894531,8.6123047-19.2011719
 c5.3212891-13.7285156,9.6826172-33.5117188,0.2451172-49.7919922
 c-4.7900391-8.2509766-12.6298828-14.6660156-20.2109375-20.8691406
 c-7.4101563-6.0625-15.0722656-12.3310547-19.9941406-20.3613281
 c-7.6494141-12.4833984-8.3837891-29.2167969-2.0146484-45.9091797c5.6933594-14.9501953,15.8125-27.9384766,25.5976563-40.5
 c23.1025391-29.6933594,49.2890625-63.3486252,86.0791016-83.2714767
 c18.4609375-9.9892578,39.9990234-15.5361328,60.6474609-15.6191406c0.1582031-0.0009766,0.3203125-0.0009766,0.4785156-0.0009766
 c22.3691406,0,41.9736176,6.3349609,56.7265472,18.3369141c10.8046875,8.7958984,18.6962891,20.3164063,26.3291016,31.4570313
 c8.2226563,12.0029221,16.7246094,24.4140549,28.8378906,33.2841721
 c20.2060547,14.7919922,50.1787109,19.2246094,82.234375,12.1630859
 c22.2705078-4.8974609,43.2998047-14.3603516,63.6357422-23.5117188
 c5.2675781-2.3701172,10.7138672-4.8212891,16.0947266-7.1533203
 c24.4003906-10.5751877,53.3886719-21.1796799,83.2919922-19.6435471
 c26.6621094,1.3710938,52.7333984,13.1083908,73.4091797,33.0488205
 c19.875,19.1669922,33.0488281,43.9033203,37.0947266,69.6523438c3.8603516,24.5634766,0.8320313,50.3232422-9,76.5625
 c-8.7949219,23.46875-23.1611328,47.0927734-41.5449219,68.3154297
 c-3.7216797,4.2958984-7.6503906,8.5761719-11.4492188,12.7148438
 c-10.9726563,11.9560547-22.3193359,24.3193359-30.0039063,38.4833984
 c-9.2695313,17.1044922-14.1328125,41.9960938,0.0185547,60.5615234
 c4.8896484,6.4082031,11.8144531,11.6845703,18.5097656,16.7871094
 c10.09375,7.6904297,20.5302734,15.6435547,23.5820313,27.4355774
 c5.2529297,20.296875-14.6425781,39.0693359-36.6904297,48.6689453
 C595.7643433,572.4331665,583.6090698,574.4868774,571.3590698,574.4868774z M427.4557495,549.0132446
 c8.8125,0,17.6523438,0.3505859,26.515625,1.1748047c18.8798828,1.7558594,37.3613281,6.8427734,55.234375,11.7626953
 c34.0654297,9.3789063,66.2412109,18.2353516,98.3232422,4.2714844
 c21.6572266-9.4306641,41.2255859-27.7763672,36.1201172-47.5029297
 c-2.9648438-11.4560852-12.8027344-18.9531555-23.21875-26.8906555
 c-6.7490234-5.1425781-13.7275391-10.4599609-18.6992188-16.9755859
 c-14.4404297-18.9453125-9.5214844-44.265625-0.1025391-61.6445313
 c7.7431641-14.2734375,19.1318359-26.6816406,30.1455078-38.6826172
 c3.7949219-4.1337891,7.7177734-8.4091797,11.4306641-12.6933594
 c39.2431641-45.3037109,57.5810547-97.8144531,50.3125-144.0683594
 c-8.546875-54.3955078-56.6748047-99.1367111-109.5664063-101.8583908
 c-29.6962891-1.5292969-58.5498047,9.0332031-82.8427734,19.5634689c-5.375,2.3291016-10.8183594,4.7783203-16.0820313,7.1474609
 c-20.3837891,9.171875-41.4609375,18.65625-63.8320313,23.5761719
 c-32.3359375,7.1289063-62.6025391,2.6298828-83.0390625-12.3330078
 c-12.2519531-8.9707031-20.8037109-21.4541016-29.0732422-33.525383
 c-7.5917969-11.0830078-15.4433594-22.5429688-26.1347656-31.2470703
 c-33.3671722-27.1445351-83.9091644-20.3828125-116.7451019-2.6132813
 c-36.6064453,19.8232422-62.7236328,53.3906174-85.7666016,83.0068283
 c-9.7402344,12.5039063-19.8115234,25.4316406-25.4521484,40.2421875
 c-6.2578125,16.4003906-5.5537109,32.8134766,1.9326172,45.0292969
 c4.8339844,7.8867188,12.4287109,14.1015625,19.7744141,20.1113281
 c7.6503906,6.2597656,15.5615234,12.7324219,20.4433594,21.140625
 c9.6357422,16.6240234,5.2226563,36.7226563-0.1777344,50.6552734c-2.53125,6.5478516-5.6386719,13.0166016-8.6435547,19.2724609
 c-4.4511719,9.265625-9.0527344,18.8466797-11.8271484,28.7958984
 c-9.8388672,35.2978516,3.6435547,76.0292969,35.1875,106.2988281
 c25.6552734,24.6260071,62.6152344,42.773468,109.8544922,53.936554
 c43.2988129,10.2265625,87.0868988,5.0458984,129.4326019,0.0361328
 C375.9401245,552.0444946,401.5602417,549.0132446,427.4557495,549.0132446z"></path><path fill="#98b1e6" d="M252.7077179,298.761261c-0.0205078,0-0.0419922-0.0009766-0.0634766-0.0019531
 c-1.0205078-0.0634766-2.0527344-0.1738281-3.0683594-0.3291016c-0.5458984-0.0830078-0.921875-0.5927734-0.8378906-1.1386719
 c0.0830078-0.5458984,0.5927734-0.9208984,1.1386719-0.8378906c0.9570313,0.1455078,1.9296875,0.25,2.8925781,0.3095703
 c0.5507813,0.0341797,0.9697266,0.5087891,0.9355469,1.0605469
 C253.6715851,298.3530579,253.2311554,298.761261,252.7077179,298.761261z M260.6725464,298.3247375
 c-0.4765625,0-0.8984375-0.3417969-0.984375-0.8271484c-0.0947266-0.5439453,0.2685547-1.0625,0.8125-1.1582031
 c0.953125-0.1669922,1.9091797-0.3789063,2.8398438-0.6289063c0.5302734-0.1464844,1.0820313,0.171875,1.2255859,0.7060547
 c0.1435547,0.5332031-0.1728516,1.0820313-0.7060547,1.2255859c-0.9882813,0.265625-2.0019531,0.4902344-3.0136719,0.6679688
 C260.7877808,298.3198547,260.729187,298.3247375,260.6725464,298.3247375z M242.0358429,296.3052063
 c-0.1269531,0-0.2558594-0.0244141-0.3808594-0.0751953c-0.9453125-0.3886719-1.8876953-0.828125-2.8007813-1.3037109
 c-0.4902344-0.2548828-0.6796875-0.859375-0.4248047-1.3486328c0.2539063-0.4902344,0.8564453-0.6826172,1.3486328-0.4248047
 c0.8603516,0.4482422,1.7480469,0.8613281,2.6386719,1.2275391c0.5107422,0.2099609,0.7539063,0.7949219,0.5439453,1.3056641
 C242.8014679,296.0718079,242.428421,296.3052063,242.0358429,296.3052063z M271.0026245,294.6977844
 c-0.3535156,0-0.6953125-0.1875-0.8779297-0.5185547c-0.265625-0.484375-0.0878906-1.0927734,0.3955078-1.3583984
 c0.8447266-0.4628906,1.6806641-0.9716797,2.4853516-1.5117188c0.4609375-0.3105469,1.0800781-0.1855469,1.3876953,0.2724609
 c0.3076172,0.4589844,0.1855469,1.0800781-0.2724609,1.3876953c-0.8544922,0.5732422-1.7412109,1.1132813-2.6376953,1.6054688
 C271.3297729,294.6577454,271.1647339,294.6977844,271.0026245,294.6977844z M232.7262726,290.5386047
 c-0.2333984,0-0.4677734-0.0810547-0.6572266-0.2470703c-0.7753906-0.6757813-1.5263672-1.3935547-2.234375-2.1328125
 c-0.3828125-0.3984375-0.3691406-1.03125,0.0302734-1.4130859c0.3974609-0.3828125,1.0302734-0.3691406,1.4130859,0.0302734
 c0.6669922,0.6953125,1.3759766,1.3720703,2.1054688,2.0097656c0.4160156,0.3632813,0.4589844,0.9941406,0.0957031,1.4101563
 C233.2819366,290.4223938,233.0045929,290.5386047,232.7262726,290.5386047z M279.6178589,287.941925
 c-0.2421875,0-0.484375-0.0869141-0.6757813-0.2636719c-0.4072266-0.3730469-0.4345703-1.0058594-0.0605469-1.4121094
 c0.6552734-0.7148438,1.2851563-1.4638672,1.8720703-2.2285156c0.3349609-0.4375,0.9648438-0.5214844,1.4013672-0.1845703
 c0.4384766,0.3359375,0.5214844,0.9638672,0.1845703,1.4013672c-0.6220703,0.8115234-1.2900391,1.6064453-1.9853516,2.3632813
 C280.1569214,287.83255,279.8883667,287.941925,279.6178589,287.941925z M225.7536163,282.0991516
 c-0.34375,0-0.6787109-0.1777344-0.8652344-0.4960938c-0.515625-0.8867188-0.9980469-1.8066406-1.4335938-2.734375
 c-0.234375-0.5-0.0195313-1.0957031,0.4804688-1.3300781c0.5039063-0.2353516,1.0957031-0.0175781,1.3300781,0.4804688
 c0.4101563,0.875,0.8652344,1.7421875,1.3515625,2.5761719c0.2773438,0.4775391,0.1162109,1.0898438-0.3603516,1.3681641
 C226.0973663,282.0552063,225.9245148,282.0991516,225.7536163,282.0991516z M285.6188354,278.7837219
 c-0.1347656,0-0.2714844-0.0273438-0.4033203-0.0849609c-0.5048828-0.2236328-0.7333984-0.8134766-0.5107422-1.3193359
 c0.3925781-0.8886719,0.7480469-1.8007813,1.0566406-2.7119141c0.1777344-0.5224609,0.7441406-0.8007813,1.2685547-0.6259766
 c0.5224609,0.1777344,0.8027344,0.7451172,0.6259766,1.2685547c-0.3271484,0.9658203-0.7050781,1.9345703-1.1210938,2.8779297
 C286.369812,278.5610657,286.0036011,278.7837219,285.6188354,278.7837219z M221.8600616,271.8667297
 c-0.4667969,0-0.8837891-0.3271484-0.9794922-0.8017578c-0.203125-1.0078125-0.3623047-2.0341797-0.4736328-3.0527344
 c-0.0595703-0.5488281,0.3369141-1.0429688,0.8857422-1.1025391c0.5527344-0.0595703,1.0419922,0.3359375,1.1025391,0.8857422
 c0.1044922,0.9580078,0.2548828,1.9248047,0.4462891,2.8730469c0.109375,0.5419922-0.2412109,1.0693359-0.7822266,1.1787109
 C221.9918976,271.8608704,221.9254913,271.8667297,221.8600616,271.8667297z M288.3502808,268.1802063
 c-0.0292969,0-0.0585938-0.0009766-0.0888672-0.0039063c-0.5498047-0.0488281-0.9570313-0.5341797-0.9082031-1.0839844
 c0.0849609-0.9638672,0.1279297-1.9414063,0.1279297-2.90625c0.0009766-0.7871094-0.0273438-1.5888672-0.0849609-2.3857422
 c-0.0400391-0.5507813,0.3740234-1.0302734,0.9248047-1.0693359c0.5439453-0.046875,1.0292969,0.3730469,1.0693359,0.9248047
 c0.0615234,0.8457031,0.0917969,1.6972656,0.0908203,2.53125c0,1.0224609-0.0458984,2.0595703-0.1357422,3.0810547
 C289.2994995,267.7886047,288.8629761,268.1802063,288.3502808,268.1802063z M221.4655304,260.9272766
 c-0.0410156,0-0.0839844-0.0029297-0.1259766-0.0078125c-0.5478516-0.0693359-0.9365234-0.5693359-0.8671875-1.1171875
 c0.1289063-1.0224609,0.3056641-2.0458984,0.5244141-3.0439453c0.1181641-0.5400391,0.6542969-0.8828125,1.1914063-0.7617188
 c0.5390625,0.1181641,0.8798828,0.6513672,0.7617188,1.1914063c-0.2060547,0.9375-0.3720703,1.9013672-0.4931641,2.8642578
 C222.3932648,260.558136,221.9626007,260.9272766,221.4655304,260.9272766z M286.8776245,254.89505
 c-0.4228516,0-0.8164063-0.2705078-0.9521484-0.6943359c-0.2939453-0.9179688-0.6347656-1.8349609-1.0117188-2.7255859
 c-0.2148438-0.5087891,0.0224609-1.0957031,0.53125-1.3105469c0.5058594-0.2138672,1.0947266,0.0205078,1.3105469,0.53125
 c0.4003906,0.9453125,0.7617188,1.9189453,1.0742188,2.8935547c0.1689453,0.5263672-0.1210938,1.0888672-0.6464844,1.2578125
 C287.0817261,254.879425,286.9782104,254.89505,286.8776245,254.89505z M224.5954132,250.4341125
 c-0.1474609,0-0.296875-0.0322266-0.4384766-0.1015625c-0.4960938-0.2421875-0.7011719-0.8408203-0.4589844-1.3378906
 c0.4482422-0.9179688,0.9462891-1.8300781,1.4794922-2.7119141c0.2841797-0.4726563,0.8984375-0.6259766,1.3730469-0.3378906
 c0.4726563,0.2851563,0.6240234,0.9003906,0.3378906,1.3730469c-0.5019531,0.8300781-0.9707031,1.6904297-1.3935547,2.5556641
 C225.3209991,250.2280579,224.9655304,250.4341125,224.5954132,250.4341125z M281.8766479,245.160675
 c-0.3056641,0-0.6074219-0.1396484-0.8037109-0.4042969c-0.5791016-0.7792969-1.1972656-1.5390625-1.8359375-2.2568359
 c-0.3671875-0.4130859-0.3300781-1.0449219,0.0820313-1.4121094c0.4111328-0.3681641,1.0439453-0.3310547,1.4121094,0.0820313
 c0.6777344,0.7617188,1.3330078,1.5673828,1.9472656,2.3955078c0.3291016,0.4433594,0.2363281,1.0693359-0.2070313,1.3984375
 C282.2926636,245.0962219,282.0836792,245.160675,281.8766479,245.160675z M230.9401398,241.5093079
 c-0.2539063,0-0.5087891-0.0966797-0.7041016-0.2890625c-0.3916016-0.3886719-0.3955078-1.0224609-0.0068359-1.4150391
 c0.7197266-0.7265625,1.4833984-1.4306641,2.2685547-2.09375c0.4248047-0.3583984,1.0546875-0.3017578,1.4091797,0.1181641
 c0.3564453,0.4228516,0.3037109,1.0537109-0.1181641,1.4091797c-0.7412109,0.6259766-1.4599609,1.2900391-2.1376953,1.9746094
 C231.4547882,241.410675,231.1979523,241.5093079,230.9401398,241.5093079z M274.0114136,237.5395813
 c-0.1972656,0-0.3964844-0.0576172-0.5703125-0.1796875c-0.7900391-0.5498047-1.6181641-1.0722656-2.4599609-1.5517578
 c-0.4794922-0.2744141-0.6474609-0.8847656-0.3740234-1.3642578s0.8837891-0.6464844,1.3642578-0.3740234
 c0.8945313,0.5097656,1.7734375,1.0644531,2.6123047,1.6494141c0.453125,0.3154297,0.5654297,0.9384766,0.2490234,1.3916016
 C274.6383667,237.3901672,274.3278198,237.5395813,274.0114136,237.5395813z M239.803421,235.0835266
 c-0.3671875,0-0.7197266-0.2021484-0.8945313-0.5517578c-0.2480469-0.4941406-0.0478516-1.0947266,0.4453125-1.3417969
 c0.9140625-0.4580078,1.8623047-0.8818359,2.8193359-1.2578125c0.5126953-0.2011719,1.0947266,0.0498047,1.296875,0.5644531
 s-0.0507813,1.0947266-0.5644531,1.296875c-0.9013672,0.3544922-1.7949219,0.7529297-2.6552734,1.1835938
 C240.107132,235.0493469,239.9538116,235.0835266,239.803421,235.0835266z M264.1217651,232.8413391
 c-0.0908203,0-0.1835938-0.0126953-0.2753906-0.0390625c-0.9277344-0.2646484-1.8789063-0.4921875-2.8291016-0.6738281
 c-0.5419922-0.1044922-0.8974609-0.6279297-0.7939453-1.1708984c0.1044922-0.5429688,0.6269531-0.8974609,1.1708984-0.7939453
 c1.0078125,0.1933594,2.0185547,0.4345703,3.0029297,0.7167969c0.53125,0.1513672,0.8378906,0.7050781,0.6855469,1.2363281
 C264.9577026,232.5552063,264.557312,232.8413391,264.1217651,232.8413391z M250.2604523,231.8530579
 c-0.4931641,0-0.921875-0.3632813-0.9902344-0.8652344c-0.0742188-0.546875,0.3085938-1.0507813,0.8564453-1.1259766
 c1.0058594-0.1367188,2.0400391-0.2314453,3.0722656-0.2802734c0.5498047-0.0546875,1.0205078,0.3994141,1.046875,0.9511719
 s-0.3994141,1.0205078-0.9511719,1.046875c-0.9746094,0.0458984-1.9501953,0.1347656-2.8984375,0.2646484
 C250.350296,231.8501282,250.3053741,231.8530579,250.2604523,231.8530579z"></path><path fill="#ffd4cf" d="M191.6499481,375.9451599l1.8111572,2.8461914l3.9587555,6.2097168
 c0,0,13.1612396,24.7616882,18.284317,32.5582275c4.3727264,6.6409912,19.8195801,8.0210266,26.1932526,3.2687988
 l14.5584412-16.9388123l40.3549805-46.9527893l-12.8853149-27.0039673l-42.5369873,41.9072571l-5.1920929-7.8569641
 l-6.6410217-8.5299683l-7.5379791,4.0794678h-0.0086365l-22.0015411,11.8934937l-1.3368683,0.7245483
 L191.6499481,375.9451599z"></path><linearGradient id="SVGID_1_" x1="245.081" x2="213.506" y1="400.958" y2="381.341" gradientUnits="userSpaceOnUse"><stop offset="0" stop-color="#ffd4cf"></stop><stop offset="1" stop-color="#f8b7b3"></stop></linearGradient><path fill="url(#SVGID_1_)" d="M239.1288605,391.4781189c-0.4638977-0.6946106-1.2051086-1.683075-2.0877075-2.8407593
 c-6.077652-7.9743652-7.9558868-18.4239807-4.8714447-27.9645081
 c0.2271271-0.7029114,0.4029999-1.1510925,0.4991913-1.2205505l-3.1133881-3.9995728l-7.5379944,4.0794983h-0.0085449
 c-2.7600098-0.2502747-5.5889435,0.1207275-7.8398438,0.8627625
 c-5.8993073,1.9487915-10.6690216,6.313324-14.8000793,10.9534912
 c-0.2329254,0.2668152-0.4743805,0.5342102-0.698761,0.802124c-1.8454285,2.1125183-3.5963135,4.3292542-5.2090912,6.6407776
 l3.9587708,6.2096863c0,0,13.1611176,24.7615662,18.2842255,32.5583801
 c4.3727875,6.6408081,19.8195343,8.0206604,26.1932373,3.2685852l14.5583496-16.9388123
 C249.4613342,402.3108826,243.1739197,397.5152588,239.1288605,391.4781189z"></path><path fill="#ffd4cf" d="M294.4804382,322.5922241c0,0,18.6132507-16.6558228,22.448822-14.5931396
 c3.8940735,2.0941162,0.6243286,5.1330872-0.348877,6.4889832c2.9049683-2.1379089,6.5174561-5.4297791,8.4581604-3.2810059
 c3.7833862,4.1890259-3.9948425,8.804718-3.9948425,8.804718s3.5578613-3.1296082,5.5747375-0.7264099
 c2.636261,3.1325684-0.0880737,6.1435547-3.0942078,8.2124329c2.281311-0.868988,4.7235413-0.9082947,6.0048523,2.2546997
 c2.2727356,5.6144409-32.7220154,27.1804504-32.7220154,27.1804504l-12.9308777-26.3454285
 c0,0,3.4030762-25.7002563,11.2587585-21.5132446c7.8557129,4.1870117,0.7834778,23.3032837,0.7834778,23.3032837"></path><path fill="#f8b7b3" d="M312.4794312,308.8792725c0.9585571-0.4194336,1.9521484-0.7969971,2.975708-0.9431152
 c0.5058289-0.0610657,1.0418701-0.0543213,1.4589844,0.2019348c0.4349976,0.2709961,0.8642273,0.563446,1.1692505,0.9567871
 c0.6982727,0.7643433,0.5817871,1.8573914,0.1124573,2.7310181
 c-0.467804,0.9028931-1.1692505,1.6516724-1.8363953,2.5033875
 c-0.0920715,0.1177063-0.0714111,0.2874146,0.0461121,0.3796692
 c0.0966187,0.075592,0.2286682,0.0751648,0.3237305,0.0071411l0.0124512-0.0090637
 c1.4270935-1.020813,2.7880554-2.1239319,4.2680664-2.9731445c0.7364197-0.4116516,1.5172119-0.7729797,2.2832642-0.8462524
 c0.7699585-0.0473938,1.3930054,0.3124695,1.8106689,1.0545044c0.4356079,0.653595,0.6932373,1.4278259,0.5285645,2.2037659
 c-0.1321411,0.7714844-0.5183411,1.5088806-1.0055237,2.1784668
 c-1.0176697,1.3164673-2.3787231,2.429718-3.8030396,3.3166199l0.5048218,0.6944275
 c0.9689331-0.7982483,2.1985474-1.5219727,3.384552-1.5368958c0.5871582-0.0036011,1.1252136,0.2261353,1.5191345,0.6706238
 c0.3967285,0.4642944,0.7780457,1.0062866,0.933136,1.592926c0.3576965,1.1804199-0.1122437,2.4555969-0.9064636,3.4770508
 c-0.8013306,1.0302734-1.836731,1.8988647-2.9243164,2.6829834l-0.0097656,0.006958
 c-0.1496582,0.1080322-0.1835022,0.3166809-0.075592,0.4664001c0.0913391,0.12677,0.2553101,0.1701355,0.3941956,0.1149597
 c1.2495422-0.4962769,2.6792297-0.7748718,3.8492126-0.1699219
 c0.5768433,0.2939453,1.0387878,0.7942505,1.3908386,1.3648682c0.1783142,0.2802734,0.330658,0.6013794,0.4513855,0.901001
 c0.1214294,0.2828064,0.1019897,0.6102295,0.0690308,0.9292297
 c-0.2602234,1.3069763-1.1612549,2.4754028-2.0487976,3.5343018
 c-0.9147949,1.0637817-1.9245605,2.0504761-2.9536743,3.0142212
 c1.0915527-0.8925781,2.1574402-1.8236694,3.1256714-2.8600769
 c0.4880676-0.5139771,0.9480591-1.0585022,1.3583984-1.6461792
 c0.4042664-0.5889587,0.7737122-1.2259216,0.9393005-1.9668884
 c0.0549011-0.3720703,0.0872192-0.7750854-0.0567932-1.1568298
 c-0.1315918-0.3558655-0.2756958-0.6788635-0.4648132-0.9999695
 c-0.3660889-0.6333923-0.8752747-1.2276001-1.5507813-1.5975342
 c-0.6734924-0.3653564-1.4577332-0.5081177-2.2001343-0.4527283
 c-0.74646,0.0473633-1.4639282,0.2347717-2.1470642,0.4811401l0.3088074,0.5883179
 c1.1499939-0.7715149,2.2532043-1.6520996,3.1369934-2.7792358
 c0.4392395-0.5617981,0.8106995-1.2016907,1.0290833-1.9142456
 c0.2205505-0.7098083,0.2457886-1.5032043,0.0404053-2.2336426c-0.1991882-0.743103-0.6184692-1.3541565-1.096405-1.9220276
 c-0.5024719-0.5921021-1.3218079-0.9580688-2.1009216-0.949646
 c-0.7821655-0.006958-1.5015259,0.2343445-2.1526489,0.5422058
 c-0.6569214,0.3168945-1.240448,0.7007446-1.8115234,1.1711426
 c-0.1833191,0.1509705-0.2095337,0.4221802-0.0585022,0.6053772
 c0.1397705,0.1697083,0.3825989,0.2046814,0.563324,0.0892639c1.5246582-0.9717407,2.9044495-2.1157227,4.0171814-3.5743103
 c0.5295105-0.7430725,0.9777527-1.589325,1.1317749-2.5450745c0.1928711-0.9624939-0.1428223-1.9833069-0.6744385-2.7478638
 l-0.4251709-0.5689392c-0.1990051-0.1591797-0.3571472-0.3666077-0.5992126-0.474823
 c-0.4414063-0.2975464-0.9888611-0.3345947-1.4750366-0.3223877
 c-0.9829102,0.1019287-1.8127441,0.5302124-2.5785828,0.9873352
 c-1.5276184,0.9367981-2.8574829,2.0841675-4.2411194,3.1323547l0.3822327,0.3777466
 c0.5996094-0.815094,1.3278809-1.635437,1.8026428-2.6192017c0.23703-0.490387,0.4003601-1.0456543,0.374176-1.6158752
 c-0.0209045-0.5664063-0.2576294-1.133667-0.6465149-1.5263672c-0.362915-0.4223938-0.8306885-0.707489-1.29599-0.9681702
 c-0.5072021-0.2745667-1.0893555-0.2442627-1.6070862-0.1585693
 C314.3754272,307.9519348,313.412384,308.4042358,312.4794312,308.8792725z"></path><path fill="#f8b7b3" d="M316.6864624 314.0003967c-1.214447.8401489-2.397522 1.7224121-3.5767212 2.6082458l-3.5076294 2.6966858-3.4583435 2.7615662c-1.1463623.9298401-2.2919617 1.8598938-3.4255371 2.8152161 1.2941589-.7245483 2.5370483-1.5299377 3.7693787-2.3482056 1.2323303-.8188782 2.4280701-1.687439 3.6351929-2.5406494 1.1802673-.8885803 2.3718872-1.762207 3.5304565-2.6790161 1.1592102-.9159546 2.3097839-1.8415833 3.419281-2.8219604.1296387-.114563.1418457-.3125.0273132-.4419861C316.9936523 313.9300537 316.8151245 313.9113159 316.6864624 314.0003967zM321.0221252 319.7060547c-1.214447.8399353-2.3975525 1.7221985-3.5767517 2.6080322l-3.5076599 2.6966858-3.4583435 2.7615356c-1.1463623.9298706-2.2919617 1.8599243-3.4255371 2.8152466 1.2941589-.7245483 2.5370789-1.5299683 3.7694092-2.3482056 1.2322998-.8188782 2.4280396-1.6874695 3.6351929-2.5406494 1.1802673-.8885803 2.3719177-1.762207 3.5304565-2.6788025 1.1592102-.9159546 2.3097839-1.8417969 3.419281-2.8222046.1296082-.1143188.1418457-.3122559.0273438-.4419556C321.3292847 319.635498 321.1507568 319.6167603 321.0221252 319.7060547zM323.6911316 327.0776672c-1.214447.8401489-2.397522 1.7224121-3.5766907 2.6082458l-3.5076599 2.6965027-3.4583435 2.7615356c-1.1463623.9300537-2.2919617 1.8601074-3.4255371 2.8152466 1.2941589-.7245483 2.5370483-1.5297546 3.7694092-2.3479919 1.2322998-.8191223 2.4280396-1.6874695 3.6351624-2.5406799 1.1802979-.8887939 2.3718872-1.7624207 3.5304565-2.6790161 1.1592102-.9159241 2.3097839-1.8415833 3.419281-2.8219604.1296387-.114563.1418762-.3124695.0273438-.4419861C323.9983215 327.0073547 323.8197937 326.9884033 323.6911316 327.0776672z"></path><g><path fill="#262c51" d="M84.0847778,629.2057495c0.8127747,0,1.5366974-0.5773315,1.6929321-1.4052734l26.4914627-139.1578064
 c0.1768723-0.9361572-0.4388199-1.8382263-1.3749847-2.0150757
 c-0.937851-0.1752014-1.8386459,0.4388123-2.0150986,1.3749695L82.3876343,627.1603394
 c-0.1768723,0.9361572,0.4388123,1.8382568,1.3749847,2.0151367
 C83.8708496,629.1956787,83.978653,629.2057495,84.0847778,629.2057495z"></path></g><g><path fill="#262c51" d="M227.5991974,629.2057495c0.1065521,0,0.2139435-0.0100708,0.3221741-0.0302734
 c0.9361572-0.1768799,1.5518494,0.0737305,1.3749695-0.8624268l-26.4914551-140.3104858
 c-0.1768646-0.9365845-1.0822906-1.5497437-2.0150909-1.3749695
 c-0.9361725,0.1768494-1.5518646,1.0789185-1.3749847,2.0150757l26.4914551,140.3105164
 C226.0625,629.7811279,226.7864227,629.2057495,227.5991974,629.2057495z"></path></g><g><linearGradient id="SVGID_2_" x1="2017.875" x2="2044.727" y1="593.607" y2="593.607" gradientTransform="translate(-1743.927)" gradientUnits="userSpaceOnUse"><stop offset="0" stop-color="#ececec"></stop><stop offset=".987" stop-color="#e0e0e0"></stop></linearGradient><polygon fill="url(#SVGID_2_)" points="300.799 584.662 300.799 609.245 279.709 612.083 274.943 609.076 273.948 598.197 273.948 575.13"></polygon><path fill="#191923" d="M335.6990662,622.1958618h-0.0118408c-0.2306519,0.836731-0.497406,1.5645142-0.7520447,2.1827393
 c-0.4971619,1.1885376-1.5159912,2.0620117-2.7530518,2.3651733
 c-0.6063843,0.1456909-1.2613525,0.2907715-1.9405823,0.4121704
 c-14.771637,2.7897339-45.6733704,0.8853149-55.3392334,0.1817627
 c-1.7948914-0.1207886-3.2987366-1.3945313-3.6990356-3.15271
 c-0.1939392-0.8373413-0.3638916-1.6373901-0.5335693-2.4380493
 c-2.2316284-11.4604492-2.4377136-21.8786621,3.2744751-23.5521851
 c1.3945618-0.4002686,2.7651672,4.7421875,4.2568665,5.8696899
 c3.371582,2.5593872,10.2965393,3.505127,14.5169983,1.6373901
 c0.8006287-0.3635864,1.4916992-0.812439,2.0619812-1.3703003
 c2.4738464-2.4622803,0.0603943-10.4661865,6.9853516-9.7875366
 c5.8821411,0.5702515,5.1182251,5.0696411,6.1246338,7.2044678
 c0.7399292,1.5881958,1.8919983,2.8134155,3.2868958,3.7958374
 c6.0271912,4.1594849,16.8575745,3.5779419,21.7330017,6.5371094
 c0.4485779,0.2664795,0.848877,0.5696411,1.1885071,0.9095459
 C336.7664795,615.6587524,336.4754333,619.3823853,335.6990662,622.1958618z"></path><path fill="#ea4234" d="M335.6956787,622.2007446h-0.012146c-0.2303467,0.836792-0.4971313,1.5645752-0.75177,2.1834106
 c-0.4974365,1.1884766-1.5159912,2.0613403-2.7530518,2.364563
 c-0.6063843,0.1456909-1.261322,0.2913208-1.9405823,0.4121704
 c-14.7719116,2.7897339-45.673645,0.8858643-55.3392029,0.182373
 c-1.7951965-0.1213989-3.2990417-1.3952026-3.6993713-3.1533813
 c-0.1939392-0.836731-0.3635864-1.6373291-0.5335388-2.4379883l0.012146-0.0118408
 c0,0,29.5055847,2.7745361,49.7836914,2.2032471c3.5528259-0.1000977,6.6193542-2.5518188,7.4812622-5.999939
 c0.2444458-0.9779663,0.5190735-1.8535767,0.8033142-2.4004517
 c0.6428223-1.2738037,1.5523987-2.4865723,2.837738-3.0929565c0.4245911-0.1936646,0.8610229-0.3150635,1.322052-0.3635864
 c0.4485779,0.2664795,0.848877,0.5696411,1.1885071,0.9095459
 C336.7627869,615.6643066,336.4717407,619.3873291,335.6956787,622.2007446z"></path><path fill="#262c51" d="M272.7557678,587.1473999c0,4.838623,29.2355957,4.838623,29.2355957,0v-12.0174561h-29.2355347
 L272.7557678,587.1473999z"></path><linearGradient id="SVGID_3_" x1="4002.833" x2="4029.684" y1="-312.875" y2="-312.875" gradientTransform="rotate(16.193 -1044.567 -13294.51)" gradientUnits="userSpaceOnUse"><stop offset="0" stop-color="#ececec"></stop><stop offset=".987" stop-color="#e0e0e0"></stop></linearGradient><polygon fill="url(#SVGID_3_)" points="210.552 578.608 203.697 602.216 182.651 599.059 178.913 594.842 180.992 584.118 187.425 561.966"></polygon><path fill="#191923" d="M233.6003265,624.3852539l-0.0113831-0.0033569
 c-0.4548492,0.7392578-0.9140015,1.3637695-1.3309631,1.8864746
 c-0.8088531,1.0026855-2.0308685,1.557373-3.3034058,1.50354
 c-0.6229706-0.0291748-1.2923889-0.0725098-1.9785309-0.1453857
 c-14.9635925-1.4404297-44.1082306-11.887146-53.1944122-15.2583618
 c-1.6899872-0.6165771-2.7789459-2.2592163-2.6730499-4.0592651
 c0.0472717-0.8582153,0.1071777-1.6738892,0.1675262-2.4901123
 c1.0529938-11.6281128,3.7605133-21.6904907,9.7127686-21.7045898
 c1.4508972,0.0045166,1.3329773,5.3251953,2.4510651,6.8239746
 c2.5240479,3.3981323,8.9105225,6.2375488,13.4844208,5.6209106
 c0.8702545-0.1258545,1.6591034-0.3641968,2.3623047-0.7409058
 c3.0623779-1.6746826,2.9768219-10.0341187,9.4377747-7.4511719
 c5.4897156,2.1880493,3.5013275,6.2958984,3.8724518,8.626709
 c0.2676544,1.7315674,1.0323486,3.2294312,2.0979004,4.5618896
 c4.6280975,5.675354,15.190979,8.1372681,19.0477295,12.338623
 c0.3564606,0.3809814,0.6563416,0.7838135,0.8876801,1.2049561
 C236.4484406,618.4051514,235.1304779,621.8999023,233.6003265,624.3852539z"></path><path fill="#ea4234" d="M233.5956726,624.3890381l-0.0116577-0.003418
 c-0.4545746,0.7393188-0.9137268,1.3638306-1.3308411,1.887085
 c-0.8091431,1.0026245-2.0307159,1.5568237-3.3032532,1.5029907
 c-0.6229553-0.0291748-1.2925568-0.0719604-1.9785309-0.1453857
 c-14.9638672-1.4404907-44.1086731-11.8866577-53.1945648-15.2578125
 c-1.6901245-0.6171875-2.779068-2.2598267-2.673172-4.0598755
 c0.0471039-0.857666,0.1074524-1.6738281,0.1675262-2.4901123l0.0149536-0.0079956
 c0,0,27.5612183,10.8930054,47.1941376,15.9995117c3.4397888,0.8947144,7.0684052-0.6046143,8.8577118-3.6755371
 c0.5074768-0.8709717,1.0154114-1.6352539,1.4409027-2.0812378
 c0.9725494-1.0439453,2.1842651-1.9549561,3.5877075-2.178833
 c0.4617615-0.0675659,0.9147339-0.062439,1.3710022,0.0195313
 c0.3564606,0.3809814,0.6563416,0.7838135,0.8876801,1.2049561
 C236.4433441,618.4094238,235.1255493,621.9036255,233.5956726,624.3890381z"></path><path fill="#262c51" d="M182.9284973,573.1737061c-1.3493805,4.6466675,26.7263184,12.7998657,28.0757141,8.1531982
 l3.3514099-11.5406494l-28.0756531-8.1531982L182.9284973,573.1737061z"></path><path fill="#aecbfa" d="M57.9031792,322.7859497h118.2691193c3.3606567,0,6.3273621,2.065918,7.3111115,5.0912781
 l27.5959167,147.4830627c1.5045471,4.6269226-2.1713715,9.3056641-7.3111267,9.3056641H86.0493011
 c-3.3606567,0-6.3273544-2.065918-7.3111115-5.0912781L50.5920639,332.0916138
 C49.087513,327.4646912,52.7634239,322.7859497,57.9031792,322.7859497z"></path><path fill="#98b1e6" d="M246.9494781,484.6661377H79.7227097c-2.01931,0-3.6562881,1.6369934-3.6562881,3.656311l0,0
 c0,2.0193176,1.6369781,3.6562805,3.6562881,3.6562805h167.3837585c2.1376495,0,3.8468323-1.8347778,3.6389465-4.0155334
 C250.564209,486.0622864,248.859024,484.6661377,246.9494781,484.6661377z"></path><linearGradient id="SVGID_4_" x1="1335.072" x2="1336.648" y1="454.477" y2="454.477" gradientTransform="translate(-1249.072)" gradientUnits="userSpaceOnUse"><stop offset="0" stop-color="#8283d0"></stop><stop offset=".993" stop-color="#6969ad"></stop></linearGradient><path fill="url(#SVGID_4_)" d="M87.5762482,454.4989319c-0.5665512,0.0290833-1.0967636,0.0145569-1.5760727-0.0581665
 C86.4722214,454.4989319,86.9951553,454.5205688,87.5762482,454.4989319z"></path><path fill="#ea4234" d="M196.1592865,323.8314209l3.0789642,25.5203247l4.6487274,38.6127625l13.8512573-13.7218018
 l15.6365814-15.4899292C216.3323975,337.3807678,196.1592865,323.8314209,196.1592865,323.8314209z"></path><path fill="#c10b06" d="M199.2382507,349.3517456l4.6487274,38.6127625l13.8512573-13.7218018
 c-1.7766876-1.5611267-3.3550262-3.3292236-4.6487274-5.3645325
 c-2.7340088-4.2778015-3.9069519-9.2629089-4.8470764-14.1875916
 c-0.5001831-2.6478271-0.3708496-10.5825195-4.0708313-10.4445801
 C201.6100464,344.3495789,200.1697388,346.7729797,199.2382507,349.3517456z"></path><linearGradient id="SVGID_5_" x1="-3099.235" x2="-3068.084" y1="509.095" y2="502.591" gradientTransform="matrix(-1 0 0 1 -2803.688 0)" gradientUnits="userSpaceOnUse"><stop offset="0" stop-color="#30355c"></stop><stop offset=".997" stop-color="#262c51"></stop></linearGradient><path fill="url(#SVGID_5_)" d="M223.0100708,425.7242126l2.010849-1.1303711h25.6411285
 c19.4487915,0,36.2852478,13.5152283,40.4911194,32.5037231l16.0213013,116.0046082
 c0.4418335,9.9588013-40.068512,11.9865112-40.5103455,2.02771
 c-10.9096222-33.2261353-28.1084442-106.1231079-28.1084442-106.1231079l-44.2086029-11.5585022L223.0100708,425.7242126z"></path><path fill="#ea4234" d="M197.9589233,325.0632324c-14.8818207-12.6175232-59.2707214-11.8634033-73.6709137,1.3002014
 c-18.6448975,17.0438232-8.9586029,100.5959473-8.9586029,100.5959473l97.9306793-2.5509644
 C212.9914093,430.4824829,210.4604187,335.6625977,197.9589233,325.0632324z"></path><path fill="#c10b06" d="M150.2155304,364.2819519c0.1173096,8.0037537,0.6581116,16.6755371,5.8374023,22.7787476
 c3.5928955,4.2338257,8.9803619,6.593811,14.4217072,7.7010193
 c5.4413605,1.1071777,11.0372009,1.0944214,16.5825653,1.3826904
 c10.0830231,0.5242004,20.1131897,2.059967,29.8910828,4.5768433
 c-2.7994995,5.5743103-7.5162354,10.1631775-13.1653748,12.8084412
 c-5.7053375,2.6716309-12.1364594,3.3459473-18.4351349,3.4687805
 c-14.0052795,0.2731323-28.0565643-2.0160217-41.2509613-6.7203369
 c-5.5538788-1.9801636-11.164032-4.5361023-14.9324646-9.0710449
 c-3.5727158-4.2994385-5.1131668-9.9622498-5.6159821-15.5296936
 c-0.868576-9.617218,1.3085632-19.4140625,5.8343506-27.9175415
 c2.3335571-4.3845215,5.2958832-8.4388123,8.7989044-11.9620056
 c1.2680511-1.2753601,3.6616821-4.2635193,5.5663452-4.4035339c2.4149933-0.1775513,3.4750519,2.8074646,4.1708221,4.6361694
 C150.1174622,351.8091736,150.1261902,358.186676,150.2155304,364.2819519z"></path><linearGradient id="SVGID_6_" x1="-3056.244" x2="-3005.239" y1="500.47" y2="500.128" gradientTransform="matrix(-1 0 0 1 -2803.688 0)" gradientUnits="userSpaceOnUse"><stop offset="0" stop-color="#30355c"></stop><stop offset=".997" stop-color="#262c51"></stop></linearGradient><path fill="url(#SVGID_6_)" d="M110.8748703,425.4076538c0,0-4.1808929,49.3960571,18.638176,56.909668
 c22.8190765,7.5135803,78.596756,1.9364624,78.596756,1.9364624L182.26297,560.4645386
 c-3.0693359,8.4924316,32.6294708,21.3947754,35.6987915,12.9022827c0,0,26.172699-41.9111328,47.9758911-94.4313049
 c10.7703857-25.9440002,2.3114014-54.678894-25.7787933-54.4959717L110.8748703,425.4076538z"></path><path fill="#af5d54" d="M59.6078453,423.7276001H457.133667c3.8934631,0,7.0498352,3.1563721,7.0498352,7.0498352
 c0,3.8936768-3.1563721,7.0498352-7.0498352,7.0498352H59.6078453c-3.8936844,0-7.0500565-3.1561584-7.0500565-7.0498352
 C52.5577888,426.8839722,55.7141609,423.7276001,59.6078453,423.7276001z"></path><g><polygon fill="#af5d54" points="67.978 630.025 108.334 427.463 103.258 426.457 62.902 629.019"></polygon><polygon fill="#af5d54" points="456.754 630.025 461.83 629.019 421.475 426.457 416.398 427.463"></polygon></g><path fill="#ffd4cf" d="M101.2072601,404.2135315c0.3535919,11.0223694,9.4095154,20.0178833,20.6992645,20.0178833
 l87.6599579-0.2914734l-0.1781769-25.9137878l-71.4053345-5.8267822l0.47435-5.0800476l1.328186-14.3945618
 l-30.3589401-14.4550171l-0.6640701-0.3190002l-0.1121216,0.6296082l-7.4000015,43.3475037
 C101.1899948,402.6955566,101.1727829,403.4632874,101.2072601,404.2135315z"></path><linearGradient id="SVGID_7_" x1="-2924.176" x2="-2924.176" y1="391.204" y2="376.019" gradientTransform="matrix(-1 0 0 1 -2803.688 0)" gradientUnits="userSpaceOnUse"><stop offset="0" stop-color="#ffd4cf"></stop><stop offset="1" stop-color="#f8b7b3"></stop></linearGradient><path fill="url(#SVGID_7_)" d="M101.2072601,404.2135315c0.6554871-1.0349426,1.3023376-2.0784912,2.0095673-3.0704346
 c4.3037109-5.9595947,10.987854-9.9184265,18.0514832-11.9450989
 c5.4421768-1.5697327,10.9361115-1.8803406,16.5507965-2.0614014
 c0.2156067-0.0086365,0.4225922-0.0086365,0.6382141-0.0172729l1.328186-14.3945618l-30.3589401-14.4550171
 c-0.1293411,0.0431824-0.2500992,0.0949707-0.3794861,0.1465759
 c-0.1293411,0.0517883-0.2673645,0.1122131-0.3967056,0.164032l-7.4000015,43.3475037
 C101.1899948,402.6955566,101.1727829,403.4632874,101.2072601,404.2135315z"></path><path fill="#ea4234" d="M99.6548233,377.382019c-0.2328796,6.0545349,43.9686813,10.5222778,44.201561,4.4677429
 c0.0258484-0.690033,1.009079-10.8413086,2.871994-21.6394348
 c5.4508057-31.6612244-21.777359-34.6453552-21.7945709-34.6194458
 C124.9338074,325.5908813,111.7725143,334.111969,99.6548233,377.382019z"></path><linearGradient id="SVGID_8_" x1="-3064.085" x2="-3096.98" y1="419.268" y2="419.268" gradientTransform="matrix(-1 0 0 1 -2803.688 0)" gradientUnits="userSpaceOnUse"><stop offset="0" stop-color="#30355c"></stop><stop offset=".997" stop-color="#1d2344"></stop></linearGradient><path fill="url(#SVGID_8_)" d="M235.8284302,423.7275391h108.2120667v-8.9187317H243.72789
 c-4.3627472,0-7.8994598,3.5366821-7.8994598,7.8994446V423.7275391z"></path><linearGradient id="SVGID_9_" x1="-3093.818" x2="-3160.755" y1="429.002" y2="386.163" gradientTransform="matrix(-1 0 0 1 -2803.688 0)" gradientUnits="userSpaceOnUse"><stop offset="0" stop-color="#30355c"></stop><stop offset=".997" stop-color="#262c51"></stop></linearGradient><path fill="url(#SVGID_9_)" d="M294.0487976,423.7275391h105.0157166c0.249176,0,0.4571533-0.1513977,0.5254822-0.3825378
 l22.0157776-74.4699707c0.1166992-0.3947754-0.2199097-0.8250122-0.6454468-0.8250122H315.9235229
 c-0.2451782,0-0.4498291,0.1489868-0.5170593,0.3764038l-22.0136108,74.462677
 C293.274231,423.2902832,293.616333,423.7275391,294.0487976,423.7275391z"></path></g><ellipse cx="358.064" cy="389.079" fill="#30355c" rx="9.829" ry="7.627" transform="rotate(-64.525 358.064 389.08)"></ellipse><g><path fill="#ffd4cf" d="M248.3722992,404.4049683c-0.0990753-2.5647583-4.5046997-1.8996277-7.7550201-1.7450256
 c1.4610291-0.52948,5.4777069-1.1764221,3.9958649-4.6756592
 c-1.4733124-3.4450073-21.8040314-0.9830017-21.8040314-0.9830017l-6.7594604,0.2969666l-6.6613464,0.7279053
 l0.1781769,25.9137878c0,0,29.5353088,1.8697205,31.2093201-3.4516602
 c0.9348907-2.9996033-0.7772064-4.1781616-2.8609467-4.6625977c3.2765808-0.0563965,6.908432-0.9521179,6.8910675-4.6049805
 c-0.0013885-1.7034607-1.6043854-2.1595459-2.8522339-2.245575
 C244.2508087,408.8265686,248.528244,408.0727234,248.3722992,404.4049683z"></path><path fill="#f8b7b3" d="M241.0174408,396.434021c0.9267883,0.1531067,1.869751,0.3400574,2.7026367,0.7717285
 c0.4066772,0.2183533,0.7942505,0.5266113,0.8984528,0.9888c0.0709076,0.2217407,0.1603088,0.4388123,0.1813354,0.6702271
 c0.0531769,0.2272034,0.0548859,0.4558716,0.0399323,0.6845398
 c-0.0432739,0.4516602-0.2158813,0.8869019-0.5186615,1.2280273
 c-0.3065643,0.3366699-0.6920319,0.595459-1.1011047,0.8077087c-0.8317719,0.4194336-1.7402496,0.629364-2.6561432,0.9224854
 c-0.0843353,0.026947-0.1308746,0.1170654-0.1039276,0.2015076c0.0223846,0.0699158,0.0881805,0.1137085,0.1580353,0.1113892
 l0.0087433-0.0002136c1.582489-0.0536804,3.1616669-0.2046509,4.7107544-0.1012878
 c0.760498,0.0619202,1.5550995,0.176239,2.1399384,0.5617981c0.2933197,0.190979,0.4674683,0.4718628,0.5643158,0.7822266
 c0.0759583,0.3194275,0.015625,0.6993103-0.00737,1.0625305c-0.1354065,0.7123108-0.4731903,1.3646545-1.0138702,1.8544312
 c-0.5562897,0.4725037-1.2328033,0.8066711-1.9460907,1.0511169
 c-1.4409943,0.4520874-3.0213165,0.5988464-4.5317535,0.5386353l0.0353241,0.8580322l0.0010529-0.0001831
 c1.1160431-0.1250916,2.4232178-0.077301,3.2655334,0.5297546c0.4202271,0.2998657,0.5975494,0.7852173,0.6029968,1.3313904
 c0.0012207,0.5773926-0.1040497,1.142334-0.33284,1.6548462c-0.4625092,1.0401611-1.5171204,1.709137-2.631897,2.0942688
 c-1.1343079,0.3783875-2.3540039,0.5251465-3.57164,0.5670471l-0.0061035,0.0002136
 c-0.1206512,0.0042114-0.2151489,0.1054688-0.2109833,0.2261353c0.003479,0.1017151,0.0762177,0.1848755,0.1712952,0.2059326
 c0.6051025,0.1339111,1.197113,0.3295288,1.7190399,0.6384277c0.5079803,0.3190002,0.9471741,0.7645569,1.1356812,1.3360291
 c0.2029266,0.5634766,0.1999817,1.1966248,0.082428,1.8041077c-0.0644226,0.2992249-0.1290741,0.621582-0.2521973,0.8818359
 c-0.141449,0.2596436-0.3286438,0.5047302-0.5697937,0.6986694
 c-0.9605865,0.7925415-2.2136536,1.1852417-3.4255981,1.5215149
 c-1.2282715,0.3244934-2.4843903,0.5440979-3.7438354,0.7275085
 c1.2642365-0.1473999,2.5270386-0.3308105,3.7703552-0.6213684c1.2302246-0.3067932,2.4971313-0.652771,3.5404205-1.4604797
 c0.2611084-0.198761,0.4790344-0.4607239,0.6477509-0.7536011c0.156601-0.3137512,0.2215729-0.6217957,0.3012695-0.9399719
 c0.1405487-0.6329346,0.1707611-1.3187561-0.040329-1.9653931c-0.1956635-0.6552734-0.6888123-1.1869507-1.2418976-1.5529175
 c-0.5658417-0.3577271-1.1930084-0.5817871-1.8244324-0.7409668l-0.0458069,0.4322815
 c1.2470245-0.0079956,2.5083466-0.1185303,3.7325592-0.4876709c1.1960144-0.3739624,2.4444733-1.084198,3.0488129-2.3279724
 c0.294342-0.6060181,0.4342346-1.274353,0.451004-1.9315186c0.0321655-0.6756897-0.23526-1.4857483-0.8334656-1.928772
 c-0.5726624-0.4541626-1.2467194-0.6447449-1.8926849-0.749176
 c-0.6571198-0.0996094-1.2899628-0.1071777-1.9597168-0.0450439l-0.0015259,0.0001831l-0.0174255,0.002533
 c-0.2352448,0.0315857-0.4003906,0.2478333-0.3688049,0.4830322
 c0.0287933,0.2145691,0.2112579,0.3706055,0.4215546,0.3724976c1.641983,0.0168457,3.2501526-0.1775208,4.8130646-0.7123413
 c0.7707672-0.2888794,1.5217438-0.6796875,2.1565399-1.2539063c0.6260376-0.5942078,1.0245514-1.4111938,1.1520996-2.2521973
 c0.0166626-0.4244995,0.0785675-0.8359375-0.0388641-1.2937012
 c-0.1381073-0.4400635-0.4295807-0.8431091-0.8141022-1.0755615
 c-0.7646027-0.4630127-1.6057587-0.5316772-2.4029694-0.5809326
 c-1.6096649-0.0602417-3.1833038,0.1385498-4.7532196,0.2356262l0.062851,0.3126831
 c0.8705292-0.3067932,1.8105316-0.5525208,2.6582642-1.0111389c0.4208069-0.2337341,0.8222504-0.5184021,1.1423798-0.89151
 c0.3179321-0.3781738,0.4949646-0.8631287,0.5258942-1.3471985c0.0093384-0.2449036-0.0005341-0.4866028-0.0620117-0.721405
 c-0.0298309-0.2415161-0.1274719-0.4617615-0.2069092-0.6870728
 c-0.124176-0.4840698-0.5578613-0.8140259-0.9743347-1.0180664
 C242.8951874,396.7187195,241.9491882,396.5614319,241.0174408,396.434021z"></path><path fill="#f8b7b3" d="M240.9413147 402.3152771c-1.3330231.0158081-2.6631622.0848694-3.9920807.1596069l-3.9831848.2756348-3.9777527.361969c-1.3257141.1332703-2.6507874.2680359-3.97966.4337463 1.335022.1154175 2.6721039.1383667 4.0075531.1455078 1.3358765.0067444 2.6687469-.0465393 4.002655-.0800171 1.3312378-.078125 2.6636353-.1362305 3.9922943-.2482605 1.3288727-.1107483 2.6560516-.2341309 3.9792328-.4248962.1712494-.0246582.2900543-.1836243.2654266-.3547974C241.2331085 402.4262695 241.0962372 402.3131714 240.9413147 402.3152771zM240.6495209 408.7288513c-1.3330231.0160217-2.663147.085083-3.9920654.1598206l-3.9831848.2756348-3.9777679.3617554c-1.3257141.1332703-2.6507874.2682495-3.97966.43396 1.3350372.1151733 2.6721039.1381226 4.0075531.1455078 1.3358765.0065308 2.6687469-.0465393 4.0026703-.0800171 1.3312378-.078125 2.6636353-.1364441 3.9922943-.2482605 1.3288574-.1109619 2.6560516-.2343445 3.9792328-.4249268.1712341-.0246277.2900543-.1835938.2654114-.3547974C240.9413147 408.8400269 240.8043976 408.7269592 240.6495209 408.7288513zM238.2402496 415.5606079c-1.332962.0157776-2.6631012.0850525-3.9920197.1598206l-3.9831848.2754211-3.9777679.3619385c-1.3256989.1333008-2.6507874.2680664-3.9796448.4339905 1.3349762.1151733 2.6720428.1381226 4.0075531.1452637 1.3358612.0067444 2.6687317-.0463257 4.002655-.0799866 1.331192-.0779114 2.6636353-.136261 3.9922943-.2480469 1.3288727-.1109924 2.6560059-.234375 3.9792328-.4251404.1712494-.0246277.2900543-.1834106.2653656-.3547974C238.5320435 415.6717834 238.3951721 415.5585022 238.2402496 415.5606079z"></path><path fill="#ffd4cf" d="M209.3883057,398.0261536c0,0,11.1673279-16.5272522,13.5524902-10.643158
 c2.3851776,5.8840942-11.134964,17.0731201-11.134964,17.0731201"></path></g><g><path fill="#ffd4cf" d="M154.1156158,312.733429c-0.8633881,8.4933777,10.4781647,11.829071,17.9356995,9.1452332
 c3.3021698-1.1884155,5.8428192-3.3622437,6.2250977-7.1230774l-0.0161896-7.1178589l-0.0322876-17.5766296
 l-11.0815125-2.9364624l-5.1686707-1.3669434l-8.1372223-1.0027771
 C155.7171478,292.5844727,155.3612976,302.282959,154.1156158,312.733429z"></path><linearGradient id="SVGID_10_" x1="-346.86" x2="-346.86" y1="308.298" y2="296.298" gradientTransform="matrix(-1 0 0 1 -178.458 0)" gradientUnits="userSpaceOnUse"><stop offset="0" stop-color="#ffd4cf"></stop><stop offset="1" stop-color="#f8b7b3"></stop></linearGradient><path fill="url(#SVGID_10_)" d="M158.3439789,290.2468872c1.6661987,9.4796753,19.6552582,20.8798828,20.140564,21.0580139
 l-0.2566071-21.2438049l-11.0815125-2.9364624C166.3456573,288.9528809,157.7938995,287.1326599,158.3439789,290.2468872z"></path><path fill="#ffd4cf" d="M154.5183868,285.682251c1.4518127,1.7542725,2.9985962,3.6470337,4.6611176,5.5185242
 c0.0086823,0.0066833,0.0086823,0.0066833,0.0086823,0.0066833
 c7.3421936,8.2720032,16.9202881,16.2424622,29.9468994,10.9770508
 c13.0792999-5.2873535,8.6614685-29.6517639,4.9763947-43.3919678
 c-1.5055389-5.6437378-2.6711884-9.4951477-2.6711884-9.4951477l-16.6445007-2.3863678l-21.3569641,6.4207306
 l3.7273102,22.039917c0,0-7.9026489-12.4103088-10.8348541-3.785614
 C145.3981323,274.3217773,146.4355469,284.6818542,154.5183868,285.682251z"></path><path d="M196.2796936,254.175415c0,0-0.432663,3.6992188-38.5585632,4.4403992c0,0-0.718811,13.7140198-0.4915161,17.5519104
 c0,0-4.8145447-8.080719-8.7258301-1.7911682c-1.9147186,3.078949,5.5312347,11.236084,5.5312347,11.236084
 c1.8442688,4.7199707,1.1073914,13.0229797,1.1073914,13.0229797s-8.1680756-6.581665-12.7289429-16.3605957
 c-4.5608673-9.7789612-5.5129089-33.0425568,5.7579803-41.4246368
 C159.4423523,232.4683228,217.5771942,226.6063843,196.2796936,254.175415z"></path><path fill="#f8b7b3" d="M154.3036041,280.5336304c-1.2701721,0.1033936-2.823288-0.8600464-3.5399933-2.3293152
 c-0.3776245-0.7245789-0.5541077-1.5139465-0.5001984-2.3359375c0.03685-0.4068604,0.150528-0.7982178,0.3674622-1.1582947
 c0.2141418-0.3543091,0.5736237-0.6755066,1.0482483-0.7974548c0.4730377-0.1238708,0.9864655-0.0172729,1.3856659,0.1526794
 c0.4047241,0.1777344,0.7387238,0.3995361,1.0345917,0.6247559c0.5467529,0.4421387,1.2139282,0.9337463,1.6400146,1.749939
 c0.4495087,0.8240662,0.4307861,1.8625488-0.2391205,2.3849792c-0.3415222,0.2331848-0.8166199,0.2493896-1.1936798,0.0007019
 c-0.3943481-0.2440491-0.5462494-0.756012-0.379364-1.0281677c0.0045929,0.341156,0.2892609,0.6008911,0.5026703,0.6274414
 c0.2311096,0.0409546,0.4382629-0.0632019,0.5259552-0.2288208c0.1970825-0.3157349,0.0768127-0.8847046-0.2017212-1.2127686
 c-0.3032379-0.3777466-0.7728577-0.7315979-1.324707-1.0700073c-0.5223694-0.3444519-0.9748383-0.5169678-1.1724548-0.4360046
 c-0.2167053,0.0263062-0.4705505,0.3713074-0.5554199,0.8239136c-0.0977325,0.4417114-0.0192413,1.0166931,0.1394196,1.5479431
 C152.1790924,278.9263306,153.0597382,279.9528809,154.3036041,280.5336304z"></path><path d="M192.6241913 273.0128174c.0247345 1.4786987-.7142944 2.7680969-1.6532745 2.8840332-.9389343.1159363-1.7179565-.9860535-1.7427063-2.4647217-.0245667-1.4693298.714447-2.758728 1.6533813-2.8746643C191.8205872 270.4415283 192.5996094 271.5435181 192.6241913 273.0128174zM186.8742065 267.3951111c.218338.0814209.4745331.0319214.6480103-.1461792 1.9641266-2.0277405 4.6092377-.5753784 6.4830627 1.0033569.2551117.2156677.638916.1834106.8544006-.0734558.2159576-.2558594.1834259-.638916-.0734406-.8544006-3.1585541-2.6596069-6.1243134-2.9964905-8.1361542-.9199524-.2331696.2409973-.2268982.6243896.0138245.8582764C186.726059 267.3221741 186.7979736 267.3666992 186.8742065 267.3951111zM176.9199219 271.7337341c.0247345 1.4786987-.7142792 2.7680969-1.6532745 2.8840332-.9389343.1159363-1.7179565-.9860535-1.742691-2.4647217-.0245819-1.4693298.714447-2.758728 1.6533813-2.8746643C176.1163177 269.1624451 176.89534 270.2644043 176.9199219 271.7337341zM170.9482422 268.1105042c.2198181.0819397.4762726.0317383.6495667-.1481323 2.3870697-2.4837646 5.1175385-3.1821594 7.7017059-1.9371338.3167267.1408386.6647644.0168762.8093414-.2849731.1448517-.3026123.0168762-.6647644-.2849731-.8093262-3.0944061-1.4841614-6.3224792-.7015381-9.1013336 2.1908569-.2316895.2415466-.2239532.6254883.017334.8579102C170.8012848 268.0388489 170.8727417 268.0823669 170.9482422 268.1105042z"></path><g><path fill="#f8b7b3" d="M185.1330414,275.9052124c-0.4007111,0.7702637-0.4568939,1.6551208-0.4899139,2.5108948
 c-0.0016785,0.8647461,0.1011047,1.7440186,0.4192352,2.6152954
 c0.1492004,0.4387817,0.3865814,0.8641968,0.7028503,1.2636108
 c0.1612244,0.197876,0.3451233,0.3881836,0.5621338,0.5528259
 c0.1051178,0.0852966,0.2218475,0.1589355,0.3408966,0.2303467l0.2600403,0.1529846
 c0.6449585,0.3788757,1.2395477,0.8246155,1.6723022,1.362915c0.448761,0.527771,0.7167358,1.1472473,0.7695007,1.761322
 c0.0490875,0.6175842-0.1881561,1.2157288-0.6529846,1.6538391
 c-0.4711304,0.4356384-1.1822357,0.6647644-1.9433746,0.6902771
 c-0.7667694,0.0212097-1.5714417-0.146637-2.378479-0.3881226
 c0.6465454,0.5417175,1.4242859,0.9490356,2.3040924,1.1531677
 c0.8713379,0.1692505,1.9064484,0.1158752,2.762619-0.4717407
 c0.8725739-0.5515442,1.4091949-1.6165771,1.4139099-2.6548157
 c0.0198975-1.0452576-0.4166107-2.026123-1.0245819-2.7614441
 c-0.6030579-0.7577209-1.3781586-1.2990112-2.1765137-1.7145386l-0.2829895-0.1463318
 c-0.0615997-0.02948-0.124939-0.0574036-0.1844177-0.0977783
 c-0.1225891-0.0718994-0.2392883-0.1696167-0.3517151-0.2809143
 c-0.2259979-0.2253418-0.4165649-0.5185852-0.5979919-0.836792
 c-0.3490448-0.6446533-0.6003571-1.401001-0.7908478-2.1766052
 C185.2828827,277.5440063,185.1095276,276.7389832,185.1330414,275.9052124z"></path></g><g><path fill="#f8b7b3" d="M184.7321014,297.5120544c0.217865,0.0567322,0.4322357,0.0986328,0.6402435,0.1242371
 c2.116272,0.2611084,3.043396-0.5912781,3.4072113-1.1234436c0.1894836-0.2763367,0.1195679-0.653656-0.1577454-0.8425598
 c-0.2776794-0.1906433-0.6539001-0.1188049-0.8426056,0.1577454
 c-0.2089081,0.3039246-0.7793579,0.786377-2.2583923,0.6046143
 c-1.5226135-0.1931152-3.6530151-1.6038513-4.6112823-2.7576599
 c-0.2155304-0.256897-0.5972137-0.292572-0.8544922-0.0787659
 c-0.2572632,0.2138062-0.2931671,0.5962219-0.0787811,0.8544617
 C180.9750366,295.6525879,182.9708557,297.0536194,184.7321014,297.5120544z"></path></g><polygon fill="#d32118" points="154.628 307.91 142.842 318.085 166.803 336.526 172.276 321.879"></polygon><polygon fill="#d32118" points="172.276 321.879 179.507 334.918 185.898 319.07 178.469 310.021"></polygon></g><g><path fill="#98b1e6" d="M689.5379028,90.4964905H390.8115845c-6.6515198,0-12.6764526,5.3920059-13.4571838,12.0435257
 l-23.6552429,201.5307312c-0.7807312,6.6515198,3.978363,12.0435181,10.6298828,12.0435181h298.7263184
 c6.6514893,0,12.6763916-5.3919983,13.4571533-12.0435181l23.6552734-201.5307312
 C700.9484863,95.8884964,696.1893921,90.4964905,689.5379028,90.4964905z"></path><path fill="#aecbfa" d="M680.1110229,90.4964905H381.3847046c-6.6515198,0-12.6764221,5.3920059-13.4571838,12.0435257
 l-23.6552429,201.5307312c-0.7807312,6.6515198,3.978363,12.0435181,10.6298828,12.0435181H653.628479
 c6.6515503,0,12.6764526-5.3919983,13.4571533-12.0435181l23.6552734-201.5307312
 C691.5216675,95.8884964,686.7625122,90.4964905,680.1110229,90.4964905z"></path><polygon fill="#fff" points="656.009 305.166 355.092 305.166 376.642 121.576 677.558 121.576"></polygon><path fill="#30355c" d="M634.6964111,291.3799133H492.9561462c-2.7900391,0-5.3598633,2.2700195-5.7397461,5.0600586
 l-2.6313477,19.6743164h151.8701477l2.6308594-19.6743164
 C639.4561768,293.6499329,637.4962158,291.3799133,634.6964111,291.3799133z" opacity=".1"></path><path fill="#aecbfa" d="M505.0491943,138.0379791H397.0522461c-3.6280823,0-6.9144287,2.9413757-7.340271,6.5691986
 l-6.3157043,53.8066711c-0.4258423,3.6278076,2.1700439,6.5691986,5.7981262,6.5691986h107.9969177
 c3.6283569,0,6.9144592-2.941391,7.3403015-6.5691986l6.3157043-53.8066711
 C511.2731323,140.9793549,508.6775513,138.0379791,505.0491943,138.0379791z"></path><path fill="#d4e3f6" d="M442.3992615 288.7038879h-63.7176819c-3.2492981 0-5.5741882-2.6340942-5.1928101-5.8834229l6.5314026-55.6440735c.3813782-3.2493134 3.324646-5.8833923 6.5739746-5.8833923h63.7176514c3.2493286 0 5.5742188 2.634079 5.1928406 5.8833923l-6.5314026 55.6440735C448.5918579 286.0697937 445.6485596 288.7038879 442.3992615 288.7038879zM539.3416138 288.7038879h-63.7176819c-3.2492981 0-5.5742188-2.6340942-5.1928101-5.8834229l6.5313721-55.6440735c.3814087-3.2493134 3.3246765-5.8833923 6.5739746-5.8833923h63.7176819c3.2493286 0 5.5742188 2.634079 5.1928101 5.8833923l-6.5313721 55.6440735C545.5341797 286.0697937 542.5909424 288.7038879 539.3416138 288.7038879zM636.2839355 288.7038879h-63.7176514c-3.2493286 0-5.5742188-2.6340942-5.1928101-5.8834229l6.5313721-55.6440735c.3814087-3.2493134 3.324646-5.8833923 6.5739746-5.8833923h63.7176514c3.2493286 0 5.5742188 2.634079 5.1928101 5.8833923l-6.5313721 55.6440735C642.4765015 286.0697937 639.5332642 288.7038879 636.2839355 288.7038879z" opacity=".5"></path><polygon fill="#aecbfa" points="574.944 138.038 528.356 138.038 527.64 144.138 574.228 144.138"></polygon><polygon fill="#aecbfa" points="585.43 138.038 584.714 144.138 625.193 144.138 625.909 138.038"></polygon><polygon fill="#aecbfa" points="633.102 138.038 632.386 144.138 659.136 144.138 659.852 138.038"></polygon><polygon fill="#aecbfa" points="605.103 153.25 604.387 159.349 657.351 159.349 658.067 153.25"></polygon><polygon fill="#aecbfa" points="551.212 153.25 526.57 153.25 525.854 159.349 550.496 159.349"></polygon><polygon fill="#aecbfa" points="555.845 153.25 555.129 159.349 597.559 159.349 598.275 153.25"></polygon><polygon fill="#aecbfa" points="572.227 168.461 524.785 168.461 524.069 174.56 571.511 174.56"></polygon><polygon fill="#aecbfa" points="622.216 168.461 580.152 168.461 579.436 174.56 621.5 174.56"></polygon><polygon fill="#aecbfa" points="630.507 168.461 629.791 174.56 655.565 174.56 656.281 168.461"></polygon><polygon fill="#aecbfa" points="547.275 183.672 523 183.672 522.284 189.771 546.56 189.771"></polygon><polygon fill="#aecbfa" points="598.24 183.672 557.517 183.672 556.801 189.771 597.524 189.771"></polygon><polygon fill="#aecbfa" points="608.482 183.672 607.766 189.771 653.78 189.771 654.496 183.672"></polygon><polygon fill="#aecbfa" points="568.9 198.883 521.214 198.883 520.498 204.983 568.184 204.983"></polygon><polygon fill="#aecbfa" points="579.019 198.883 578.303 204.983 619.27 204.983 619.986 198.883"></polygon><path fill="#58a65f" d="M591.4113159,254.9986115c1.1002197-9.3733673,9.5886841-16.9701538,18.9620361-16.9701538
 l0.8682861-7.3972931c-13.4562988,0-25.6481323,10.9109344-27.2276611,24.3674469
 c-0.6464844,5.5080719,0.5873413,10.5879059,3.190979,14.6692657l7.3415527-3.179657
 C592.1184692,263.4656677,590.8909302,259.4316101,591.4113159,254.9986115z"></path><path fill="#aecbfa" d="M625.3512573,254.9986115L625.3512573,254.9986115
 c-1.1002197,9.3730316-9.5886841,16.9698029-18.9616699,16.9698029c-4.9401855,0-9.1373291-2.1119995-11.8430786-5.4801941
 l-7.3415527,3.179657c3.756897,5.8893738,10.368103,9.6978455,18.3163452,9.6978455
 c13.4561157,0,25.6479492-10.9109497,27.227417-24.3671112l0,0H625.3512573z"></path><path fill="#fbbc04" d="M610.3733521,238.0284576c9.3730469,0,16.078125,7.5967865,14.9779053,16.9701538h7.3974609
 c1.5793457-13.4565125-8.0509033-24.3674469-21.5070801-24.3674469l0,0L610.3733521,238.0284576L610.3733521,238.0284576z"></path><polygon fill="#ea4234" points="496.596 270.645 486.642 270.645 488.97 250.805 498.925 250.805"></polygon><polygon fill="#ea4234" points="514.58 270.645 504.625 270.645 508.395 238.526 518.35 238.526"></polygon><polygon fill="#ea4234" points="532.563 270.645 522.609 270.645 525.522 245.825 535.477 245.825"></polygon><polygon fill="#ea4234" points="536.537 271.47 482.474 271.47 482.835 268.403 536.897 268.403"></polygon><g><polygon fill="#4285f4" points="399.922 250.014 387.368 250.014 388.842 237.46 401.395 237.46"></polygon><polygon fill="#aecbfa" points="443.776 241.662 408.234 241.662 408.609 238.47 444.151 238.47"></polygon><polygon fill="#aecbfa" points="427.696 249.004 407.373 249.004 407.747 245.811 428.07 245.811"></polygon><g><polygon fill="#98b1e6" points="397.278 272.537 384.724 272.537 386.198 259.983 398.751 259.983"></polygon><polygon fill="#aecbfa" points="441.132 264.186 405.591 264.186 405.965 260.993 441.507 260.993"></polygon><polygon fill="#aecbfa" points="425.052 271.527 404.729 271.527 405.104 268.334 425.427 268.334"></polygon></g></g><g><polygon fill="#fff" points="415.129 191.475 410.566 191.475 413.451 166.897 418.014 166.897"></polygon><polygon fill="#fff" points="427.901 191.475 423.339 191.475 427.125 159.221 431.687 159.221"></polygon><polygon fill="#fff" points="440.673 191.475 436.111 191.475 440.347 155.383 444.91 155.383"></polygon><polygon fill="#fff" points="453.446 191.475 448.883 191.475 451.768 166.897 456.331 166.897"></polygon><polygon fill="#fff" points="466.218 191.475 461.655 191.475 465.441 159.221 470.004 159.221"></polygon><polygon fill="#fff" points="399.766 174.678 397.794 191.475 402.357 191.475 404.328 174.678"></polygon><polygon fill="#fff" points="478.99 191.475 474.428 191.475 479.115 151.546 483.677 151.546"></polygon><polygon fill="#fff" points="491.762 191.475 487.2 191.475 491.436 155.383 495.999 155.383"></polygon><polygon fill="#fff" points="496.194 191.475 393.363 191.475 393.548 189.903 496.378 189.903"></polygon></g><g><ellipse cx="674.947" cy="104.244" fill="#ea4234" rx="4.926" ry="4.381" transform="rotate(-43.321 674.947 104.244)"></ellipse><ellipse cx="660.493" cy="104.244" fill="#fbbc04" rx="4.926" ry="4.381" transform="rotate(-43.321 660.493 104.244)"></ellipse><ellipse cx="646.039" cy="104.244" fill="#58a65f" rx="4.926" ry="4.381" transform="rotate(-43.321 646.039 104.244)"></ellipse></g></g><g><path fill="#f29c03" d="M374.8241272,166.2420959H316.553833c-2.6706848,0-5.1251221,2.1648102-5.4822388,4.8356934
 l-7.7909851,58.2703094c-0.3570557,2.6704865,1.5184326,4.8356781,4.1891174,4.8356781h58.2703247
 c2.6706848,0,5.1251831-2.1651917,5.4822388-4.8356781l7.7909851-58.2703094
 C379.3703918,168.4069061,377.4948425,166.2420959,374.8241272,166.2420959z"></path><path fill="#fbbc04" d="M370.0548096,166.2420959h-58.2703247c-2.6706848,0-5.1251221,2.1648102-5.4822388,4.8356934
 l-7.7909851,58.2703094c-0.3570557,2.6704865,1.5184326,4.8356781,4.1891479,4.8356781h58.2702942
 c2.6706848,0,5.1251831-2.1651917,5.4822388-4.8356781l7.7909851-58.2703094
 C374.6010437,168.4069061,372.7254944,166.2420959,370.0548096,166.2420959z"></path><polygon fill="#f29c03" points="364.888 188.581 346.271 188.581 348.132 174.667 366.749 174.667"></polygon><polygon fill="#f29c03" points="345.009 202.639 309.377 202.639 310.026 197.786 345.658 197.786"></polygon><polygon fill="#f29c03" points="361.369 212.819 308.016 212.819 308.665 207.966 362.017 207.966"></polygon><polygon fill="#f29c03" points="350.256 222.999 306.655 222.999 307.303 218.146 350.905 218.146"></polygon><g><path fill="#30355c" d="M337.4679871,190.3840942l3.2278748-24.1418457h-28.911438
 c-2.6706848,0-5.1251526,2.1647949-5.4822388,4.8356781l-3.2278748,24.141861h28.911438
 C334.6566162,195.2197876,337.1109314,193.0545807,337.4679871,190.3840942z" opacity=".1"></path><path fill="#267340" d="M336.1691895,121.6211166h-58.2703247c-2.6706848,0-5.1251221,2.1648026-5.4822388,4.8356934
 l-7.7909851,58.2703018c-0.3570557,2.6704865,1.5184326,4.8356934,4.1891174,4.8356934h58.2703247
 c2.6706848,0,5.1251831-2.1652069,5.4822388-4.8356934l7.7909851-58.2703018
 C340.7154236,123.7859192,338.8398743,121.6211166,336.1691895,121.6211166z"></path><path fill="#58a65f" d="M331.3998413,121.6211166h-58.2703247c-2.6706848,0-5.1251221,2.1648026-5.4822388,4.8356934
 l-7.7909851,58.2703018c-0.3570557,2.6704865,1.5184631,4.8356934,4.1891479,4.8356934h58.2702942
 c2.6706848,0,5.1251831-2.1652069,5.4822388-4.8356934l7.7909851-58.2703018
 C335.9460754,123.7859192,334.0705261,121.6211166,331.3998413,121.6211166z"></path><path fill="#d4e3f6" d="M301.5369873,133.5523071l-1.0115967,18.0862579H318.61203
 C319.1707153,141.6498718,311.5258789,133.5523071,301.5369873,133.5523071z"></path><path fill="#fff" d="M301.0560303,173.5980225c-2.2259827,0.9260101-4.6402893,1.4367218-7.1461792,1.4367218
 c-9.9895935,0-17.6383057-8.0963593-17.0762939-18.0859528c0.5552063-9.9899445,9.1065674-18.0863037,19.0961609-18.0863037
 l-1.0098877,18.0863037h18.0861511C312.584198,164.4323425,307.6825562,170.8469238,301.0560303,173.5980225z"></path></g></g><g><circle cx="91.961" cy="197.786" r="41.709" fill="#aecbfa"></circle><polygon fill="#aecbfa" points="124.779 217.473 137.218 238.272 112.341 229.517"></polygon><path fill="#fff" d="M101.0198288 188.818222v-4.0580902h-3.1065826c-.1435699-.8890381-.3680191-1.750885-.6911011-2.5680389l2.6934052-1.5527344-2.0292587-3.5197601-2.6934128 1.5531921c-.5565186-.69133-1.1849365-1.3195343-1.8762665-1.8762665l1.5531845-2.6934204-3.5105515-2.0288239-1.5531769 2.6842041c-.816925-.3143158-1.6787796-.5475311-2.5675964-.6913147v-3.0975952h-4.0580826v3.0975952c-.8888168.1437836-1.7506714.3769989-2.5675888.6913147l-1.5534058-2.6842041-3.51931 2.0288239 1.5531769 2.6934204c-.6913223.5567322-1.3197403 1.1849365-1.8764877 1.8762665l-2.6934052-1.5531921-2.0288239 3.5197601 2.6842041 1.5527344c-.3141022.8171539-.5475388 1.6790009-.6911087 2.5680389h-3.097374v4.0580902h3.097374c.1435699.8885956.3770065 1.7504425.6911087 2.5675812l-2.6842041 1.5531769 2.0288239 3.5105591 2.6934052-1.5531769c.5567474.6913147 1.1851654 1.319519 1.8764877 1.8762665l-1.5531769 2.6934052 3.51931 2.0288239 1.5534058-2.6934204c.8169174.3235321 1.678772.5479889 2.5675888.6917725v3.1063538h4.0580826v-3.1063538c.8888168-.1437836 1.7506714-.3682404 2.5675964-.6825562l1.5531769 2.6842041 3.5105515-2.0288239-1.5531845-2.6934052c.69133-.5567474 1.3197479-1.1849518 1.8762665-1.8762665l2.6934128 1.5531769 2.0292587-3.5105591-2.684639-1.5531769c.3143158-.8171387.538765-1.6789856.6823349-2.5675812H101.0198288zM85.2110443 195.0221252c-4.5486984 0-8.2438049-3.6829071-8.2438049-8.2315979 0-4.5487061 3.6951065-8.243515 8.2438049-8.243515 4.5486908 0 8.2315903 3.694809 8.2315903 8.243515C93.4426346 191.3392181 89.7597351 195.0221252 85.2110443 195.0221252zM118.6433945 208.4286804v-2.6631012h-2.0386734c-.0942154-.5834198-.2415085-1.1490021-.4535294-1.685257l1.7675323-1.0189667-1.3316956-2.3098297-1.7675323 1.0192719c-.3652115-.4536743-.7776108-.8659363-1.2312851-1.2312927l1.0192642-1.7675323-2.303772-1.3314056-1.0192719 1.7615051c-.5360947-.2062836-1.1016846-.3593292-1.684967-.4536896v-2.0327759h-2.6630936v2.0327759c-.5832748.0943604-1.1488647.247406-1.6849594.4536896l-1.0194092-1.7615051-2.3095322 1.3314056 1.0192642 1.7675323c-.4536743.3653564-.8660736.7776184-1.2314301 1.2312927l-1.7675323-1.0192719-1.3314056 2.3098297 1.7614899 1.0189667c-.2061234.5362549-.359314 1.1018372-.4535294 1.685257h-2.0326385v2.6631012h2.0326385c.0942154.5831299.247406 1.1487122.4535294 1.684967l-1.7614899 1.0192566 1.3314056 2.303772 1.7675323-1.0192566c.3653564.4536743.7777557.865921 1.2314301 1.2312927l-1.0192642 1.7675171 2.3095322 1.3314056 1.0194092-1.7675323c.5360947.2123108 1.1016846.3596039 1.6849594.4539642v2.0385437h2.6630936v-2.0385437c.5832825-.0943604 1.1488724-.2416534 1.684967-.4479218l1.0192719 1.7614899 2.303772-1.3314056-1.0192642-1.7675171c.4536743-.3653717.8660736-.7776184 1.2312851-1.2312927l1.7675323 1.0192566 1.3316956-2.303772-1.7617798-1.0192566c.2062683-.5362549.3535614-1.1018372.4477768-1.684967H118.6433945zM108.2689743 212.4999542c-2.9850464 0-5.4099426-2.4168854-5.4099426-5.401947 0-2.9850464 2.4248962-5.4097443 5.4099426-5.4097443 2.985054 0 5.4019394 2.4246979 5.4019394 5.4097443C113.6709137 210.0830688 111.2540283 212.4999542 108.2689743 212.4999542zM94.8071899 216.6550446v-2.0251007h-1.5502777c-.0716476-.4436646-.1836548-.8737488-.3448792-1.2815247l1.3440857-.7748718-1.0126572-1.7564697-1.3440933.7750854c-.2777252-.344986-.5913239-.6584778-.9363174-.9363098l.7750854-1.3440857-1.7518692-1.0124512-.7750854 1.3394928c-.4076691-.1568451-.8377609-.2732239-1.281311-.344986v-1.5457916h-2.0251083v1.5457916c-.4435425.0717621-.8736343.1881409-1.2813034.344986l-.7751923-1.3394928-1.7562485 1.0124512.7750854 1.3440857c-.3449936.277832-.6585922.5913239-.9364243.9363098l-1.3440933-.7750854-1.0124435 1.7564697 1.3395004.7748718c-.1567459.4077759-.2732391.8378601-.3448868 1.2815247h-1.5456848v2.0251007h1.5456848c.0716476.4434357.1881409.8735352.3448868 1.281311l-1.3395004.7750854 1.0124435 1.7518768 1.3440933-.7750854c.277832.344986.5914307.6584778.9364243.9363098l-.7750854 1.344101 1.7562485 1.0124359.7751923-1.3440857c.4076691.161438.8377609.2734528 1.2813034.3451996v1.5501709h2.0251083v-1.5501709c.4435501-.0717468.873642-.1837616 1.281311-.3406067l.7750854 1.3394928 1.7518692-1.0124359-.7750854-1.344101c.3449936-.277832.6585922-.5913239.9363174-.9363098l1.3440933.7750854 1.0126572-1.7518768-1.3397141-.7750854c.1568527-.4077759.2688599-.8378754.3405075-1.281311H94.8071899zM86.9181213 219.7509918c-2.2699356 0-4.1139069-1.8378906-4.1139069-4.1078186 0-2.2699432 1.8439713-4.1137695 4.1139069-4.1137695 2.2699432 0 4.1078186 1.8438263 4.1078186 4.1137695C91.0259399 217.9131012 89.1880646 219.7509918 86.9181213 219.7509918z"></path></g><g><path fill="#58a65f" d="M629.425354 576.2480469c1.947998-4.0146484 4.5600586-7.5109863 7.4500732-10.8323975 2.934082-3.265686 6.222229-6.2735596 9.8823853-8.9022827 3.687561-2.5827637 7.7377319-4.8916626 12.2325439-6.3092651 4.5183716-1.3092651 9.4620361-1.9172974 14.2628174-.913269 2.9071655.6082153 4.7709961 3.4578857 4.1627808 6.3650513-.4070435 1.9459839-1.8178711 3.423645-3.5777588 4.0062866l-.6571655.2150879c-4.6550903 1.3659668-8.3011475 2.1558838-10.2332153 2.9888916-3.3934326 1.1702881-6.9420166 2.2597046-10.5124512 3.7056274-7.1087646 2.9724731-14.2589111 6.7755127-21.7908325 10.7930298l-.0379028.0206909c-.420105.2236328-.9424438.0649414-1.1665039-.3549194C629.3062134 576.7792358 629.3114014 576.4867554 629.425354 576.2480469zM617.2008667 576.2480469c-1.947998-4.0146484-4.5600586-7.5109863-7.4500732-10.8323975-2.934082-3.265686-6.222229-6.2735596-9.8823853-8.9022827-3.687561-2.5827637-7.7377319-4.8916626-12.2325439-6.3092651-4.5183716-1.3092651-9.4620361-1.9172974-14.2628174-.913269-2.9071045.6082153-4.7709961 3.4578857-4.1627808 6.3650513.4070435 1.9459839 1.8179321 3.423645 3.5777588 4.0062866l.6571655.2151489c3.5061646 1.1519165 6.8043213 1.8771362 10.2332153 2.9885864 3.3933716 1.1705933 6.9420166 2.2599487 10.5124512 3.7058716 7.1087646 2.9724731 14.2589111 6.7755127 21.7908325 10.7930298l.0379028.0206909c.420105.2236328.9424438.0649414 1.1665039-.3549194C617.3200073 576.7792358 617.3148193 576.4867554 617.2008667 576.2480469z"></path><linearGradient id="SVGID_11_" x1="182.17" x2="162.864" y1="535.118" y2="555.145" gradientTransform="translate(471.05)" gradientUnits="userSpaceOnUse"><stop offset="0" stop-color="#fbbc04"></stop><stop offset="1" stop-color="#f29c03"></stop></linearGradient><path fill="url(#SVGID_11_)" d="M623.352417,580.5744019c0.0789185-7.2177124,1.4870605-14.135498,3.4224854-20.9891357
 c2.038269-6.8026123,4.772644-13.4724121,8.3128052-19.8442383
 c3.6119995-6.3236084,7.9435425-12.4967651,13.5407104-17.6729736
 c5.7064819-5.0339355,12.519043-9.3355713,20.2351685-11.1802673c4.6727905-1.1167297,9.366333,1.7657166,10.4830322,6.4385071
 c0.7476196,3.1277466-0.2964478,6.2631836-2.468811,8.3302002l-0.8129272,0.7684326
 c-4.3341675,4.1051025-8.6586304,7.4424438-12.9077148,11.4350586
 c-4.1563721,4.0545654-8.5959473,8.0974731-12.821228,12.677124
 c-8.3480225,9.2550659-16.1833496,19.7536011-24.4291382,30.8295898l-0.0411377,0.0563354
 c-0.4602051,0.6171265-1.3339233,0.7454834-1.9514771,0.2859497
 C623.5447998,581.4337158,623.3505249,581.0021973,623.352417,580.5744019z"></path><linearGradient id="SVGID_12_" x1="120.731" x2="135.887" y1="538.899" y2="559.829" gradientTransform="translate(471.05)" gradientUnits="userSpaceOnUse"><stop offset="0" stop-color="#fbbc04"></stop><stop offset="1" stop-color="#f29c03"></stop></linearGradient><path fill="url(#SVGID_12_)" d="M618.8816528,579.6235962c-0.0820923-7.5079346-1.546814-14.7039185-3.5601196-21.8331909
 c-2.1203003-7.0761719-4.9645996-14.0142212-8.6470947-20.642334
 c-3.7573242-6.5778809-8.2630005-12.9993286-14.0853271-18.383667
 c-5.9359131-5.2363892-13.0224609-9.7110596-21.0489502-11.6299133
 c-4.8606567-1.1616516-9.742981,1.836731-10.9046021,6.6974182c-0.77771,3.25354,0.3083496,6.5150757,2.5681152,8.6652222
 l0.8456421,0.7993164c4.5084839,4.2702026,9.0067749,7.7417603,13.4268188,11.8949585
 c4.3235474,4.2175903,8.9415894,8.4231567,13.336853,13.1869507
 c8.6837158,9.6272583,16.8341675,20.5479736,25.4115601,32.069397l0.0427246,0.0586548
 c0.4787598,0.6419067,1.3875732,0.7754517,2.0300293,0.2974243
 C618.6815186,580.5174561,618.883606,580.0686035,618.8816528,579.6235962z"></path><path fill="#58a65f" d="M621.43927,581.4994507c-5.0455933-9.388855-8.1586304-19.3378906-10.5440063-29.5800781
 c-2.2160645-10.2495728-3.4373779-20.8238525-3.4042969-31.5875854
 c0.1604614-10.7525635,1.3584595-21.823822,4.9041138-32.5085449
 c3.7883301-10.5788269,9.5291748-20.9996033,18.1906738-28.8879089
 c5.2454834-4.7765503,13.3700562-4.3968811,18.1466064,0.8486023
 c3.1973877,3.5110474,4.0835571,8.309845,2.7488403,12.5318604l-0.5031128,1.5733643
 c-2.6763916,8.3990784-5.8878174,15.7984314-8.5344238,23.9914246
 c-2.482605,8.2069397-5.3395386,16.6007385-7.5368042,25.5357361
 c-4.1934204,17.9206543-6.8370972,37.0835571-9.5996704,57.2858276l-0.0129395,0.1022339
 c-0.1550293,1.1260986-1.1931763,1.9152222-2.319458,1.7615356
 C622.3009033,582.4733276,621.7419434,582.0540161,621.43927,581.4994507z"></path><path fill="#d4e3f6" d="M663.9282837,574.8613892v12.7651978c0,1.2545776-1.0361328,2.2907104-2.2907104,2.2907104h-77.897644
 c-1.2545776,0-2.2907104-1.0361328-2.2907104-2.2907104v-12.7651978c0-1.2545166,1.0361328-2.2906494,2.2907104-2.2906494
 h77.897644C662.8921509,572.5707397,663.9282837,573.6068726,663.9282837,574.8613892z"></path><polygon fill="#d4e3f6" points="656.421 589.919 645.212 630.025 600.16 630.025 590.269 594.597 588.951 589.919"></polygon><path fill="#aecbfa" d="M656.4206543,589.9194946l-11.2088623,40.1053467h-5.5637207
 c2.5803833-11.7466431,4.461853-23.7084351,7.1768188-35.4282227h-56.5563354l-1.3170776-4.677124H656.4206543z"></path></g><g><path fill="#185abc" d="M627.3158569,297.7868347H490.5691223c-2.7969055,0-5.3673401,2.2671204-5.741333,5.0642395
 l-6.9078369,51.6651611c-0.3739319,2.7966919,1.59021,5.064209,4.3871155,5.064209H619.053833
 c2.796875,0,5.3673706-2.2675171,5.741333-5.064209l6.9078369-51.6651611
 C632.0769653,300.0539551,630.112793,297.7868347,627.3158569,297.7868347z"></path><path fill="#4285f4" d="M622.321167,297.7868347H485.5744019c-2.7969055,0-5.3673706,2.2671204-5.741333,5.0642395
 l-6.9078674,51.6651611c-0.3739319,2.7966919,1.59021,5.064209,4.3871155,5.064209H614.059082
 c2.796875,0,5.3673706-2.2675171,5.741333-5.064209l6.9078369-51.6651611
 C627.0822144,300.0539551,625.118042,297.7868347,622.321167,297.7868347z"></path><ellipse cx="509.216" cy="328.684" fill="#fff" rx="20.935" ry="18.794" transform="rotate(-43.456 509.216 328.684)"></ellipse><ellipse cx="510.298" cy="322.275" fill="#fbbc04" rx="6.429" ry="5.772" transform="rotate(-43.456 510.298 322.275)"></ellipse><path fill="#fbbc04" d="M509.2498779,328.3666382c-5.9569397,0-11.3072815,4.8291931-11.9501038,10.7859192h21.572052
 C519.5146484,333.1958313,515.2068481,328.3666382,509.2498779,328.3666382z"></path><g><polygon fill="#185abc" points="570.828 314.286 540.303 314.286 539.626 320.059 570.151 320.059"></polygon><polygon fill="#185abc" points="594.3 314.286 578.33 314.286 577.652 320.059 593.622 320.059"></polygon><polygon fill="#185abc" points="602.147 314.286 601.47 320.059 611.85 320.059 612.528 314.286"></polygon><polygon fill="#185abc" points="547.55 325.797 538.952 325.797 538.274 331.57 546.872 331.57"></polygon><polygon fill="#185abc" points="581.41 325.797 557.244 325.797 556.567 331.57 580.732 331.57"></polygon><polygon fill="#185abc" points="591.104 325.797 590.426 331.57 610.499 331.57 611.176 325.797"></polygon><polygon fill="#185abc" points="563.442 337.308 537.601 337.308 536.923 343.082 562.765 343.082"></polygon><polygon fill="#185abc" points="573.021 337.308 572.343 343.082 587.638 343.082 588.316 337.308"></polygon></g></g></g></svg>