<svg xmlns="http://www.w3.org/2000/svg" width="2000" height="2000" enable-background="new 0 0 2000 2000" viewBox="0 0 2000 2000"><path fill="#33B2F2" d="M842.8,1236.5v-90.7l-67.8-14.1c-5.2-19.2-12.8-37.5-22.5-54.4l38-57.9l-64.1-64.1
 l-57.9,38c-16.9-9.7-35.1-17.3-54.4-22.5l-14.1-67.8h-90.7l-14.1,67.8c-19.2,5.2-37.5,12.8-54.4,22.5l-57.9-38l-64.1,64.1
 l38,57.9c-9.7,16.9-17.3,35.1-22.5,54.4l-67.8,14.1v90.7l67.8,14.1c5.2,19.2,12.8,37.5,22.5,54.4l-38,57.9l64.1,64.1l57.9-38
 c16.9,9.7,35.1,17.3,54.4,22.5l14.1,67.8h90.7l14.1-67.8c19.2-5.2,37.5-12.8,54.4-22.5l57.9,38l64.1-64.1l-38-57.9
 c9.7-16.9,17.3-35.1,22.5-54.4L842.8,1236.5z M554.6,1349.4c-87.4,0-158.3-70.9-158.3-158.3s70.9-158.3,158.3-158.3
 s158.3,70.9,158.3,158.3S642,1349.4,554.6,1349.4z"></path><path fill="#33B2F2" d="M554.6,1064.4c-70,0-126.7,56.7-126.7,126.7c0,70,56.7,126.7,126.7,126.7
c70,0,126.7-56.7,126.7-126.7C681.3,1121.1,624.6,1064.4,554.6,1064.4z M554.6,1287.4c-53.2,0-96.3-43.1-96.3-96.3
s43.1-96.3,96.3-96.3c53.2,0,96.3,43.1,96.3,96.3S607.7,1287.4,554.6,1287.4z"></path><path fill="#424242" d="M1215.3,1805.1H710.6c-43.1,0-78.1-35-78.1-78.1V747.6c0-43.1,35-78.1,78.1-78.1h504.7
c43.1,0,78.1,35,78.1,78.1V1727C1293.4,1770.2,1258.5,1805.1,1215.3,1805.1z"></path><rect width="588.9" height="907.3" x="668.5" y="741.6" fill="#E1F5FE"></rect><path fill="#FFF" d="M1033.6,1743.6H892.4c-17.4,0-31.5-14.1-31.5-31.5v0c0-17.4,14.1-31.5,31.5-31.5h141.2
c17.4,0,31.5,14.1,31.5,31.5v0C1065.1,1729.4,1051,1743.6,1033.6,1743.6z"></path><ellipse cx="1329.5" cy="482.5" fill="#33B2F2" rx="29" ry="17.4"></ellipse><path fill="#33B2F2" d="M982.5,893.4c-77.1,0-139.7,62.5-139.7,139.7c0,77.1,62.5,139.7,139.7,139.7
s139.7-62.5,139.7-139.7C1122.1,955.9,1059.6,893.4,982.5,893.4z M982.5,1132.2c-54.8,0-99.2-44.4-99.2-99.2
c0-54.8,44.4-99.2,99.2-99.2c54.8,0,99.2,44.4,99.2,99.2C1081.7,1087.8,1037.3,1132.2,982.5,1132.2z"></path><path fill="#B8F1F4" d="M1012.5,1133.8c-9.5,2.8-19.6,4.4-30,4.4c-58,0-105.2-47.2-105.2-105.2
s47.2-105.2,105.2-105.2c58,0,105.2,47.2,105.2,105.2c0,27.5-10.7,52.5-28,71.2l14,26.3c26.1-24.4,42.4-59.1,42.4-97.5
c0-73.7-60-133.7-133.6-133.7s-133.7,60-133.7,133.7s60,133.7,133.7,133.7c15.3,0,29.9-2.6,43.6-7.3L1012.5,1133.8z"></path><path d="M965.4 1015.5c0 2-.5 3.7-1.5 5.3-1 1.5-2.3 2.7-4.1 3.7 2 1 3.5 2.3 4.7 3.9 1.2 1.7 1.7 3.6 1.7 5.9 0 3.6-1.2 6.5-3.7 8.6s-5.8 3.1-10 3.1c-4.2 0-7.6-1.1-10.1-3.2-2.5-2.1-3.7-5-3.7-8.6 0-2.3.6-4.2 1.7-5.9 1.2-1.7 2.7-3 4.7-3.9-1.7-.9-3.1-2.1-4.1-3.7-1-1.5-1.5-3.3-1.5-5.3 0-3.5 1.2-6.2 3.5-8.3s5.5-3.1 9.4-3.1c4 0 7.1 1 9.4 3.1C964.2 1009.3 965.4 1012 965.4 1015.5zM958.1 1033.7c0-1.8-.5-3.2-1.5-4.3-1-1.1-2.4-1.6-4.1-1.6-1.7 0-3.1.5-4.1 1.6-1 1.1-1.5 2.5-1.5 4.3 0 1.7.5 3.1 1.5 4.2 1 1.1 2.4 1.6 4.2 1.6 1.8 0 3.1-.5 4.1-1.5C957.6 1036.9 958.1 1035.5 958.1 1033.7zM957.3 1015.9c0-1.6-.4-2.9-1.3-3.8-.8-1-2-1.4-3.6-1.4-1.5 0-2.7.5-3.5 1.4-.8.9-1.3 2.2-1.3 3.9 0 1.6.4 2.9 1.3 3.9.8 1 2 1.5 3.6 1.5 1.5 0 2.7-.5 3.5-1.5C956.9 1018.9 957.3 1017.5 957.3 1015.9zM999.1 1028.6c0 5.6-1.2 9.9-3.5 12.9-2.3 3-5.7 4.5-10.2 4.5-4.4 0-7.8-1.5-10.2-4.4-2.3-2.9-3.6-7.1-3.6-12.6v-7.5c0-5.7 1.2-10 3.5-12.9 2.4-2.9 5.8-4.4 10.2-4.4s7.8 1.5 10.2 4.4c2.3 2.9 3.6 7.1 3.6 12.6V1028.6zM991 1020.4c0-3.4-.5-5.8-1.4-7.4-.9-1.5-2.4-2.3-4.3-2.3-1.9 0-3.3.7-4.2 2.2-.9 1.5-1.4 3.8-1.4 6.9v9.9c0 3.3.5 5.8 1.4 7.4.9 1.6 2.4 2.4 4.3 2.4 2 0 3.4-.8 4.3-2.3.9-1.5 1.3-3.9 1.4-7.1V1020.4zM1004.4 1012.5c0-2.5.8-4.5 2.4-6.1 1.6-1.6 3.7-2.3 6.4-2.3 2.7 0 4.8.8 6.4 2.3 1.6 1.5 2.4 3.6 2.4 6.2v2c0 2.5-.8 4.5-2.4 6.1-1.6 1.5-3.7 2.3-6.4 2.3-2.6 0-4.8-.8-6.4-2.3-1.6-1.5-2.4-3.6-2.4-6.2V1012.5zM1009.8 1014.7c0 1.1.3 2 1 2.7.6.7 1.5 1 2.5 1s1.9-.3 2.5-1c.6-.7.9-1.6.9-2.8v-2.1c0-1.1-.3-2-.9-2.7-.6-.7-1.5-1-2.5-1-1 0-1.9.3-2.5 1-.6.7-1 1.6-1 2.8V1014.7zM1014.9 1042.4l-3.9-2.1 19.9-31.8 3.9 2.1L1014.9 1042.4zM1023.9 1035.4c0-2.5.8-4.5 2.5-6.1 1.6-1.5 3.8-2.3 6.4-2.3 2.6 0 4.8.8 6.4 2.3 1.6 1.5 2.4 3.6 2.4 6.3v2c0 2.5-.8 4.5-2.4 6.1-1.6 1.5-3.7 2.3-6.4 2.3-2.7 0-4.8-.8-6.5-2.3-1.6-1.5-2.4-3.6-2.4-6.2V1035.4zM1029.3 1037.6c0 1 .3 1.9 1 2.6.7.7 1.5 1.1 2.5 1.1 2.3 0 3.4-1.3 3.4-3.8v-2.1c0-1.1-.3-2-1-2.7-.6-.7-1.5-1-2.5-1-1 0-1.9.3-2.5 1-.6.7-1 1.6-1 2.8V1037.6z"></path><path fill="#FBC02D" d="M1180.3,1262.4c0,6.9-2.8,13.2-7.3,17.7c-4.6,4.5-10.8,7.3-17.7,7.3H800.7
c-13.8,0-25.1-11.2-25.1-25c0-6.9,2.8-13.2,7.3-17.7c4.6-4.5,10.8-7.3,17.7-7.3h354.5C1169.1,1237.3,1180.3,1248.6,1180.3,1262.4
z"></path><path fill="#33B2F2" d="M1092.6,1243.3H800.7c-5.1,0-9.8,2-13.4,5.5c-3.6,3.7-5.6,8.5-5.6,13.5
c0,10.5,8.5,19,19,19h291.9V1243.3z"></path><g><path d="M916.4 1313.1v22c0 3-1 5.5-2.9 7.5-1.9 1.9-4.5 3-7.7 3.3l-1.1 0c-3.5 0-6.4-1-8.5-2.9-2.1-1.9-3.2-4.5-3.2-7.9v-22h4.2v21.9c0 2.3.6 4.2 1.9 5.4 1.3 1.3 3.1 1.9 5.5 1.9 2.4 0 4.3-.6 5.5-1.9 1.3-1.3 1.9-3.1 1.9-5.4v-21.9H916.4zM927.4 1332.8v12.6h-4.3v-32.3h11.9c3.5 0 6.3.9 8.3 2.7 2 1.8 3 4.2 3 7.2 0 3.1-1 5.6-2.9 7.2-2 1.7-4.8 2.5-8.4 2.5H927.4zM927.4 1329.3h7.7c2.3 0 4-.5 5.2-1.6 1.2-1.1 1.8-2.6 1.8-4.7 0-1.9-.6-3.5-1.8-4.6-1.2-1.2-2.9-1.8-5-1.8h-7.9V1329.3zM951.8 1345.4v-32.3h9.1c2.8 0 5.3.6 7.5 1.9 2.2 1.2 3.8 3 5 5.3 1.2 2.3 1.8 4.9 1.8 7.9v2.1c0 3-.6 5.7-1.8 8-1.2 2.3-2.9 4-5 5.3-2.2 1.2-4.7 1.9-7.6 1.9H951.8zM956.1 1316.6v25.3h4.5c3.3 0 5.8-1 7.7-3.1 1.8-2 2.7-5 2.7-8.7v-1.9c0-3.7-.9-6.5-2.6-8.6-1.7-2-4.2-3.1-7.3-3.1H956.1zM999 1337h-13.5l-3 8.4H978l12.3-32.3h3.7l12.4 32.3h-4.4L999 1337zM986.7 1333.5h11l-5.5-15.1L986.7 1333.5zM1030.3 1316.6h-10.4v28.8h-4.2v-28.8h-10.4v-3.5h25V1316.6zM1053.3 1330.5h-14v11.4h16.3v3.5H1035v-32.3h20.3v3.5h-16v10.4h14V1330.5zM1060.3 1343.3c0-.7.2-1.3.6-1.8.4-.5 1.1-.7 1.9-.7.8 0 1.5.2 1.9.7.4.5.7 1.1.7 1.8 0 .7-.2 1.2-.7 1.7-.4.5-1.1.7-1.9.7-.8 0-1.5-.2-1.9-.7C1060.5 1344.5 1060.3 1344 1060.3 1343.3zM1072.3 1343.3c0-.7.2-1.3.6-1.8.4-.5 1.1-.7 1.9-.7.8 0 1.5.2 1.9.7.4.5.7 1.1.7 1.8 0 .7-.2 1.2-.7 1.7-.4.5-1.1.7-1.9.7-.8 0-1.5-.2-1.9-.7C1072.5 1344.5 1072.3 1344 1072.3 1343.3z"></path></g><g><path fill="#BDBDBD" d="M1344.5,425.6L1344.5,425.6c-13.6,22-42.5,28.8-64.5,15.2l-111.2-68.9
 c-22-13.6-28.8-42.5-15.2-64.5h0c13.6-22,42.5-28.8,64.5-15.2l111.2,68.9C1351.4,374.7,1358.2,403.6,1344.5,425.6z"></path><path fill="#B2AFAF" d="M1284.8,430.8l-111.2-68.9c-19-11.7-26.6-34.8-19.7-55c-0.1,0.2-0.2,0.3-0.3,0.5h0
 c-13.6,22-6.8,50.9,15.2,64.5l111.2,68.9c22,13.6,50.9,6.8,64.5-15.2v0c1.9-3.1,3.4-6.2,4.5-9.5
 C1335.3,437.7,1306.7,444.3,1284.8,430.8z"></path><path fill="#CECECE" d="M1247.6 324l-36.3-21.6c-1.7-1-2.3-3.2-1.3-4.9l0 0c1-1.7 3.2-2.3 4.9-1.3l36.3 21.6c1.7 1 2.3 3.2 1.3 4.9l0 0C1251.5 324.5 1249.3 325.1 1247.6 324zM1259.4 330.9l-1.8-1.1c-1.7-1-2.3-3.2-1.3-4.9l0 0c1-1.7 3.2-2.3 4.9-1.3l1.8 1.1c1.7 1 2.3 3.2 1.3 4.9v0C1263.3 331.4 1261.1 331.9 1259.4 330.9z"></path><circle cx="1306.8" cy="403.1" r="51.8" fill="#9D9EA3"></circle><path fill="#FFAB91" d="M1314.9,573.2l-41.6-157.5c-6-22.7,7.5-45.9,30.2-51.9v0c22.7-6,45.9,7.5,51.9,30.2
l41.6,157.5c6,22.7-7.5,45.9-30.2,51.9h0C1344.1,609.4,1320.9,595.9,1314.9,573.2z"></path><rect width="88.1" height="51.3" x="1338.7" y="951.1" fill="#FFAB91"></rect><path fill="#4F4F4F" d="M1448.9,1013.6h-119.3v-19.2c0-6.2,5-11.2,11.2-11.2h108V1013.6z"></path><path fill="#424242" d="M1466.9,1005.9c0-0.1,0-0.2-0.1-0.2c-4.5-17.9-20.7-31.2-40-31.2
 c-19.2,0-35.3,13.1-39.9,30.8c0,0.1,0,0.2-0.1,0.2h-50c-7.6,0-13.8,6.2-13.8,13.8v0c0,7.6,6.2,13.8,13.8,13.8h126.6
 c0.3,0,0.6,0,0.9,0c7.2-0.4,12.9-6.4,12.9-13.8v0C1477.3,1012.8,1472.9,1007.4,1466.9,1005.9z"></path><path fill="#4F4F4F" d="M1466.9,1005.9c0-0.1,0-0.2-0.1-0.2c-4.5-17.9-20.7-31.2-40-31.2
c-3.6,0-7.1,0.5-10.5,1.3c14.5,3.8,25.9,15.3,29.5,29.8c0,0.1,0,0.2,0.1,0.2c6,1.5,10.4,6.9,10.4,13.4v0
c0,7.3-5.7,13.3-12.9,13.8c-0.3,0-0.6,0-0.9,0h21c0.3,0,0.6,0,0.9,0c7.2-0.4,12.9-6.4,12.9-13.8v0
C1477.3,1012.8,1472.9,1007.4,1466.9,1005.9z"></path><path fill="#3F2724" d="M1385.5,684.1h-199.7c-57.6,0-104.4-46.7-104.4-104.4v0h304.1
c28.8,0,52.2,23.4,52.2,52.2v0C1437.7,660.7,1414.3,684.1,1385.5,684.1z"></path><path fill="#422A26" d="M1335.2,963.4V631.9c0-28.8,23.4-52.2,52.2-52.2h0c28.8,0,52.2,23.4,52.2,52.2v331.5
H1335.2z"></path><path fill="#333" d="M1140.7,185.5L1140.7,185.5c20.4,0,36.9-16.5,36.9-36.9V97.9h-36.9V185.5z"></path><path fill="#BDBDBD" d="M886.7,470.2L886.7,470.2c-20.7-15.6-24.8-45-9.2-65.6l78.8-104.4
c15.6-20.7,45-24.8,65.6-9.2l0,0c20.7,15.6,24.8,45,9.2,65.6L952.3,461C936.7,481.6,907.3,485.8,886.7,470.2z"></path><path fill="#B2AEAD" d="M1035.9,308c1.7,11.9-1.2,24.5-9,34.9l-78.8,104.4c-15.6,20.7-45,24.8-65.6,9.2l0,0
c-6.2-4.6-10.8-10.5-14-17c1.7,11.8,7.9,23,18.2,30.8h0c20.7,15.6,50,11.5,65.6-9.2l78.8-104.4
C1042.1,342.1,1043.3,323.3,1035.9,308z"></path><path fill="#BDBDBD" d="M1182.2,355.8h-187c-20.5,0-37.2-16.6-37.2-37.2v0c0-20.5,16.6-37.2,37.2-37.2h187
c20.5,0,37.2,16.6,37.2,37.2v0C1219.4,339.2,1202.8,355.8,1182.2,355.8z"></path><path fill="#CECECE" d="M1219.4,546.1H997.3V355.8c0-48.6,39.4-88.1,88.1-88.1h45.9c48.6,0,88.1,39.4,88.1,88.1
V546.1z"></path><rect width="64.7" height="70.4" x="1076" y="211.1" fill="#FFAB91"></rect><path fill="#F4A28C" d="M1140.7,211.1v40.5c-2.9,0.6-6,0.9-9.1,0.9h-17.9c-14,0-27-4.4-37.7-11.9v-29.4H1140.7z
"></path><path fill="#FFAB91" d="M1119.6,243.3h-18c-36.1,0-65.3-29.2-65.3-65.3V87.5H1166v109.3
C1166,222.5,1145.2,243.3,1119.6,243.3z"></path><path fill="#BDBDBD" d="M1148.3,299.9h-83.5c-13.4,0-24.2-10.9-24.2-24.2v0c0-13.4,10.9-24.2,24.2-24.2h83.5
c13.4,0,24.2,10.9,24.2,24.2v0C1172.5,289.1,1161.7,299.9,1148.3,299.9z"></path><circle cx="1166" cy="363.1" r="23.8" fill="#BDBDBD"></circle><path fill="#4E342E" d="M1108.4,663.4L1108.4,663.4c-61.3,0-111-49.7-111-111v-6.2h222.1v6.2
C1219.4,613.7,1169.7,663.4,1108.4,663.4z"></path><rect width="88.1" height="51.3" x="1229.6" y="951.1" fill="#FFAB91"></rect><path fill="#4F4F4F" d="M1339.8,1013.6h-119.3v-19.2c0-6.2,5-11.2,11.2-11.2h108V1013.6z"></path><path fill="#424242" d="M1357.8,1005.9c0-0.1,0-0.2-0.1-0.2c-4.5-17.9-20.7-31.2-40-31.2
 c-19.2,0-35.3,13.1-39.9,30.8c0,0.1,0,0.2-0.1,0.2h-50c-7.6,0-13.8,6.2-13.8,13.8v0c0,7.6,6.2,13.8,13.8,13.8h126.6
 c0.3,0,0.6,0,0.9,0c7.2-0.4,12.9-6.4,12.9-13.8v0C1368.2,1012.8,1363.8,1007.4,1357.8,1005.9z"></path><path fill="#4F4F4F" d="M1357.8,1005.9c0-0.1,0-0.2-0.1-0.2c-4.5-17.9-20.7-31.2-40-31.2
c-3.6,0-7.1,0.5-10.5,1.3c14.5,3.8,25.9,15.3,29.5,29.8c0,0.1,0,0.2,0.1,0.2c6,1.5,10.4,6.9,10.4,13.4v0
c0,7.3-5.7,13.3-12.9,13.8c-0.3,0-0.6,0-0.9,0h21c0.3,0,0.6,0,0.9,0c7.2-0.4,12.9-6.4,12.9-13.8v0
C1368.2,1012.8,1363.8,1007.4,1357.8,1005.9z"></path><circle cx="912.6" cy="434.6" r="51.8" fill="#9D9EA3"></circle><circle cx="1060.2" cy="273.1" r="13.1" fill="#CECECE"></circle><path fill="#333" d="M1022.4,177.7h9.1c20.6,0,37.3-16.7,37.3-37.3V93.3H1045c-12.5,0-22.6,10.1-22.6,22.6
V177.7z"></path><circle cx="1038.8" cy="173.7" r="23.4" fill="#FFAB91"></circle><path fill="#ED947C" d="M1043.3,160.7c-9.5,0-17.2,7.7-17.2,17.2c0,1.4,0.2,2.8,0.5,4.1
c-1.6-2.4-2.6-5.2-2.6-8.3c0-8.2,6.6-14.8,14.8-14.8c2.8,0,5.4,0.8,7.6,2.1C1045.4,160.8,1044.4,160.7,1043.3,160.7z"></path><path fill="#333" d="M1053.2,131.5h108.4c16.9,0,30.6-13.7,30.6-30.6l0,0c0-16.9-13.7-30.6-30.6-30.6h-108.4
c-16.9,0-30.6,13.7-30.6,30.6l0,0C1022.6,117.8,1036.3,131.5,1053.2,131.5z"></path><path fill="#333" d="M1146.2,142.3c0-12.8-10.3-23.1-23.1-23.1c-2.1,0-4.1,0.3-6.1,0.8
c4.2-4.7,10.3-7.6,17.1-7.6c12.8,0,23.1,10.3,23.1,23.1c0,10.7-7.2,19.6-17,22.3C1143.9,153.7,1146.2,148.2,1146.2,142.3z"></path><path fill="#333" d="M1123.1 151.4c0-12.8-10.3-23.1-23.1-23.1-2.1 0-4.1.3-6.1.8 4.2-4.7 10.3-7.6 17.1-7.6 12.8 0 23.1 10.3 23.1 23.1 0 10.7-7.2 19.6-17 22.3C1120.8 162.8 1123.1 157.3 1123.1 151.4zM1085.2 118h81.8c15.8 0 28.7-12.8 28.7-28.7v-3.6c0-15.8-12.8-28.7-28.7-28.7h-81.8c-15.8 0-28.7 12.8-28.7 28.7v3.6C1056.5 105.2 1069.4 118 1085.2 118z"></path><path fill="#3A3A3A" d="M1188.1 89.3v-3.6c0-15.8-12.8-28.7-28.7-28.7h7.6c15.8 0 28.7 12.8 28.7 28.7v3.6c0 15.8-12.8 28.7-28.7 28.7h-7.6C1175.3 118 1188.1 105.2 1188.1 89.3zM1103.8 81.6h45.5c5.5 0 9.9-4.4 9.9-9.9l0 0c0-5.5-4.4-9.9-9.9-9.9h-45.5c-5.5 0-9.9 4.4-9.9 9.9l0 0C1093.9 77.2 1098.3 81.6 1103.8 81.6z"></path><circle cx="1036.4" cy="96.5" r="10.3" fill="#3A3A3A"></circle><path fill="#4E342E" d="M1262.4,684.1h-155.7c-58.6,0-106.1-47.5-106.1-106.1v-5.1c0-1.7,1.4-3.2,3.2-3.2h258.6
c30.2,0,54.6,24.5,54.6,54.6v5.1C1317.1,659.6,1292.6,684.1,1262.4,684.1z"></path><path fill="#4E342E" d="M1226.1,963.4V631.9c0-28.8,23.4-52.2,52.2-52.2l0,0c28.8,0,52.2,23.4,52.2,52.2v331.5
H1226.1z"></path><rect width="262.3" height="16.8" x="1040.6" y="562.9" fill="#058ACC"></rect><path fill="#2AB1F4" d="M1407.3,579.7h-245.8l41.5-186.6l230.2-5.1c8.6-0.2,15,7.7,13.2,16.1L1407.3,579.7z"></path><path fill="#0091EA" d="M1401.6,579.7h-232.1l42.8-192.1H1445c6.7,0,11.7,6.2,10.2,12.7l-36.9,166
C1416.5,574.1,1409.6,579.7,1401.6,579.7z"></path><polygon fill="#2AB1F4" points="1203 393.1 1212.2 387.6 1208.3 405.5 1200.3 405.5"></polygon><path fill="#FFAB91" d="M1016.4,571.4l-131.1-96.8c-18.9-13.9-22.9-40.5-8.9-59.3v0
c13.9-18.9,40.5-22.9,59.3-8.9l131.1,96.8c18.9,13.9,22.9,40.5,8.9,59.3h0C1061.8,581.3,1035.3,585.3,1016.4,571.4z"></path><circle cx="1050.1" cy="530.5" r="46.7" fill="#FFAB91"></circle><path fill="#FFAB91" d="M1084.8,524.9l-40.8-13.2c-7.5-2.4-11.6-10.5-9.2-18l0,0c2.4-7.5,10.5-11.6,18-9.2
l40.8,13.2c7.5,2.4,11.6,10.5,9.2,18l0,0C1100.3,523.3,1092.3,527.4,1084.8,524.9z"></path><path fill="#FFAB91" d="M1118.7,552.2l-33.4-26.9c-6.1-5-7.1-13.9-2.1-20.1l0,0c5-6.1,13.9-7.1,20.1-2.1
l33.4,26.9c6.1,5,7.1,13.9,2.1,20.1v0C1133.9,556.2,1124.9,557.2,1118.7,552.2z"></path><path fill="#604440" d="M1247.4 806.9L1247.4 806.9c-6.7 0-12.1-5.4-12.1-12.1v-71.2c0-6.7 5.4-12.1 12.1-12.1l0 0c6.7 0 12.1 5.4 12.1 12.1v71.2C1259.6 801.5 1254.1 806.9 1247.4 806.9zM1247.4 862.6L1247.4 862.6c-6.7 0-12.1-5.4-12.1-12.1v-17.2c0-6.7 5.4-12.1 12.1-12.1l0 0c6.7 0 12.1 5.4 12.1 12.1v17.2C1259.6 857.2 1254.1 862.6 1247.4 862.6z"></path></g><g><path fill="#9A9B9B" d="M612.2,1853.2c8.5-7,16.3-14.7,23.4-23h827v-236.3h-827c-7.1-8.4-14.9-16.1-23.4-23
c-31.5-25.8-71.8-41.3-115.6-41.3c-100.8,0-182.5,81.7-182.5,182.5c0,100.8,81.7,182.5,182.5,182.5
C540.5,1894.5,580.7,1879,612.2,1853.2z M378.4,1712c0-65.3,52.9-118.2,118.1-118.2c5.7,0,11.2,0.4,16.7,1.2
c56.6,8,100.3,56.1,101.4,114.7c0,0.8,0,1.5,0,2.3c0,0.8,0,1.5,0,2.3c-1.1,58.5-44.8,106.6-101.4,114.6c-5.5,0.8-11,1.2-16.7,1.2
C431.3,1830.2,378.4,1777.3,378.4,1712z"></path><path fill="#AAA" d="M780.3 1651.4h415.2c33.5 0 60.6 27.1 60.6 60.6v0c0 33.5-27.1 60.6-60.6 60.6H780.3c-33.5 0-60.6-27.1-60.6-60.6v0C719.7 1678.5 746.8 1651.4 780.3 1651.4zM1733.7 1820h-219.7l-52-108 52-108h219.7c-38.8-73.2-115.7-123-204.2-123-127.6 0-231 103.4-231 231 0 127.6 103.4 231 231 231C1618 1943 1695 1893.2 1733.7 1820z"></path></g></svg>