<svg width="140" height="122" viewBox="0 0 140 122" fill="none" xmlns="http://www.w3.org/2000/svg">
<path d="M76.0466 33.5948L68.9037 30.4389C68.6861 30.3431 68.4528 30.2939 68.2173 30.2939C67.9817 30.2939 67.7485 30.3431 67.5309 30.4389L60.3879 33.5948C59.722 33.8867 59.2867 34.5771 59.2867 35.3424C59.2867 43.173 63.5464 48.5854 67.5272 50.3448C67.9661 50.5381 68.4609 50.5381 68.8999 50.3448C72.0882 48.9365 77.1441 44.0724 77.1441 35.3424C77.1441 34.5771 76.7089 33.8867 76.0466 33.5948ZM68.2191 47.899L68.2154 32.8689L74.7594 35.7605C74.6366 41.7331 71.705 46.0607 68.2191 47.899Z" fill="#0057FF" fill-opacity="0.77"/>
<path d="M23.7147 48.8741H17.762C15.3788 48.8741 14.9937 45.4542 17.3173 44.9242L19.6951 44.3818C20.605 44.1743 21.2503 43.3651 21.2503 42.4319V32.4961C21.2503 31.5623 21.903 30.7527 22.8117 30.5379C43.7603 25.5871 54.2391 19.1085 67.8639 2.0364C68.6802 1.01347 70.2461 1.01329 71.0579 2.03985C86.1598 21.1366 97.2554 27.8973 117.706 30.6733C118.708 30.8093 119.466 31.6599 119.466 32.6709V42.4606C119.466 43.3806 120.094 44.182 120.987 44.4024L123.135 44.9324C125.428 45.4982 125.018 48.8741 122.656 48.8741H117.538C116.433 48.8741 115.538 47.9787 115.538 46.8741V37.6622C115.538 36.6761 114.816 35.8383 113.843 35.6768C94.9181 32.5351 83.4318 26.9934 71.1551 10.4215C70.3246 9.3004 68.6207 9.31049 67.8053 10.4426C56.8109 25.708 47.0739 31.2156 27.3013 35.6035C26.38 35.808 25.7147 36.6232 25.7147 37.5669V46.8741C25.7147 47.9787 24.8193 48.8741 23.7147 48.8741Z" fill="#0057FF" fill-opacity="0.77" stroke="#0057FF" stroke-opacity="0.77"/>
<path d="M34.4986 76.6699H24.4968C22.1039 76.6699 21.7305 80.1099 24.0677 80.6233L29.9237 81.9097C30.5346 82.0439 31.0508 82.4652 31.3167 83.0313C41.0547 103.756 50.1302 111.229 68.1307 120.786C68.7351 121.107 69.4745 121.094 70.0666 120.75C88.2579 110.211 96.9478 101.954 107.61 82.891C107.881 82.406 108.344 82.0467 108.883 81.9128L114.127 80.6109C116.418 80.0422 116.006 76.6699 113.645 76.6699H103.82C103.114 76.6699 102.456 77.0495 102.094 77.656C91.7725 94.9243 84.4785 102.795 70.1717 112.508C69.5268 112.946 68.6777 112.963 68.0152 112.553C52.8605 103.165 45.5383 95.3782 36.2808 77.7547C35.9333 77.0932 35.2458 76.6699 34.4986 76.6699Z" fill="#0057FF" fill-opacity="0.77" stroke="#0057FF" stroke-opacity="0.77"/>
<path d="M13.508 68.816L9.988 56.738L9.328 54.56V53.24H13.508L16.258 64.592H16.698L18.788 53.24H24.574L26.29 61.798L26.642 64.592H27.082L29.81 53.24H33.946V54.56L33.286 56.738L29.81 68.816H24.112L21.846 57.332H21.384L21.01 59.994L19.206 68.816H13.508ZM36.15 68.816L35.71 67.496L36.15 65.296V53.24H47.04L48.14 53.9L46.688 56.98L44.708 56.76H40.11V59.18H46.028V62.59H43.432L40.11 62.37V65.296H46.688L49.306 67.408L48.008 68.816H36.15ZM51.2964 68.816V56.782L50.8564 54.582L51.2964 53.262H54.8384L59.2824 59.246L60.3384 61.072H60.5584V53.262H64.7164V54.582L64.4964 56.782V68.816H61.0424L55.5204 61.072H55.3004V62.392L55.5204 68.816H51.2964ZM74.3744 69.036C73.4358 69.036 72.5191 68.926 71.6244 68.706C70.7444 68.4714 69.9451 68.0607 69.2264 67.474C68.5224 66.8874 67.9578 66.0734 67.5324 65.032C67.1218 63.9907 66.9164 62.656 66.9164 61.028C66.9164 59.4 67.1218 58.0653 67.5324 57.024C67.9578 55.9827 68.5224 55.1687 69.2264 54.582C69.9451 53.9953 70.7444 53.592 71.6244 53.372C72.5191 53.1373 73.4358 53.02 74.3744 53.02C75.3131 53.02 76.2224 53.1373 77.1024 53.372C77.9971 53.6067 78.7964 54.0173 79.5004 54.604C80.2191 55.1907 80.7838 56.0047 81.1944 57.046C81.6198 58.0874 81.8324 59.4147 81.8324 61.028C81.8324 62.6414 81.6198 63.9687 81.1944 65.01C80.7838 66.0514 80.2191 66.8654 79.5004 67.452C78.7964 68.0387 77.9971 68.4494 77.1024 68.684C76.2224 68.9187 75.3131 69.036 74.3744 69.036ZM74.3744 65.296C75.4598 65.296 76.2811 64.9734 76.8384 64.328C77.3958 63.6827 77.6744 62.5827 77.6744 61.028C77.6744 59.4734 77.3958 58.3734 76.8384 57.728C76.2811 57.0827 75.4598 56.76 74.3744 56.76C73.3038 56.76 72.4898 57.09 71.9324 57.75C71.3751 58.41 71.0964 59.5027 71.0964 61.028C71.0964 62.5534 71.3751 63.646 71.9324 64.306C72.4898 64.966 73.3038 65.296 74.3744 65.296ZM87.2475 68.816V56.76L82.8475 56.98V53.24H95.7175V56.98L91.2075 56.76V65.296L91.4495 67.496L91.2075 68.816H87.2475ZM97.6975 68.816V56.76L97.4775 54.56L97.6975 53.24H101.68V68.816H97.6975ZM104.75 68.816V56.804L104.31 54.56L104.75 53.24H115.64L116.74 53.9L115.288 56.98L113.308 56.76H108.49L108.71 59.18H114.628V62.59H111.966L108.71 62.37V65.318L108.952 67.518L108.71 68.816H104.75ZM122.764 68.816V62.216L117.308 54.56V53.24H121.928L124.568 58.212H125.008L127.626 53.24H132.246V54.56L126.636 62.348L126.768 64.57V68.816H122.764Z" fill="#0057FF" fill-opacity="0.77"/>
<path d="M45.689 77.23C45.653 76.906 45.587 76.648 45.491 76.456C45.401 76.264 45.299 76.12 45.185 76.024C45.041 75.898 44.876 75.808 44.69 75.754C44.51 75.694 44.282 75.664 44.006 75.664C43.622 75.664 43.331 75.772 43.133 75.988C42.935 76.198 42.836 76.447 42.836 76.735C42.836 76.921 42.929 77.098 43.115 77.266C43.307 77.428 43.559 77.56 43.871 77.662L44.951 78.013C45.509 78.193 45.941 78.433 46.247 78.733C46.559 79.033 46.715 79.453 46.715 79.993C46.715 80.677 46.49 81.211 46.04 81.595C45.596 81.973 44.96 82.162 44.132 82.162C43.43 82.162 42.845 81.997 42.377 81.667C41.915 81.337 41.594 80.899 41.414 80.353L42.08 79.912C42.254 80.314 42.518 80.635 42.872 80.875C43.232 81.109 43.652 81.226 44.132 81.226C44.54 81.226 44.87 81.121 45.122 80.911C45.374 80.695 45.5 80.434 45.5 80.128C45.5 79.876 45.395 79.66 45.185 79.48C44.975 79.3 44.684 79.144 44.312 79.012L43.295 78.661C42.743 78.469 42.338 78.235 42.08 77.959C41.822 77.683 41.693 77.296 41.693 76.798C41.693 76.432 41.786 76.099 41.972 75.799C42.158 75.499 42.428 75.259 42.782 75.079C43.142 74.899 43.571 74.809 44.069 74.809C44.633 74.809 45.134 74.902 45.572 75.088C46.01 75.274 46.331 75.505 46.535 75.781L46.283 77.23H45.689ZM50.9022 82.162C50.2542 82.162 49.6932 82.006 49.2192 81.694C48.7452 81.382 48.3792 80.95 48.1212 80.398C47.8692 79.84 47.7432 79.198 47.7432 78.472C47.7432 77.758 47.8692 77.128 48.1212 76.582C48.3792 76.03 48.7452 75.598 49.2192 75.286C49.6932 74.968 50.2542 74.809 50.9022 74.809C51.5502 74.809 52.1082 74.968 52.5762 75.286C53.0502 75.598 53.4132 76.03 53.6652 76.582C53.9172 77.134 54.0432 77.764 54.0432 78.472C54.0432 79.198 53.9172 79.84 53.6652 80.398C53.4132 80.95 53.0502 81.382 52.5762 81.694C52.1082 82.006 51.5502 82.162 50.9022 82.162ZM51.1272 81.145C51.4632 81.115 51.7572 80.998 52.0092 80.794C52.2672 80.59 52.4682 80.311 52.6122 79.957C52.7562 79.597 52.8282 79.18 52.8282 78.706C52.8282 78.64 52.8252 78.574 52.8192 78.508C52.8192 78.442 52.8162 78.376 52.8102 78.31C52.7682 77.788 52.6542 77.341 52.4682 76.969C52.2882 76.597 52.0572 76.315 51.7752 76.123C51.4932 75.925 51.1812 75.826 50.8392 75.826C50.8152 75.826 50.7882 75.826 50.7582 75.826C50.7342 75.826 50.7072 75.829 50.6772 75.835C50.3472 75.859 50.0532 75.973 49.7952 76.177C49.5372 76.381 49.3332 76.66 49.1832 77.014C49.0332 77.362 48.9582 77.773 48.9582 78.247C48.9582 78.307 48.9582 78.37 48.9582 78.436C48.9642 78.502 48.9702 78.568 48.9762 78.634C49.0182 79.162 49.1322 79.615 49.3182 79.993C49.5042 80.365 49.7412 80.653 50.0292 80.857C50.3172 81.055 50.6352 81.154 50.9832 81.154C51.0072 81.154 51.0312 81.154 51.0552 81.154C51.0792 81.148 51.1032 81.145 51.1272 81.145ZM55.3366 82V74.8L56.7316 74.98L56.4616 81.019L59.8456 80.749V82H55.3366ZM65.1744 74.8L66.5064 74.98L66.3264 79.642C66.3084 80.116 66.1914 80.545 65.9754 80.929C65.7594 81.307 65.4504 81.607 65.0484 81.829C64.6464 82.051 64.1574 82.162 63.5814 82.162C63.0654 82.162 62.6184 82.057 62.2404 81.847C61.8624 81.637 61.5684 81.343 61.3584 80.965C61.1484 80.587 61.0344 80.146 61.0164 79.642L60.8364 74.8L62.2044 74.98V79.435C62.2044 79.945 62.3424 80.356 62.6184 80.668C62.8944 80.974 63.2454 81.127 63.6714 81.127C64.0974 81.127 64.4544 80.986 64.7424 80.704C65.0304 80.422 65.1744 79.999 65.1744 79.435V74.8ZM69.4494 82.117V76.033H67.5054L67.2354 75.232L72.6984 74.89V76.033H70.8084L70.6284 82L69.4494 82.117ZM73.6886 82.117V74.8L75.0746 74.98L74.8046 82L73.6886 82.117ZM79.5457 82.162C78.8977 82.162 78.3367 82.006 77.8627 81.694C77.3887 81.382 77.0227 80.95 76.7647 80.398C76.5127 79.84 76.3867 79.198 76.3867 78.472C76.3867 77.758 76.5127 77.128 76.7647 76.582C77.0227 76.03 77.3887 75.598 77.8627 75.286C78.3367 74.968 78.8977 74.809 79.5457 74.809C80.1937 74.809 80.7517 74.968 81.2197 75.286C81.6937 75.598 82.0567 76.03 82.3087 76.582C82.5607 77.134 82.6867 77.764 82.6867 78.472C82.6867 79.198 82.5607 79.84 82.3087 80.398C82.0567 80.95 81.6937 81.382 81.2197 81.694C80.7517 82.006 80.1937 82.162 79.5457 82.162ZM79.7707 81.145C80.1067 81.115 80.4007 80.998 80.6527 80.794C80.9107 80.59 81.1117 80.311 81.2557 79.957C81.3997 79.597 81.4717 79.18 81.4717 78.706C81.4717 78.64 81.4687 78.574 81.4627 78.508C81.4627 78.442 81.4597 78.376 81.4537 78.31C81.4117 77.788 81.2977 77.341 81.1117 76.969C80.9317 76.597 80.7007 76.315 80.4187 76.123C80.1367 75.925 79.8247 75.826 79.4827 75.826C79.4587 75.826 79.4317 75.826 79.4017 75.826C79.3777 75.826 79.3507 75.829 79.3207 75.835C78.9907 75.859 78.6967 75.973 78.4387 76.177C78.1807 76.381 77.9767 76.66 77.8267 77.014C77.6767 77.362 77.6017 77.773 77.6017 78.247C77.6017 78.307 77.6017 78.37 77.6017 78.436C77.6077 78.502 77.6137 78.568 77.6197 78.634C77.6617 79.162 77.7757 79.615 77.9617 79.993C78.1477 80.365 78.3847 80.653 78.6727 80.857C78.9607 81.055 79.2787 81.154 79.6267 81.154C79.6507 81.154 79.6747 81.154 79.6987 81.154C79.7227 81.148 79.7467 81.145 79.7707 81.145ZM88.3901 82.117L85.1411 77.203L85.2491 82L84.2321 82.117L83.9711 75.727L83.6561 75.268L85.1051 74.8L88.2371 80.11L88.1831 74.8L89.4341 74.98L89.1911 82L88.3901 82.117ZM94.9517 77.23C94.9157 76.906 94.8497 76.648 94.7537 76.456C94.6637 76.264 94.5617 76.12 94.4477 76.024C94.3037 75.898 94.1387 75.808 93.9527 75.754C93.7727 75.694 93.5447 75.664 93.2687 75.664C92.8847 75.664 92.5937 75.772 92.3957 75.988C92.1977 76.198 92.0987 76.447 92.0987 76.735C92.0987 76.921 92.1917 77.098 92.3777 77.266C92.5697 77.428 92.8217 77.56 93.1337 77.662L94.2137 78.013C94.7717 78.193 95.2037 78.433 95.5097 78.733C95.8217 79.033 95.9777 79.453 95.9777 79.993C95.9777 80.677 95.7527 81.211 95.3027 81.595C94.8587 81.973 94.2227 82.162 93.3947 82.162C92.6927 82.162 92.1077 81.997 91.6397 81.667C91.1777 81.337 90.8567 80.899 90.6767 80.353L91.3427 79.912C91.5167 80.314 91.7807 80.635 92.1347 80.875C92.4947 81.109 92.9147 81.226 93.3947 81.226C93.8027 81.226 94.1327 81.121 94.3847 80.911C94.6367 80.695 94.7627 80.434 94.7627 80.128C94.7627 79.876 94.6577 79.66 94.4477 79.48C94.2377 79.3 93.9467 79.144 93.5747 79.012L92.5577 78.661C92.0057 78.469 91.6007 78.235 91.3427 77.959C91.0847 77.683 90.9557 77.296 90.9557 76.798C90.9557 76.432 91.0487 76.099 91.2347 75.799C91.4207 75.499 91.6907 75.259 92.0447 75.079C92.4047 74.899 92.8337 74.809 93.3317 74.809C93.8957 74.809 94.3967 74.902 94.8347 75.088C95.2727 75.274 95.5937 75.505 95.7977 75.781L95.5457 77.23H94.9517Z" fill="#0057FF" fill-opacity="0.77"/>
<line x1="83.2157" y1="41.1232" x2="104.645" y2="41.1232" stroke="#0057FF" stroke-opacity="0.77" stroke-width="5"/>
<line x1="32.8577" y1="41.1232" x2="54.2866" y2="41.1232" stroke="#0057FF" stroke-opacity="0.77" stroke-width="5"/>
</svg>
