<?xml version="1.0" standalone="no"?>
<!DOCTYPE svg PUBLIC "-//W3C//DTD SVG 20010904//EN"
 "http://www.w3.org/TR/2001/REC-SVG-20010904/DTD/svg10.dtd">
<svg version="1.0" xmlns="http://www.w3.org/2000/svg"
 width="595.000000pt" height="595.000000pt" viewBox="0 0 595.000000 595.000000"
 preserveAspectRatio="xMidYMid meet">
<metadata>
Created by potrace 1.14, written by Peter Selinger 2001-2017
</metadata>
<g transform="translate(0.000000,595.000000) scale(0.100000,-0.100000)"
fill="#000000" stroke="none">
<path d="M2705 5859 c-166 -18 -217 -26 -360 -54 -304 -60 -651 -197 -935
-368 -108 -65 -283 -187 -340 -237 -14 -12 -47 -40 -74 -63 -28 -23 -93 -85
-146 -137 -253 -249 -451 -535 -602 -865 -90 -197 -177 -481 -204 -660 -3 -22
-9 -60 -14 -85 -24 -130 -35 -554 -16 -695 17 -135 27 -200 42 -273 9 -42 17
-84 19 -92 6 -27 55 -200 71 -248 58 -173 154 -378 256 -553 48 -81 209 -314
227 -329 3 -3 31 -34 61 -70 66 -78 222 -234 307 -309 155 -134 429 -320 593
-400 362 -179 720 -282 1100 -318 158 -16 578 -8 682 12 13 3 41 7 63 10 128
15 381 77 533 130 612 214 1121 600 1484 1125 67 96 195 318 228 394 10 22 29
66 43 96 53 117 119 320 156 485 49 215 65 367 66 615 0 216 -8 331 -30 450
-3 14 -8 43 -11 65 -8 58 -39 186 -69 290 -127 441 -375 860 -703 1192 -123
124 -165 163 -247 228 -27 22 -52 42 -55 45 -7 8 -136 99 -185 131 -159 105
-360 212 -505 268 -47 19 -98 40 -115 47 -69 29 -352 109 -423 120 -21 3 -68
12 -107 19 -38 8 -95 17 -125 20 -30 4 -68 9 -85 11 -54 9 -508 11 -580 3z
m560 -201 c6 -3 42 -9 80 -13 142 -14 361 -64 535 -122 809 -270 1451 -896
1725 -1685 29 -84 76 -251 90 -319 3 -16 30 -181 41 -254 10 -68 12 -456 3
-535 -7 -60 -29 -218 -34 -240 -1 -3 -7 -32 -14 -65 -23 -107 -87 -320 -121
-400 -67 -158 -126 -278 -189 -383 -66 -109 -172 -266 -191 -282 -3 -3 -13
-15 -22 -28 -8 -12 -44 -55 -79 -94 -412 -463 -949 -771 -1555 -892 -71 -14
-158 -28 -194 -32 -36 -3 -87 -10 -115 -14 -53 -8 -499 -5 -550 4 -16 3 -65
10 -108 16 -103 15 -127 19 -157 26 -14 3 -36 8 -50 10 -253 46 -637 204 -895
367 -441 280 -805 688 -1010 1132 -20 44 -43 94 -51 110 -86 188 -169 523
-193 780 -11 116 -6 458 8 555 6 41 13 89 15 105 7 46 25 132 47 220 129 512
431 1000 836 1351 37 33 76 67 87 76 36 32 241 175 316 219 348 208 787 352
1170 385 41 3 77 8 79 10 6 6 486 -2 496 -8z"/>
<path d="M1924 4287 c-43 -67 -146 -230 -229 -362 -83 -132 -272 -429 -420
-660 -147 -231 -300 -469 -338 -530 -124 -195 -147 -230 -157 -245 -5 -8 -34
-53 -64 -100 l-54 -84 28 -21 c16 -11 55 -36 87 -56 84 -53 333 -212 363 -232
l26 -17 44 68 c25 37 50 76 56 87 10 18 464 730 548 860 61 93 123 190 196
305 146 232 173 271 185 266 6 -2 187 -116 401 -253 214 -137 407 -260 429
-273 22 -13 45 -29 52 -35 6 -5 111 -73 233 -150 122 -77 233 -148 248 -157
15 -10 38 -24 52 -32 14 -8 59 -36 100 -64 l74 -49 99 156 c55 86 124 194 155
241 30 46 57 91 59 100 4 15 -139 108 -934 612 -137 86 -253 161 -259 165 -5
4 -17 13 -26 18 -49 30 -214 136 -286 184 -310 207 -446 295 -552 358 l-38 22
-78 -122z"/>
<path d="M863 4062 c-67 -24 -118 -64 -154 -121 -39 -60 -52 -113 -46 -181 9
-111 69 -200 165 -247 76 -37 194 -40 259 -5 63 33 106 74 138 134 26 47 30
63 29 138 0 69 -4 93 -23 128 -72 137 -228 203 -368 154z"/>
<path d="M4733 3818 c-44 -68 -118 -181 -164 -253 -46 -71 -129 -198 -184
-282 -55 -84 -131 -201 -170 -260 -99 -154 -223 -345 -235 -363 -6 -8 -52 -79
-103 -158 l-93 -143 -27 21 c-14 11 -36 26 -49 33 -13 7 -75 47 -138 88 -63
42 -173 114 -245 160 -71 47 -219 143 -328 215 -109 71 -205 134 -215 139 -25
15 -253 164 -478 311 -45 30 -89 56 -97 60 -11 4 -39 -32 -104 -131 -48 -74
-121 -185 -160 -246 -40 -60 -73 -111 -73 -113 0 -2 44 -32 98 -67 145 -94
396 -258 579 -378 89 -58 226 -146 303 -196 78 -49 147 -95 153 -100 7 -6 37
-26 67 -45 86 -54 392 -257 420 -279 23 -18 210 -141 390 -256 39 -25 74 -45
78 -45 4 0 34 43 67 96 33 53 65 101 70 107 6 7 55 82 109 167 186 290 341
529 626 965 36 54 67 104 70 110 3 5 57 89 120 185 64 96 142 217 175 268 33
51 75 115 92 142 l33 50 -90 60 c-49 33 -94 60 -100 60 -5 0 -10 5 -10 10 0 6
-4 10 -8 10 -5 0 -70 41 -145 90 -75 50 -141 90 -146 90 -4 0 -44 -55 -88
-122z"/>
<path d="M4890 2451 c-132 -43 -218 -158 -218 -291 0 -274 347 -403 524 -196
130 152 77 388 -105 469 -49 22 -160 32 -201 18z"/>
</g>
</svg>
