<svg xmlns="http://www.w3.org/2000/svg" xmlns:xlink="http://www.w3.org/1999/xlink">
    <path d="M18 2.87a8.75 8.75 0 0 0-3.3 6.87 8.76 8.76 0 0 0 3.3 6.87 8.75 8.75 0 0 0 3.3-6.87A8.75 8.75 0 0 0 18 2.87zM23.35 1a8.55 8.55 0 0 0-4.8 1.46l.22.18a9.46 9.46 0 0 1 3.2 7.1 9.46 9.46 0 0 1-3.2 7.1l-.21.18a8.55 8.55 0 0 0 4.79 1.46c4.78 0 8.65-3.91 8.65-8.74S28.13 1 23.35 1zm-6.12 15.84.21.18a8.55 8.55 0 0 1-4.79 1.46C7.87 18.48 4 14.57 4 9.74S7.87 1 12.65 1a8.55 8.55 0 0 1 4.8 1.46l-.22.18a9.46 9.46 0 0 0-3.2 7.1 9.46 9.46 0 0 0 3.2 7.1zm14.5-1.68v-.34h-.09l-.1.23-.1-.23h-.09v.34h.06v-.26l.1.22h.06l.1-.22v.26h.06zm-.56 0v-.28h.12v-.06H31v.05h.11v.29h.06zm.27 7.54v.06h.06a.05.05 0 0 0 .02 0l.01-.03v-.02a.05.05 0 0 0-.03 0h-.06zm.06-.04a.1.1 0 0 1 .06.02.06.06 0 0 1 .02.05.06.06 0 0 1-.02.04.08.08 0 0 1-.05.02l.07.09h-.05l-.07-.08h-.02v.08h-.04v-.22h.1zm-.02.29a.17.17 0 0 0 .13-.05.17.17 0 0 0 .05-.13.18.18 0 0 0-.1-.17.18.18 0 0 0-.25.17.18.18 0 0 0 .1.17h.07zm0-.41a.23.23 0 0 1 .17.07.23.23 0 0 1 .07.16.22.22 0 0 1-.07.16.23.23 0 0 1-.17.07.23.23 0 0 1-.23-.23.23.23 0 0 1 .07-.16.23.23 0 0 1 .16-.07zm-21.43-.82c0-.41.27-.75.7-.75.41 0 .69.32.69.75 0 .42-.28.74-.7.74-.43 0-.69-.34-.69-.75zm1.86 0v-1.16h-.5v.28a.87.87 0 0 0-.72-.34c-.65 0-1.15.5-1.15 1.21s.5 1.22 1.15 1.22c.32 0 .56-.13.72-.34v.29h.5v-1.16zm16.88 0c0-.41.26-.75.7-.75.41 0 .69.32.69.75 0 .42-.28.74-.7.74-.43 0-.69-.34-.69-.75zm1.86 0v-2.1h-.5v1.22a.87.87 0 0 0-.73-.34c-.64 0-1.14.5-1.14 1.21s.5 1.22 1.14 1.22c.33 0 .57-.13.73-.34v.29h.5v-1.16zm-12.54-.77c.32 0 .53.2.58.56H17.5c.05-.33.26-.56.61-.56zm.01-.45c-.67 0-1.14.5-1.14 1.21 0 .74.49 1.22 1.17 1.22.35 0 .67-.08.95-.32l-.25-.38a1.09 1.09 0 0 1-.67.25c-.32 0-.61-.15-.68-.57h1.7l.01-.2c0-.72-.45-1.21-1.09-1.21zm6.03 1.21c0-.4.27-.74.7-.74.41 0 .7.32.7.75 0 .42-.29.74-.7.74-.43 0-.7-.34-.7-.75zm1.86 0v-1.16h-.5v.29a.87.87 0 0 0-.72-.34c-.65 0-1.15.5-1.15 1.21s.5 1.22 1.15 1.22c.32 0 .56-.13.72-.34v.29h.5v-1.16zm-4.68 0c0 .7.49 1.22 1.23 1.22.34 0 .57-.07.82-.27l-.24-.41a1 1 0 0 1-.6.2c-.4 0-.69-.29-.69-.74 0-.44.3-.73.7-.74a1 1 0 0 1 .6.21l.23-.4c-.25-.2-.48-.28-.82-.28-.74 0-1.23.51-1.23 1.21zm6.44-1.21a.68.68 0 0 0-.6.34v-.29h-.5v2.32h.5v-1.3c0-.38.16-.6.49-.6.1 0 .2.02.31.07l.16-.48a1.06 1.06 0 0 0-.36-.06zm-13.39.24a1.7 1.7 0 0 0-.94-.24c-.58 0-.95.28-.95.74 0 .38.28.61.79.68l.24.04c.27.04.4.1.4.24 0 .18-.18.28-.53.28-.34 0-.6-.11-.76-.24l-.23.4c.27.2.62.3 1 .3.65 0 1.04-.32 1.04-.76 0-.41-.3-.63-.8-.7l-.24-.03c-.22-.03-.39-.08-.39-.23 0-.17.16-.27.44-.27.3 0 .57.1.71.2l.22-.41zm6.45-.24a.68.68 0 0 0-.61.34v-.29h-.5v2.32h.5v-1.3c0-.38.17-.6.5-.6.1 0 .2.02.3.07l.16-.48a1.06 1.06 0 0 0-.35-.06zm-4.27.05h-.81v-.7h-.5v.7h-.48v.47h.47v1.05c0 .54.2.86.8.86.21 0 .46-.07.62-.18l-.14-.43a.92.92 0 0 1-.44.13c-.25 0-.33-.15-.33-.39v-1.04h.81v-.47zM9.1 22.87v-1.45c0-.55-.34-.92-.9-.92-.3 0-.6.08-.8.41a.84.84 0 0 0-.77-.41.76.76 0 0 0-.67.34v-.29h-.5v2.33h.5v-1.3c0-.4.23-.6.57-.6.33 0 .5.21.5.6v1.3h.5v-1.3c0-.4.23-.6.56-.6.35 0 .5.21.5.6v1.3h.51z" />
</svg>