<svg xmlns="http://www.w3.org/2000/svg" xmlns:xlink="http://www.w3.org/1999/xlink">
    <path xmlns="http://www.w3.org/2000/svg" d="M21.7 13.13c.78-.14 1.17.93.48 1.33l-12.36 7.3a.67.67 0 0 1-.63.02L3 18.84H1v-7.37h5l3 2.83 2.17 2.2a1.07 1.07 0 0 1 0 1.5 1.03 1.03 0 0 1-1.48 0l-2.84-2.88-.7.7 2.84 2.88a2 2 0 0 0 1.44.6 2.01 2.01 0 0 0 1.44-.6 2.08 2.08 0 0 0 0-2.92l-.83-.83 10.67-1.82zM17 8.32v2.1H8.28L8 10.06V8.32h9zm-4 5.26h-3l-1-2.1h8v1.05l-4 1.05zm-6-9.5V2h9v2.08H7zm2 3.18v-2.1h9v2.1H9z"/>
</svg>