<svg width="250" height="231" viewBox="0 0 250 231" fill="none" xmlns="http://www.w3.org/2000/svg">
<mask id="path-1-inside-1_6_9" fill="white">
<path d="M28.2808 145.768C33.9804 165.31 45.1714 182.617 60.4388 195.499C75.7062 208.382 94.3641 216.262 114.053 218.142C133.742 220.023 153.578 215.82 171.053 206.065C188.527 196.31 202.855 181.441 212.225 163.338L196.6 154.792C188.892 169.685 177.104 181.918 162.728 189.944C148.351 197.969 132.032 201.427 115.834 199.88C99.6353 198.332 84.2853 191.85 71.7247 181.251C59.1642 170.653 49.9572 156.414 45.2681 140.337L28.2808 145.768Z"/>
</mask>
<path d="M28.2808 145.768C33.9804 165.31 45.1714 182.617 60.4388 195.499C75.7062 208.382 94.3641 216.262 114.053 218.142C133.742 220.023 153.578 215.82 171.053 206.065C188.527 196.31 202.855 181.441 212.225 163.338L196.6 154.792C188.892 169.685 177.104 181.918 162.728 189.944C148.351 197.969 132.032 201.427 115.834 199.88C99.6353 198.332 84.2853 191.85 71.7247 181.251C59.1642 170.653 49.9572 156.414 45.2681 140.337L28.2808 145.768Z" stroke="black" stroke-width="20" mask="url(#path-1-inside-1_6_9)"/>
<path d="M221.642 126.266L221.558 184.274L173.388 156.288L221.642 126.266Z" fill="black"/>
<mask id="path-3-inside-2_6_9" fill="white">
<path d="M231 114.5C231 90.3668 222.852 66.9922 207.964 48.4182C193.077 29.8441 172.387 17.2385 149.471 12.7809C126.555 8.32328 102.854 12.2941 82.4673 24.0066C62.0804 35.7191 46.2888 54.4369 37.8233 76.9235L54.3428 83.5855C61.3074 65.0856 74.2993 49.6863 91.0718 40.0503C107.844 30.4144 127.343 27.1476 146.196 30.8149C165.049 34.4822 182.071 44.853 194.319 60.134C206.567 75.415 213.271 94.6454 213.271 114.5H231Z"/>
</mask>
<path d="M231 114.5C231 90.3668 222.852 66.9922 207.964 48.4182C193.077 29.8441 172.387 17.2385 149.471 12.7809C126.555 8.32328 102.854 12.2941 82.4673 24.0066C62.0804 35.7191 46.2888 54.4369 37.8233 76.9235L54.3428 83.5855C61.3074 65.0856 74.2993 49.6863 91.0718 40.0503C107.844 30.4144 127.343 27.1476 146.196 30.8149C165.049 34.4822 182.071 44.853 194.319 60.134C206.567 75.415 213.271 94.6454 213.271 114.5H231Z" stroke="black" stroke-width="20" mask="url(#path-3-inside-2_6_9)"/>
<path d="M29.6045 122.037L22.473 64.4692L73.7495 86.2466L29.6045 122.037Z" fill="black"/>
</svg>
