<svg xmlns="http://www.w3.org/2000/svg" xmlns:xlink="http://www.w3.org/1999/xlink">
    <path d="m6.28 15.89-.86-6.28 2.08 1.34L4 8.12h3.37l.34 3.69.1 1.31.62-1.4 1.67-3.6h2.21L8.4 15.89H6.28zm5.56 0 1.45-7.77h1.98l-1.44 7.77h-1.99zm5.34.11c-.9 0-1.73-.21-2.19-.57l-.14-.1.68-1.69.22.14a3.1 3.1 0 0 0 1.58.43c.42 0 .91-.16.91-.63 0-.24-.14-.46-.84-.83-.76-.42-1.61-1.03-1.61-2.15 0-1.53 1.25-2.6 3.05-2.6.73 0 1.32.13 1.8.4l.16.1-.63 1.72-.23-.12a2.58 2.58 0 0 0-1.19-.3c-.63 0-.9.28-.9.54 0 .28.35.5.93.84 1.03.55 1.53 1.25 1.53 2.13 0 1.6-1.26 2.69-3.13 2.69zm7.76-.11-.15-1.9h-1.71l-.86 1.9H20.1l3.7-7.77h2.3l.9 7.77h-2.06zm-.49-5.18-.2.55-.5 1.18h.84l-.1-1.25-.04-.48z" />
</svg>