<svg width="390" height="333" viewBox="0 0 390 333" xmlns="http://www.w3.org/2000/svg">
<path d="M216.927 79.1722L196.927 71.3589C196.318 71.122 195.665 71 195.005 71C194.346 71 193.693 71.122 193.083 71.3589L173.083 79.1722C171.219 79.8949 170 81.6041 170 83.4988C170 102.885 181.927 116.285 193.073 120.641C194.302 121.12 195.687 121.12 196.917 120.641C205.844 117.154 220 105.112 220 83.4988C220 81.6041 218.781 79.8949 216.927 79.1722ZM195.01 114.586L195 77.3751L213.323 84.534C212.979 99.3206 204.771 110.035 195.01 114.586Z" fill="inherit"/>
<path d="M70 121H20.033C17.6193 121 17.2716 117.517 19.6376 117.039L57.8954 109.324C58.8288 109.135 59.5 108.315 59.5 107.363V78.138C59.5 77.1853 60.1903 76.3616 61.1237 76.1713C123.15 63.5259 152.757 47.1573 192.974 1.73129C193.777 0.825055 195.223 0.829094 196.022 1.73802C240.601 52.4322 272.089 69.5106 332.697 76.3019C333.712 76.4156 334.5 77.2745 334.5 78.2962V107.389C334.5 108.33 335.155 109.143 336.074 109.343L371.377 117.046C373.717 117.556 373.346 121 370.951 121H319.5C318.395 121 317.5 120.105 317.5 119V90.7442C317.5 89.7447 316.744 88.8966 315.754 88.7572C259.463 80.824 232.157 66.7934 196.105 22.0074C195.292 20.9972 193.722 21.0039 192.919 22.0226C160.323 63.399 132.759 77.3737 73.6475 88.6869C72.7031 88.8676 72 89.6963 72 90.6579V119C72 120.105 71.1046 121 70 121Z" fill="inherit" stroke="inherit"/>
<path d="M102.854 222H41.785C39.3626 222 39.0257 225.501 41.4037 225.963L89.555 235.316C90.1522 235.432 90.67 235.826 90.9533 236.364C118.83 289.359 144.522 307.791 196.609 332.085C197.165 332.344 197.83 332.333 198.377 332.055C250.975 305.299 275.5 284.818 306.048 236.22C306.334 235.766 306.796 235.435 307.32 235.32L349.99 225.953C352.327 225.44 351.954 222 349.561 222H292.568C291.9 222 291.27 222.344 290.898 222.897C260.965 267.441 240.352 287.026 198.482 311.917C197.879 312.276 197.111 312.291 196.495 311.957C152.11 287.907 131.402 268.534 104.587 223C104.227 222.388 103.564 222 102.854 222Z" fill="inherit" stroke="inherit"/>
<path d="M34.44 198L24.2 162.864L22.28 156.528V152.688H34.44L42.44 185.712H43.72L49.8 152.688H66.632L71.624 177.584L72.648 185.712H73.928L81.864 152.688H93.896V156.528L91.976 162.864L81.864 198H65.288L58.696 164.592H57.352L56.264 172.336L51.016 198H34.44ZM100.308 198L99.0275 194.16L100.308 187.76V152.688H131.988L135.188 154.608L130.964 163.568L125.204 162.928H111.828V169.968H129.044V179.888H121.492L111.828 179.248V187.76H130.964L138.58 193.904L134.804 198H100.308ZM144.37 198V162.992L143.09 156.592L144.37 152.752H154.674L167.602 170.16L170.674 175.472H171.314V152.752H183.41V156.592L182.77 162.992V198H172.722L156.658 175.472H156.018V179.312L156.658 198H144.37ZM211.506 198.64C208.775 198.64 206.109 198.32 203.506 197.68C200.946 196.997 198.621 195.803 196.53 194.096C194.482 192.389 192.839 190.021 191.602 186.992C190.407 183.963 189.81 180.08 189.81 175.344C189.81 170.608 190.407 166.725 191.602 163.696C192.839 160.667 194.482 158.299 196.53 156.592C198.621 154.885 200.946 153.712 203.506 153.072C206.109 152.389 208.775 152.048 211.506 152.048C214.237 152.048 216.882 152.389 219.442 153.072C222.045 153.755 224.37 154.949 226.418 156.656C228.509 158.363 230.151 160.731 231.346 163.76C232.583 166.789 233.202 170.651 233.202 175.344C233.202 180.037 232.583 183.899 231.346 186.928C230.151 189.957 228.509 192.325 226.418 194.032C224.37 195.739 222.045 196.933 219.442 197.616C216.882 198.299 214.237 198.64 211.506 198.64ZM211.506 187.76C214.663 187.76 217.053 186.821 218.674 184.944C220.295 183.067 221.106 179.867 221.106 175.344C221.106 170.821 220.295 167.621 218.674 165.744C217.053 163.867 214.663 162.928 211.506 162.928C208.391 162.928 206.023 163.888 204.402 165.808C202.781 167.728 201.97 170.907 201.97 175.344C201.97 179.781 202.781 182.96 204.402 184.88C206.023 186.8 208.391 187.76 211.506 187.76ZM248.955 198V162.928L236.155 163.568V152.688H273.595V163.568L260.475 162.928V187.76L261.179 194.16L260.475 198H248.955ZM279.355 198V162.928L278.715 156.528L279.355 152.688H290.939V198H279.355ZM299.87 198V163.056L298.59 156.528L299.87 152.688H331.55L334.75 154.608L330.526 163.568L324.766 162.928H310.75L311.39 169.968H328.606V179.888H320.862L311.39 179.248V187.824L312.094 194.224L311.39 198H299.87ZM352.277 198V178.8L336.405 156.528V152.688H349.845L357.525 167.152H358.805L366.421 152.688H379.861V156.528L363.541 179.184L363.925 185.648V198H352.277Z" fill="inherit"/>
<path d="M166.008 232.312L160.032 222.616L158.688 223.888V232L155.664 232.312L155.184 212.8L158.688 213.28V221.128L165.744 212.8L169.56 213.616L161.952 220.792L169.992 231.712L166.008 232.312ZM172.609 232L172.177 216.04H171.145L170.665 213.952L184.777 213.04V216.04H175.681V221.392L183.577 220.672V223.84H175.681V229.48L185.233 228.76V232H172.609ZM200.155 232.312L191.491 219.208L191.779 232L189.067 232.312L188.371 215.272L187.531 214.048L191.395 212.8L199.747 226.96L199.603 212.8L202.939 213.28L202.291 232L200.155 232.312ZM211.124 232.312V225.232L204.956 213.328L208.82 212.8L212.636 222.232L218.132 212.968L220.388 213.688L214.748 225.328L214.268 232L211.124 232.312ZM232.425 232.312L231.153 228.472H222.945L221.265 232.312L218.769 232L225.681 212.8L229.401 213.712L228.897 214.84L236.097 231.976L232.425 232.312ZM227.625 217.768L223.881 226.312L230.217 225.616L227.625 217.768Z" fill="inherit"/>
<line x1="237" y1="97.5" x2="297" y2="97.5" stroke="inherit" stroke-width="5"/>
<line x1="93" y1="97.5" x2="153" y2="97.5" stroke="inherit" stroke-width="5"/>
</svg>
