<svg width="390" height="333" viewBox="0 0 390 333" fill="none" xmlns="http://www.w3.org/2000/svg">
<path d="M216.927 90.1722L196.927 82.3589C196.318 82.122 195.665 82 195.005 82C194.346 82 193.693 82.122 193.083 82.3589L173.083 90.1722C171.219 90.8949 170 92.6041 170 94.4988C170 113.885 181.927 127.285 193.073 131.641C194.302 132.12 195.687 132.12 196.917 131.641C205.844 128.154 220 116.112 220 94.4988C220 92.6041 218.781 90.8949 216.927 90.1722ZM195.01 125.586L195 88.3751L213.323 95.534C212.979 110.321 204.771 121.035 195.01 125.586Z" fill="inherit"/>
<path d="M70 129H20.033C17.6193 129 17.2716 125.517 19.6376 125.039L57.8954 117.324C58.8288 117.135 59.5 116.315 59.5 115.363V86.138C59.5 85.1853 60.1903 84.3616 61.1237 84.1713C123.15 71.5259 152.757 55.1573 192.974 9.7313C193.777 8.82506 195.223 8.8291 196.022 9.73803C240.601 60.4322 272.089 77.5106 332.697 84.3019C333.712 84.4156 334.5 85.2745 334.5 86.2962V115.389C334.5 116.33 335.155 117.143 336.074 117.343L371.377 125.046C373.717 125.556 373.346 129 370.951 129H319.5C318.395 129 317.5 128.105 317.5 127V98.7442C317.5 97.7447 316.744 96.8966 315.754 96.7572C259.463 88.824 232.157 74.7934 196.105 30.0074C195.292 28.9972 193.722 29.0039 192.919 30.0226C160.323 71.399 132.759 85.3737 73.6475 96.6869C72.7031 96.8676 72 97.6963 72 98.6579V127C72 128.105 71.1046 129 70 129Z" fill="inherit" stroke="inherit"/>
<path d="M102.854 222H41.785C39.3626 222 39.0257 225.501 41.4037 225.963L89.555 235.316C90.1522 235.432 90.67 235.826 90.9533 236.364C118.83 289.359 144.522 307.791 196.609 332.085C197.165 332.344 197.83 332.333 198.377 332.055C250.975 305.299 275.5 284.818 306.048 236.22C306.334 235.766 306.796 235.435 307.32 235.32L349.99 225.953C352.327 225.44 351.954 222 349.561 222H292.568C291.9 222 291.27 222.344 290.898 222.897C260.965 267.441 240.352 287.026 198.482 311.917C197.879 312.276 197.111 312.291 196.495 311.957C152.11 287.907 131.402 268.534 104.587 223C104.227 222.388 103.564 222 102.854 222Z" fill="inherit" stroke="inherit"/>
<path d="M34.44 194L24.2 158.864L22.28 152.528V148.688H34.44L42.44 181.712H43.72L49.8 148.688H66.632L71.624 173.584L72.648 181.712H73.928L81.864 148.688H93.896V152.528L91.976 158.864L81.864 194H65.288L58.696 160.592H57.352L56.264 168.336L51.016 194H34.44ZM100.308 194L99.0275 190.16L100.308 183.76V148.688H131.988L135.188 150.608L130.964 159.568L125.204 158.928H111.828V165.968H129.044V175.888H121.492L111.828 175.248V183.76H130.964L138.58 189.904L134.804 194H100.308ZM144.37 194V158.992L143.09 152.592L144.37 148.752H154.674L167.602 166.16L170.674 171.472H171.314V148.752H183.41V152.592L182.77 158.992V194H172.722L156.658 171.472H156.018V175.312L156.658 194H144.37ZM211.506 194.64C208.775 194.64 206.109 194.32 203.506 193.68C200.946 192.997 198.621 191.803 196.53 190.096C194.482 188.389 192.839 186.021 191.602 182.992C190.407 179.963 189.81 176.08 189.81 171.344C189.81 166.608 190.407 162.725 191.602 159.696C192.839 156.667 194.482 154.299 196.53 152.592C198.621 150.885 200.946 149.712 203.506 149.072C206.109 148.389 208.775 148.048 211.506 148.048C214.237 148.048 216.882 148.389 219.442 149.072C222.045 149.755 224.37 150.949 226.418 152.656C228.509 154.363 230.151 156.731 231.346 159.76C232.583 162.789 233.202 166.651 233.202 171.344C233.202 176.037 232.583 179.899 231.346 182.928C230.151 185.957 228.509 188.325 226.418 190.032C224.37 191.739 222.045 192.933 219.442 193.616C216.882 194.299 214.237 194.64 211.506 194.64ZM211.506 183.76C214.663 183.76 217.053 182.821 218.674 180.944C220.295 179.067 221.106 175.867 221.106 171.344C221.106 166.821 220.295 163.621 218.674 161.744C217.053 159.867 214.663 158.928 211.506 158.928C208.391 158.928 206.023 159.888 204.402 161.808C202.781 163.728 201.97 166.907 201.97 171.344C201.97 175.781 202.781 178.96 204.402 180.88C206.023 182.8 208.391 183.76 211.506 183.76ZM248.955 194V158.928L236.155 159.568V148.688H273.595V159.568L260.475 158.928V183.76L261.179 190.16L260.475 194H248.955ZM279.355 194V158.928L278.715 152.528L279.355 148.688H290.939V194H279.355ZM299.87 194V159.056L298.59 152.528L299.87 148.688H331.55L334.75 150.608L330.526 159.568L324.766 158.928H310.75L311.39 165.968H328.606V175.888H320.862L311.39 175.248V183.824L312.094 190.224L311.39 194H299.87ZM352.277 194V174.8L336.405 152.528V148.688H349.845L357.525 163.152H358.805L366.421 148.688H379.861V152.528L363.541 175.184L363.925 181.648V194H352.277Z" fill="inherit"/>
<path d="M237 110.5H297" stroke="inherit" stroke-width="5"/>
<path d="M93 110.5H153" stroke="inherit" stroke-width="5"/>
<path d="M148.378 220.46C148.306 219.812 148.174 219.296 147.982 218.912C147.802 218.528 147.598 218.24 147.37 218.048C147.082 217.796 146.752 217.616 146.38 217.508C146.02 217.388 145.564 217.328 145.012 217.328C144.244 217.328 143.662 217.544 143.266 217.976C142.87 218.396 142.672 218.894 142.672 219.47C142.672 219.842 142.858 220.196 143.23 220.532C143.614 220.856 144.118 221.12 144.742 221.324L146.902 222.026C148.018 222.386 148.882 222.866 149.494 223.466C150.118 224.066 150.43 224.906 150.43 225.986C150.43 227.354 149.98 228.422 149.08 229.19C148.192 229.946 146.92 230.324 145.264 230.324C143.86 230.324 142.69 229.994 141.754 229.334C140.83 228.674 140.188 227.798 139.828 226.706L141.16 225.824C141.508 226.628 142.036 227.27 142.744 227.75C143.464 228.218 144.304 228.452 145.264 228.452C146.08 228.452 146.74 228.242 147.244 227.822C147.748 227.39 148 226.868 148 226.256C148 225.752 147.79 225.32 147.37 224.96C146.95 224.6 146.368 224.288 145.624 224.024L143.59 223.322C142.486 222.938 141.676 222.47 141.16 221.918C140.644 221.366 140.386 220.592 140.386 219.596C140.386 218.864 140.572 218.198 140.944 217.598C141.316 216.998 141.856 216.518 142.564 216.158C143.284 215.798 144.142 215.618 145.138 215.618C146.266 215.618 147.268 215.804 148.144 216.176C149.02 216.548 149.662 217.01 150.07 217.562L149.566 220.46H148.378ZM158.804 230.324C157.508 230.324 156.386 230.012 155.438 229.388C154.49 228.764 153.758 227.9 153.242 226.796C152.738 225.68 152.486 224.396 152.486 222.944C152.486 221.516 152.738 220.256 153.242 219.164C153.758 218.06 154.49 217.196 155.438 216.572C156.386 215.936 157.508 215.618 158.804 215.618C160.1 215.618 161.216 215.936 162.152 216.572C163.1 217.196 163.826 218.06 164.33 219.164C164.834 220.268 165.086 221.528 165.086 222.944C165.086 224.396 164.834 225.68 164.33 226.796C163.826 227.9 163.1 228.764 162.152 229.388C161.216 230.012 160.1 230.324 158.804 230.324ZM159.254 228.29C159.926 228.23 160.514 227.996 161.018 227.588C161.534 227.18 161.936 226.622 162.224 225.914C162.512 225.194 162.656 224.36 162.656 223.412C162.656 223.28 162.65 223.148 162.638 223.016C162.638 222.884 162.632 222.752 162.62 222.62C162.536 221.576 162.308 220.682 161.936 219.938C161.576 219.194 161.114 218.63 160.55 218.246C159.986 217.85 159.362 217.652 158.678 217.652C158.63 217.652 158.576 217.652 158.516 217.652C158.468 217.652 158.414 217.658 158.354 217.67C157.694 217.718 157.106 217.946 156.59 218.354C156.074 218.762 155.666 219.32 155.366 220.028C155.066 220.724 154.916 221.546 154.916 222.494C154.916 222.614 154.916 222.74 154.916 222.872C154.928 223.004 154.94 223.136 154.952 223.268C155.036 224.324 155.264 225.23 155.636 225.986C156.008 226.73 156.482 227.306 157.058 227.714C157.634 228.11 158.27 228.308 158.966 228.308C159.014 228.308 159.062 228.308 159.11 228.308C159.158 228.296 159.206 228.29 159.254 228.29ZM167.673 230V215.6L170.463 215.96L169.923 228.038L176.691 227.498V230H167.673ZM187.349 215.6L190.013 215.96L189.653 225.284C189.617 226.232 189.383 227.09 188.951 227.858C188.519 228.614 187.901 229.214 187.097 229.658C186.293 230.102 185.315 230.324 184.163 230.324C183.131 230.324 182.237 230.114 181.481 229.694C180.725 229.274 180.137 228.686 179.717 227.93C179.297 227.174 179.069 226.292 179.033 225.284L178.673 215.6L181.409 215.96V224.87C181.409 225.89 181.685 226.712 182.237 227.336C182.789 227.948 183.491 228.254 184.343 228.254C185.195 228.254 185.909 227.972 186.485 227.408C187.061 226.844 187.349 225.998 187.349 224.87V215.6ZM195.899 230.234V218.066H192.011L191.471 216.464L202.397 215.78V218.066H198.617L198.257 230L195.899 230.234ZM204.377 230.234V215.6L207.149 215.96L206.609 230L204.377 230.234ZM216.091 230.324C214.795 230.324 213.673 230.012 212.725 229.388C211.777 228.764 211.045 227.9 210.529 226.796C210.025 225.68 209.773 224.396 209.773 222.944C209.773 221.516 210.025 220.256 210.529 219.164C211.045 218.06 211.777 217.196 212.725 216.572C213.673 215.936 214.795 215.618 216.091 215.618C217.387 215.618 218.503 215.936 219.439 216.572C220.387 217.196 221.113 218.06 221.617 219.164C222.121 220.268 222.373 221.528 222.373 222.944C222.373 224.396 222.121 225.68 221.617 226.796C221.113 227.9 220.387 228.764 219.439 229.388C218.503 230.012 217.387 230.324 216.091 230.324ZM216.541 228.29C217.213 228.23 217.801 227.996 218.305 227.588C218.821 227.18 219.223 226.622 219.511 225.914C219.799 225.194 219.943 224.36 219.943 223.412C219.943 223.28 219.937 223.148 219.925 223.016C219.925 222.884 219.919 222.752 219.907 222.62C219.823 221.576 219.595 220.682 219.223 219.938C218.863 219.194 218.401 218.63 217.837 218.246C217.273 217.85 216.649 217.652 215.965 217.652C215.917 217.652 215.863 217.652 215.803 217.652C215.755 217.652 215.701 217.658 215.641 217.67C214.981 217.718 214.393 217.946 213.877 218.354C213.361 218.762 212.953 219.32 212.653 220.028C212.353 220.724 212.203 221.546 212.203 222.494C212.203 222.614 212.203 222.74 212.203 222.872C212.215 223.004 212.227 223.136 212.239 223.268C212.323 224.324 212.551 225.23 212.923 225.986C213.295 226.73 213.769 227.306 214.345 227.714C214.921 228.11 215.557 228.308 216.253 228.308C216.301 228.308 216.349 228.308 216.397 228.308C216.445 228.296 216.493 228.29 216.541 228.29ZM233.78 230.234L227.282 220.406L227.498 230L225.464 230.234L224.942 217.454L224.312 216.536L227.21 215.6L233.474 226.22L233.366 215.6L235.868 215.96L235.382 230L233.78 230.234ZM246.903 220.46C246.831 219.812 246.699 219.296 246.507 218.912C246.327 218.528 246.123 218.24 245.895 218.048C245.607 217.796 245.277 217.616 244.905 217.508C244.545 217.388 244.089 217.328 243.537 217.328C242.769 217.328 242.187 217.544 241.791 217.976C241.395 218.396 241.197 218.894 241.197 219.47C241.197 219.842 241.383 220.196 241.755 220.532C242.139 220.856 242.643 221.12 243.267 221.324L245.427 222.026C246.543 222.386 247.407 222.866 248.019 223.466C248.643 224.066 248.955 224.906 248.955 225.986C248.955 227.354 248.505 228.422 247.605 229.19C246.717 229.946 245.445 230.324 243.789 230.324C242.385 230.324 241.215 229.994 240.279 229.334C239.355 228.674 238.713 227.798 238.353 226.706L239.685 225.824C240.033 226.628 240.561 227.27 241.269 227.75C241.989 228.218 242.829 228.452 243.789 228.452C244.605 228.452 245.265 228.242 245.769 227.822C246.273 227.39 246.525 226.868 246.525 226.256C246.525 225.752 246.315 225.32 245.895 224.96C245.475 224.6 244.893 224.288 244.149 224.024L242.115 223.322C241.011 222.938 240.201 222.47 239.685 221.918C239.169 221.366 238.911 220.592 238.911 219.596C238.911 218.864 239.097 218.198 239.469 217.598C239.841 216.998 240.381 216.518 241.089 216.158C241.809 215.798 242.667 215.618 243.663 215.618C244.791 215.618 245.793 215.804 246.669 216.176C247.545 216.548 248.187 217.01 248.595 217.562L248.091 220.46H246.903Z" fill="inherit"/>
</svg>
